<?xml version="1.0" standalone="no"?><!DOCTYPE svg PUBLIC "-//W3C//DTD SVG 1.1//EN" "http://www.w3.org/Graphics/SVG/1.1/DTD/svg11.dtd"><svg t="1671506939884" class="icon" viewBox="0 0 1025 1024" version="1.1" xmlns="http://www.w3.org/2000/svg" p-id="5644" xmlns:xlink="http://www.w3.org/1999/xlink" width="48.046875" height="48"><path d="M931.190688 292.487315a351.99648 351.99648 0 0 0 81.919181-127.99872 127.99872 127.99872 0 0 0-16.639834-134.398656A98.559014 98.559014 0 0 0 924.150758 0.01024a307.196928 307.196928 0 0 0-191.99808 92.799072L639.9936 184.328397a10.879891 10.879891 0 0 1-11.519885 3.199968l-428.155718-102.398976a56.319437 56.319437 0 0 0-53.119469 14.079859L59.519405 186.248378a63.99936 63.99936 0 0 0-15.359847 48.639513 56.319437 56.319437 0 0 0 28.159719 38.399616L367.356326 435.205888a13.439866 13.439866 0 0 1 6.399936 8.95991 14.719853 14.719853 0 0 1-3.839961 10.239898L255.99744 570.884531a12.159878 12.159878 0 0 1-14.079859 5.119949l-105.598944-30.719693a40.95959 40.95959 0 0 0-15.99984 0 55.03945 55.03945 0 0 0-39.03961 15.99984l-63.99936 67.839322a58.239418 58.239418 0 0 0-14.079859 42.239577 53.759462 53.759462 0 0 0 21.759782 38.399616L191.99808 832.00192l127.99872 167.678323a59.519405 59.519405 0 0 0 42.879571 21.759783 55.03945 55.03945 0 0 0 39.03961-15.99984l63.99936-63.99936a55.679443 55.679443 0 0 0 12.159878-51.839482L447.99552 782.082419a12.159878 12.159878 0 0 1 0-11.519885l121.598784-116.478835a12.159878 12.159878 0 0 1 10.239898-3.199968 10.879891 10.879891 0 0 1 8.95991 5.759943l160.638394 292.477075a52.479475 52.479475 0 0 0 35.199648 29.439705 46.719533 46.719533 0 0 0 14.079859 0 55.679443 55.679443 0 0 0 32.639673-10.879891l88.319117-63.99936a56.319437 56.319437 0 0 0 19.839802-55.679443l-103.678963-451.835482a10.239898 10.239898 0 0 1 0-10.879891z m-552.314477 478.715213L412.795872 896.00128a11.519885 11.519885 0 0 1 0 11.519885l-37.759622 37.759622a12.159878 12.159878 0 0 1-8.959911 0 12.159878 12.159878 0 0 1-8.95991-4.479955l-115.198848-148.478515a19.199808 19.199808 0 0 0-5.119949-5.119949l-154.238458-117.118829a11.519885 11.519885 0 0 1-5.119948-8.319917 12.799872 12.799872 0 0 1 3.839961-9.599904l37.119629-37.759622a15.359846 15.359846 0 0 1 8.95991 0H127.99872l127.99872 30.719693a27.519725 27.519725 0 0 0 23.679763-5.119949l184.318157-186.238138a28.799712 28.799712 0 0 0 7.679923-23.679763 26.879731 26.879731 0 0 0-14.079859-19.839801L127.99872 230.407936a13.439866 13.439866 0 0 1-6.399936-8.95991 10.879891 10.879891 0 0 1 6.399936-10.239898l56.319437-56.319437a11.519885 11.519885 0 0 1 10.879891 0L639.9936 256.00768a26.879731 26.879731 0 0 0 26.239738-7.03993l111.358886-111.358886A238.077619 238.077619 0 0 1 924.150758 64.0096a37.759622 37.759622 0 0 1 26.239738 7.679923c10.239898 10.879891 10.239898 36.479635 0 67.839322a274.557254 274.557254 0 0 1-63.99936 104.318957L772.472275 358.406656A28.159718 28.159718 0 0 0 767.99232 384.0064l106.878931 463.99536a11.519885 11.519885 0 0 1-4.479955 12.159878l-53.759462 40.959591a12.799872 12.799872 0 0 1-17.919821-3.839962L614.393856 566.404576a28.159718 28.159718 0 0 0-44.159558-6.399936L383.99616 744.322797a28.159718 28.159718 0 0 0-5.119949 26.879731z" p-id="5645"></path></svg>