<?xml version="1.0" encoding="utf-8"?>
<!-- Generator: Adobe Illustrator 16.0.0, SVG Export Plug-In . SVG Version: 6.00 Build 0)  -->
<!DOCTYPE svg PUBLIC "-//W3C//DTD SVG 1.1//EN" "http://www.w3.org/Graphics/SVG/1.1/DTD/svg11.dtd">
<svg version="1.1" id="Layer_1" xmlns="http://www.w3.org/2000/svg" xmlns:xlink="http://www.w3.org/1999/xlink" x="0px" y="0px"
	 width="1280px" height="702.132px" viewBox="0 0 1280 702.132" enable-background="new 0 0 1280 702.132" xml:space="preserve">
<g>
	<g>
		<path fill="#E1F1FF" d="M799.761,154.024c1.992,0,3.879,0.434,5.587,1.197c-0.188-0.775-0.3-1.583-0.3-2.417
			c0-5.625,4.561-10.185,10.186-10.185c4.631,0,8.53,3.091,9.77,7.32c0.524-12.264,10.602-22.054,22.995-22.054
			c12.729,0,23.046,10.319,23.046,23.046c0,1.496-0.154,2.956-0.427,4.372c2.908-3.402,7.223-5.563,12.05-5.563
			c8.756,0,15.854,7.098,15.854,15.854c0,8.757-7.098,15.855-15.854,15.855c-8.758,0-75.332,0-82.905,0s-13.713-6.139-13.713-13.712
			C786.048,160.163,792.187,154.024,799.761,154.024z"/>
		<g>
			<g>
				<path fill="none" stroke="#A1C7FF" stroke-linejoin="round" d="M532.932,540.655c-0.486-0.105-0.977-0.207-1.467-0.306"/>
				<path fill="none" stroke="#A1C7FF" stroke-linejoin="round" stroke-dasharray="3.0025,2.5021" d="M529.008,539.894
					c-51.335-8.896-119.396,20.066-171.09,24.649c-100.311,8.898-160.092-37.04-186.455-82.122
					c-33.041-56.503-22.906-129.664,33.945-184.231c63.526-60.976,129.4-55.805,207.593-81.813
					c70.29-23.381,129.292-81.779,183.2-142.815c90.351-102.298,264.255-84.766,310.762,65.77
					c15.861,51.342,18.902,102.218,68.322,133.9c59.595,38.208,135.887,34.07,200.466,59.476
					c54.904,21.6,97.686,78.197,87.96,138.954c-10.793,67.412-79.092,120.49-140.992,138.833
					c-65.852,19.513-127.913,11.158-194.376,14.575"/>
				<path fill="none" stroke="#A1C7FF" stroke-linejoin="round" d="M927.089,625.137c-0.499,0.026-0.999,0.055-1.498,0.082"/>
			</g>
		</g>
		<g>
			<g>
				
					<line fill="none" stroke="#89B5F4" stroke-width="2" stroke-miterlimit="10" x1="521.139" y1="702.132" x2="535.94" y2="586.468"/>
				
					<line fill="none" stroke="#89B5F4" stroke-width="2" stroke-miterlimit="10" x1="709.824" y1="702.132" x2="695.021" y2="586.468"/>
			</g>
			<rect x="428.975" y="97.557" fill="#FFFFFF" stroke="#89B5F4" stroke-miterlimit="10" width="373.014" height="498.138"/>
			<rect x="449.453" y="118.037" fill="#E9F1FF" stroke="#89B5F4" stroke-miterlimit="10" width="332.056" height="457.18"/>
		</g>
		<g>
			<g>
				<g>
					<g>
						<path fill="none" stroke="#4A63FE" stroke-linejoin="round" d="M556.113,343.055c0.801-0.544,1.25-0.82,1.25-0.82
							s0.188,0.492,0.522,1.401"/>
						<path fill="none" stroke="#4A63FE" stroke-linejoin="round" stroke-dasharray="3.0362,2.0242" d="M558.576,345.537
							c5.217,14.529,24.663,72.354,6.425,79.458c-18.352,7.146-36.679,52.588-40.85,63.49"/>
						<path fill="none" stroke="#4A63FE" stroke-linejoin="round" d="M523.792,489.432c-0.341,0.905-0.521,1.401-0.521,1.401
							c-0.002-0.012-0.092-0.525-0.248-1.476"/>
						<path fill="none" stroke="#4A63FE" stroke-linejoin="round" stroke-dasharray="2.9636,1.9757" d="M522.708,487.412
							c-2.146-13.494-9.392-63.697-3.491-92.441c5.792-28.217,28.992-46.377,36.079-51.351"/>
					</g>
				</g>
				<g>
					<g>
						<path fill="none" stroke="#4A63FE" stroke-linejoin="round" d="M676.479,343.055c-0.802-0.544-1.25-0.82-1.25-0.82
							s-0.188,0.492-0.522,1.401"/>
						<path fill="none" stroke="#4A63FE" stroke-linejoin="round" stroke-dasharray="3.0362,2.0242" d="M674.016,345.537
							c-5.216,14.529-24.661,72.354-6.425,79.458c18.354,7.146,36.68,52.588,40.851,63.49"/>
						<path fill="none" stroke="#4A63FE" stroke-linejoin="round" d="M708.801,489.432c0.342,0.905,0.521,1.401,0.521,1.401
							c0.002-0.012,0.092-0.525,0.248-1.476"/>
						<path fill="none" stroke="#4A63FE" stroke-linejoin="round" stroke-dasharray="2.9636,1.9757" d="M709.884,487.412
							c2.146-13.495,9.395-63.697,3.492-92.441c-5.792-28.217-28.992-46.377-36.08-51.351"/>
					</g>
				</g>
			</g>
			
				<line fill="none" stroke="#202263" stroke-width="2" stroke-linecap="round" stroke-linejoin="round" stroke-miterlimit="10" x1="616.038" y1="199.626" x2="616.038" y2="157.652"/>
			<path fill="none" stroke="#FFFFFF" stroke-miterlimit="10" d="M661.906,426.621c2.749,51.199-45.604,82.252-45.604,82.252
				s-45.666-30.161-45.604-82.252C570.727,403.023,660.642,403.063,661.906,426.621z"/>
			<path fill="none" stroke="#FFFFFF" stroke-miterlimit="10" d="M616.465,492.417c-11.145-9.737-32.271-32.315-32.987-64.039
				c3.347-2.479,14.704-6.238,32.334-6.238c18.496,0,30.233,4.07,33.416,6.663C650.202,460.034,628.078,482.707,616.465,492.417z"/>
			<path fill="none" stroke="#FFFFFF" stroke-miterlimit="10" d="M616.657,474.471c-8.031-8.775-20.26-28.639-19.744-46.131
				c4.241-0.959,10.475-1.855,18.673-1.855c9.128,0,15.881,1.092,20.238,2.182C636.257,446.502,625.039,465.699,616.657,474.471z"/>
			<path fill="#FFAC06" d="M674.811,244.726c-19.173-43.572-58.497-62.48-58.497-62.48c-6.968,2.929-39.361,18.908-58.531,62.48
				c-23.165,52.645,2.838,187.966,2.838,187.966h111.353C671.973,432.692,697.974,297.371,674.811,244.726z"/>
			<g>
				<path fill="#FFFFFF" d="M557.76,416.076h117.072c0.433-2.694,0.896-5.665,1.376-8.874H556.387
					C556.865,410.411,557.327,413.382,557.76,416.076z"/>
			</g>
			<path fill="#4A63FE" d="M640.89,271.07c0,13.583-11.012,24.595-24.593,24.595c-13.585,0-24.598-11.013-24.598-24.595
				c0-13.586,11.013-24.596,24.598-24.596C629.878,246.475,640.89,257.484,640.89,271.07z"/>
			<g>
				<g>
					<defs>
						<circle id="SVGID_1_" cx="616.294" cy="271.07" r="24.595"/>
					</defs>
					<clipPath id="SVGID_2_">
						<use xlink:href="#SVGID_1_"  overflow="visible"/>
					</clipPath>
					<g opacity="0.44" clip-path="url(#SVGID_2_)">
						
							<rect x="613.409" y="240.401" transform="matrix(-0.741 -0.6715 0.6715 -0.741 891.0774 885.7906)" fill="#FFFFFF" width="5.881" height="61.327"/>
						
							<rect x="620.23" y="246.251" transform="matrix(-0.7406 -0.6719 0.6719 -0.7406 896.808 900.0235)" fill="#FFFFFF" width="3.782" height="61.328"/>
						
							<rect x="608.063" y="235.212" transform="matrix(-0.7407 -0.6719 0.6719 -0.7407 883.1067 872.6039)" fill="#FFFFFF" width="3.781" height="61.324"/>
					</g>
				</g>
			</g>
			<path fill="none" stroke="#202263" stroke-miterlimit="10" stroke-dasharray="3,2" d="M616.297,237.773
				c-18.392,0-33.296,14.908-33.296,33.297c0,18.389,14.905,33.293,33.296,33.293c18.386,0,33.293-14.905,33.293-33.293
				C649.591,252.681,634.684,237.773,616.297,237.773z M616.297,295.666c-13.585,0-24.598-11.013-24.598-24.595
				c0-13.586,11.013-24.596,24.598-24.596c13.581,0,24.593,11.01,24.593,24.596C640.89,284.653,629.878,295.666,616.297,295.666z"/>
			<path fill="#202263" d="M660.782,220.747c-19.784-26.609-44.466-38.501-44.466-38.501c-5.498,2.312-26.837,12.761-45.021,38.479
				L660.782,220.747z"/>
			<path fill="#FFFFFF" d="M566.096,228.705h100.165c-0.373-0.587-0.746-1.168-1.121-1.741h-97.979
				C566.804,227.537,566.447,228.118,566.096,228.705z"/>
			<g>
				<path fill="none" stroke="#4A63FE" stroke-miterlimit="10" stroke-dasharray="2.9849,1.99" d="M616.297,351.229
					c-23.579,3.929-7.58,123.383-1.827,161.675c0.353,2.354,3.298,2.354,3.652,0C623.872,474.611,639.874,355.157,616.297,351.229z"
					/>
			</g>
		</g>
		<g>
			<g>
				
					<line fill="none" stroke="#89B5F4" stroke-linejoin="round" stroke-miterlimit="10" x1="706.921" y1="161.61" x2="740.704" y2="161.61"/>
				
					<line fill="none" stroke="#89B5F4" stroke-linejoin="round" stroke-miterlimit="10" x1="706.921" y1="167.786" x2="760.764" y2="167.786"/>
				
					<line fill="none" stroke="#89B5F4" stroke-linejoin="round" stroke-miterlimit="10" x1="706.921" y1="173.961" x2="760.764" y2="173.961"/>
				
					<line fill="none" stroke="#89B5F4" stroke-linejoin="round" stroke-miterlimit="10" x1="706.921" y1="180.136" x2="760.764" y2="180.136"/>
			</g>
			<g>
				
					<line fill="none" stroke="#89B5F4" stroke-linejoin="round" stroke-miterlimit="10" x1="479.53" y1="200.114" x2="513.311" y2="200.114"/>
				
					<line fill="none" stroke="#89B5F4" stroke-linejoin="round" stroke-miterlimit="10" x1="479.53" y1="206.29" x2="533.373" y2="206.29"/>
				
					<line fill="none" stroke="#89B5F4" stroke-linejoin="round" stroke-miterlimit="10" x1="479.53" y1="212.465" x2="533.373" y2="212.465"/>
				
					<line fill="none" stroke="#89B5F4" stroke-linejoin="round" stroke-miterlimit="10" x1="479.53" y1="218.64" x2="533.373" y2="218.64"/>
			</g>
			<g>
				
					<line fill="none" stroke="#89B5F4" stroke-linejoin="round" stroke-miterlimit="10" x1="742.146" y1="272.521" x2="760.912" y2="272.521"/>
				
					<line fill="none" stroke="#89B5F4" stroke-linejoin="round" stroke-miterlimit="10" x1="706.921" y1="278.695" x2="760.764" y2="278.695"/>
				
					<line fill="none" stroke="#89B5F4" stroke-linejoin="round" stroke-miterlimit="10" x1="706.921" y1="284.872" x2="760.764" y2="284.872"/>
				
					<line fill="none" stroke="#89B5F4" stroke-linejoin="round" stroke-miterlimit="10" x1="706.921" y1="291.046" x2="760.764" y2="291.046"/>
			</g>
			<g>
				
					<line fill="none" stroke="#89B5F4" stroke-linejoin="round" stroke-miterlimit="10" x1="505.309" y1="518.074" x2="524.077" y2="518.074"/>
				
					<line fill="none" stroke="#89B5F4" stroke-linejoin="round" stroke-miterlimit="10" x1="470.088" y1="524.251" x2="523.928" y2="524.251"/>
				
					<line fill="none" stroke="#89B5F4" stroke-linejoin="round" stroke-miterlimit="10" x1="470.088" y1="530.425" x2="523.928" y2="530.425"/>
				
					<line fill="none" stroke="#89B5F4" stroke-linejoin="round" stroke-miterlimit="10" x1="470.088" y1="536.599" x2="523.928" y2="536.599"/>
			</g>
			<g>
				
					<line fill="none" stroke="#89B5F4" stroke-linejoin="round" stroke-miterlimit="10" x1="718.909" y1="509.611" x2="685.354" y2="509.611"/>
				
					<line fill="none" stroke="#89B5F4" stroke-linejoin="round" stroke-miterlimit="10" x1="739.344" y1="515.785" x2="685.504" y2="515.785"/>
				
					<line fill="none" stroke="#89B5F4" stroke-linejoin="round" stroke-miterlimit="10" x1="739.344" y1="521.961" x2="685.504" y2="521.961"/>
				
					<line fill="none" stroke="#89B5F4" stroke-linejoin="round" stroke-miterlimit="10" x1="739.344" y1="528.135" x2="685.504" y2="528.135"/>
			</g>
			<g>
				<polyline fill="none" stroke="#4A63FE" stroke-width="0.75" stroke-linejoin="round" stroke-miterlimit="10" points="
					620.66,205.455 656.865,205.455 656.865,169.248 697.095,169.248 				"/>
				<circle fill="#4A63FE" cx="620.66" cy="205.455" r="2.054"/>
			</g>
			<g>
				<polyline fill="none" stroke="#4A63FE" stroke-width="0.75" stroke-linejoin="round" stroke-miterlimit="10" points="
					583.039,271.07 502.052,271.07 502.052,227.245 				"/>
				<circle fill="#4A63FE" cx="583.039" cy="271.141" r="2.054"/>
			</g>
			<g>
				<polyline fill="none" stroke="#4A63FE" stroke-width="0.75" stroke-linejoin="round" stroke-miterlimit="10" points="
					534.983,390.697 486.553,390.697 486.553,508.873 				"/>
				<circle fill="#4A63FE" cx="534.985" cy="390.697" r="2.053"/>
			</g>
			<g>
				<polyline fill="none" stroke="#4A63FE" stroke-width="0.75" stroke-linejoin="round" stroke-miterlimit="10" points="
					614.416,388.759 659.741,388.759 659.741,508.873 679.819,508.873 				"/>
				<circle fill="#4A63FE" cx="614.416" cy="388.759" r="2.054"/>
			</g>
			<g>
				<polyline fill="none" stroke="#4A63FE" stroke-width="0.75" stroke-linejoin="round" stroke-miterlimit="10" points="
					697.72,381.009 730.653,381.009 730.653,298.19 				"/>
				<circle fill="#4A63FE" cx="697.719" cy="381.493" r="2.054"/>
			</g>
		</g>
		<path fill="none" stroke="#B7D1FF" stroke-miterlimit="10" stroke-dasharray="3,2" d="M906.883,338.934"/>
		<g>
			
				<line fill="none" stroke="#A1C7FF" stroke-linecap="round" stroke-miterlimit="10" x1="817.022" y1="70.082" x2="840.901" y2="70.082"/>
			
				<line fill="none" stroke="#A1C7FF" stroke-linecap="round" stroke-miterlimit="10" x1="920.877" y1="448" x2="944.756" y2="448"/>
			
				<line fill="none" stroke="#A1C7FF" stroke-linecap="round" stroke-miterlimit="10" x1="793.827" y1="70.082" x2="808.045" y2="70.082"/>
			
				<line fill="none" stroke="#A1C7FF" stroke-linecap="round" stroke-miterlimit="10" x1="1176.522" y1="287.618" x2="1200.401" y2="287.618"/>
			
				<line fill="none" stroke="#A1C7FF" stroke-linecap="round" stroke-miterlimit="10" x1="1153.328" y1="287.618" x2="1167.546" y2="287.618"/>
			
				<line fill="none" stroke="#A1C7FF" stroke-linecap="round" stroke-miterlimit="10" x1="942.569" y1="437.501" x2="956.787" y2="437.501"/>
			
				<line fill="none" stroke="#A1C7FF" stroke-linecap="round" stroke-miterlimit="10" x1="197.582" y1="398.313" x2="221.459" y2="398.313"/>
			
				<line fill="none" stroke="#A1C7FF" stroke-linecap="round" stroke-miterlimit="10" x1="174.386" y1="398.313" x2="188.604" y2="398.313"/>
			<circle fill="none" stroke="#A1C7FF" stroke-linecap="round" stroke-miterlimit="10" cx="147.048" cy="220.747" r="4.369"/>
			<path fill="none" stroke="#A1C7FF" stroke-linecap="round" stroke-miterlimit="10" d="M512.405,65.712
				c0,2.414-1.954,4.37-4.371,4.37c-2.411,0-4.368-1.956-4.368-4.37c0-2.413,1.957-4.37,4.368-4.37
				C510.451,61.343,512.405,63.3,512.405,65.712z"/>
			<path fill="none" stroke="#A1C7FF" stroke-linecap="round" stroke-miterlimit="10" d="M1144.945,250.832
				c0,2.417-1.957,4.371-4.371,4.371c-2.413,0-4.37-1.955-4.37-4.371c0-2.411,1.957-4.368,4.37-4.368
				C1142.988,246.464,1144.945,248.421,1144.945,250.832z"/>
			<circle fill="none" stroke="#A1C7FF" stroke-linecap="round" stroke-miterlimit="10" cx="853.342" cy="399.996" r="4.37"/>
			<g>
				
					<line fill="none" stroke="#A1C7FF" stroke-linecap="round" stroke-miterlimit="10" x1="255.101" y1="339.242" x2="255.101" y2="351.505"/>
				
					<line fill="none" stroke="#A1C7FF" stroke-linecap="round" stroke-miterlimit="10" x1="261.232" y1="345.372" x2="248.969" y2="345.372"/>
			</g>
			<g>
				
					<line fill="none" stroke="#A1C7FF" stroke-linecap="round" stroke-miterlimit="10" x1="597.738" y1="16.219" x2="597.738" y2="28.481"/>
				
					<line fill="none" stroke="#A1C7FF" stroke-linecap="round" stroke-miterlimit="10" x1="603.869" y1="22.35" x2="591.607" y2="22.35"/>
			</g>
			<g>
				
					<line fill="none" stroke="#A1C7FF" stroke-linecap="round" stroke-miterlimit="10" x1="315.294" y1="111.905" x2="315.294" y2="124.167"/>
				
					<line fill="none" stroke="#A1C7FF" stroke-linecap="round" stroke-miterlimit="10" x1="321.426" y1="118.037" x2="309.162" y2="118.037"/>
			</g>
			<g>
				
					<line fill="none" stroke="#A1C7FF" stroke-linecap="round" stroke-miterlimit="10" x1="888.812" y1="206.334" x2="888.812" y2="218.597"/>
				
					<line fill="none" stroke="#A1C7FF" stroke-linecap="round" stroke-miterlimit="10" x1="894.943" y1="212.465" x2="882.68" y2="212.465"/>
			</g>
			<g>
				
					<line fill="none" stroke="#A1C7FF" stroke-linecap="round" stroke-miterlimit="10" x1="1173.946" y1="502.739" x2="1173.946" y2="515.004"/>
				
					<line fill="none" stroke="#A1C7FF" stroke-linecap="round" stroke-miterlimit="10" x1="1180.077" y1="508.873" x2="1167.813" y2="508.873"/>
			</g>
			<g>
				
					<circle fill="none" stroke="#A1C7FF" stroke-linecap="round" stroke-linejoin="round" stroke-miterlimit="10" cx="233.545" cy="448" r="22.919"/>
				<g>
					<path fill="none" stroke="#A1C7FF" stroke-linecap="round" stroke-linejoin="round" stroke-miterlimit="10" d="M238.46,459.398
						c-18.193,7.848-39.252,12.192-42.445,4.79c-2.507-5.81,8.605-14.425,14.725-18.451l-0.107,3.318
						c-10.03,6.604-9.908,10.366-8.915,12.673c1.827,4.232,15.011,4.144,35.688-4.773c20.677-8.92,29.791-18.448,27.963-22.686
						c-1.014-2.349-3.703-5.02-15.352-2.239l-2.414-2.099c12.102-2.887,21.613-2.428,23.471,1.878
						C274.268,439.215,256.655,451.552,238.46,459.398z"/>
				</g>
			</g>
			<g>
				
					<circle fill="none" stroke="#A1C7FF" stroke-linecap="round" stroke-linejoin="round" stroke-miterlimit="10" cx="1011.423" cy="165.116" r="32.643"/>
				<g>
					<path fill="none" stroke="#A1C7FF" stroke-linecap="round" stroke-linejoin="round" stroke-miterlimit="10" d="
						M1006.286,182.089c-27.063-8.002-54.064-22.452-50.809-33.464c2.556-8.642,22.568-7.932,32.936-6.759l-3.145,3.533
						c-16.993-1.92-20.291,2.311-21.306,5.736c-1.862,6.301,12.646,18.223,43.397,27.319c30.756,9.096,49.415,6.982,51.276,0.681
						c1.035-3.497,0.527-8.869-14.753-16.453l-0.728-4.497c15.873,7.878,25.859,17.053,23.966,23.459
						C1063.869,192.657,1033.35,190.093,1006.286,182.089z"/>
				</g>
			</g>
			<g>
				<polygon fill="none" stroke="#A1C7FF" stroke-linecap="round" stroke-linejoin="round" stroke-miterlimit="10" points="
					910.228,329.002 880.617,345.372 861.912,343.121 891.521,326.748 				"/>
				<polygon fill="none" stroke="#A1C7FF" stroke-linecap="round" stroke-linejoin="round" stroke-miterlimit="10" points="
					893.4,297.96 863.788,314.333 845.083,312.079 874.692,295.708 				"/>
				
					<line fill="none" stroke="#A1C7FF" stroke-linecap="round" stroke-linejoin="round" stroke-miterlimit="10" x1="893.4" y1="297.96" x2="910.228" y2="329.002"/>
				
					<line fill="none" stroke="#A1C7FF" stroke-linecap="round" stroke-linejoin="round" stroke-miterlimit="10" x1="863.481" y1="314.606" x2="880.617" y2="345.372"/>
				
					<line fill="none" stroke="#A1C7FF" stroke-linecap="round" stroke-linejoin="round" stroke-miterlimit="10" x1="844.774" y1="312.354" x2="861.912" y2="343.121"/>
				
					<line fill="none" stroke="#A1C7FF" stroke-linecap="round" stroke-linejoin="round" stroke-miterlimit="10" x1="874.384" y1="295.984" x2="891.521" y2="326.748"/>
			</g>
			<polygon fill="none" stroke="#A1C7FF" stroke-linecap="round" stroke-linejoin="round" stroke-miterlimit="10" points="
				1165.589,413.977 1166.265,393.33 1182.242,406.424 1202.086,400.686 1194.571,419.929 1206.162,437.028 1185.537,435.825 
				1172.857,452.133 1167.627,432.148 1148.2,425.126 			"/>
			<polygon fill="none" stroke="#A1C7FF" stroke-linecap="round" stroke-linejoin="round" stroke-miterlimit="10" points="
				388.803,49.078 400.77,37.253 402.875,53.944 417.819,61.671 402.595,68.833 399.864,85.433 388.35,73.167 371.718,75.7 
				379.825,60.959 372.277,45.923 			"/>
			<g>
				<polygon fill="none" stroke="#A1C7FF" stroke-linecap="round" stroke-linejoin="round" stroke-miterlimit="10" points="
					233.553,165.068 208.11,168.432 174.699,145.614 196.852,140.905 				"/>
				<polyline fill="none" stroke="#A1C7FF" stroke-linecap="round" stroke-linejoin="round" stroke-miterlimit="10" points="
					208.11,168.432 227.323,118.732 233.553,165.068 				"/>
				<polyline fill="none" stroke="#A1C7FF" stroke-linecap="round" stroke-linejoin="round" stroke-miterlimit="10" points="
					174.699,145.614 227.323,118.732 196.852,140.905 				"/>
			</g>
		</g>
		<path fill="#E1F1FF" d="M183.88,303.883c-3.521,0-6.856,0.766-9.875,2.116c0.335-1.373,0.531-2.797,0.531-4.273
			c0-9.937-8.057-17.994-17.996-17.994c-8.18,0-15.074,5.463-17.262,12.934c-0.924-21.67-18.733-38.967-40.631-38.967
			c-22.49,0-40.722,18.232-40.722,40.722c0,2.645,0.273,5.22,0.754,7.725c-5.139-6.011-12.761-9.833-21.288-9.833
			c-15.472,0-28.015,12.542-28.015,28.015c0,15.472,12.542,28.015,28.015,28.015s133.104,0,146.488,0
			c13.381,0,24.23-10.848,24.23-24.228C208.11,314.73,197.262,303.883,183.88,303.883z"/>
		<g>
			<rect x="36.403" y="699.364" fill="#A1C7FF" width="1230.597" height="2.768"/>
		</g>
		<g>
			<g>
				<path fill="#2F40DD" d="M926.777,702.132v-76.93h286.238c10.552,0,19.137,8.585,19.137,19.136v38.659
					c0,10.55-8.585,19.135-19.137,19.135H926.777z"/>
				<path opacity="0.55" fill="#2F40DD" enable-background="new    " d="M1205.859,625.202h-6.785
					c10.551,0,19.135,8.585,19.135,19.136v38.659c0,10.55-8.584,19.135-19.135,19.135h6.785c10.55,0,19.135-8.585,19.135-19.135
					v-38.659C1224.994,633.787,1216.409,625.202,1205.859,625.202z"/>
				<path opacity="0.55" fill="#2F40DD" enable-background="new    " d="M1164.883,625.202h-6.784
					c10.551,0,19.136,8.585,19.136,19.136v38.659c0,10.55-8.585,19.135-19.136,19.135h6.784c10.552,0,19.136-8.585,19.136-19.135
					v-38.659C1184.019,633.787,1175.434,625.202,1164.883,625.202z"/>
				<path fill="#4A63FE" d="M866.24,702.132v-76.93h277.069c10.551,0,19.136,8.585,19.136,19.136v38.659
					c0,10.55-8.585,19.135-19.136,19.135H866.24z"/>
				<path fill="#E9F1FF" d="M1143.312,692.96H866.24v-58.586h277.069c5.504,0,9.964,4.46,9.964,9.966v38.657
					C1153.272,688.5,1148.813,692.96,1143.312,692.96z"/>
			</g>
			<line fill="none" stroke="#BBD8F9" stroke-miterlimit="10" x1="1153.272" y1="649.333" x2="886.069" y2="649.333"/>
			<line fill="none" stroke="#BBD8F9" stroke-miterlimit="10" x1="1153.272" y1="663.667" x2="1050.454" y2="663.667"/>
			<line fill="none" stroke="#BBD8F9" stroke-miterlimit="10" x1="1153.272" y1="677.256" x2="898.938" y2="677.256"/>
			<line fill="none" stroke="#BBD8F9" stroke-miterlimit="10" x1="1036.588" y1="663.667" x2="933.766" y2="663.667"/>
		</g>
		<g>
			<g>
				<path fill="#FFAC06" d="M891.924,625.202v-76.93h286.239c10.551,0,19.136,8.588,19.136,19.138v38.657
					c0,10.55-8.585,19.135-19.136,19.135H891.924z"/>
				<path fill="#FFCD2E" d="M1171.006,548.271h-6.785c10.552,0,19.136,8.589,19.136,19.139v38.657
					c0,10.55-8.584,19.135-19.136,19.135h6.785c10.547,0,19.135-8.585,19.135-19.135V567.41
					C1190.141,556.86,1181.553,548.271,1171.006,548.271z"/>
				<path fill="#FFCD2E" d="M1130.03,548.271h-6.785c10.55,0,19.135,8.589,19.135,19.139v38.657c0,10.55-8.585,19.135-19.135,19.135
					h6.785c10.55,0,19.135-8.585,19.135-19.135V567.41C1149.165,556.86,1140.58,548.271,1130.03,548.271z"/>
				<path fill="#FFCC5A" d="M831.387,625.202v-76.93h277.07c10.55,0,19.135,8.588,19.135,19.138v38.657
					c0,10.55-8.585,19.135-19.135,19.135H831.387z"/>
				<path fill="#FFEAD7" d="M1108.457,616.033h-277.07v-58.589h277.07c5.503,0,9.963,4.463,9.963,9.966v38.657
					C1118.42,611.57,1113.96,616.033,1108.457,616.033z"/>
			</g>
			<line fill="none" stroke="#FFD19F" stroke-miterlimit="10" x1="1118.42" y1="572.403" x2="851.216" y2="572.403"/>
			<line fill="none" stroke="#FFD19F" stroke-miterlimit="10" x1="1118.42" y1="586.737" x2="1015.598" y2="586.737"/>
			<line fill="none" stroke="#FFD19F" stroke-miterlimit="10" x1="1118.42" y1="600.329" x2="864.085" y2="600.329"/>
			<line fill="none" stroke="#FFD19F" stroke-miterlimit="10" x1="1001.734" y1="586.737" x2="898.912" y2="586.737"/>
		</g>
		<g>
			<g>
				<path fill="#FE881C" d="M1070.292,672.383c0.096,0,0.096-0.147,0-0.147S1070.196,672.383,1070.292,672.383L1070.292,672.383z"/>
			</g>
		</g>
		<g>
			<g>
				<g>
					<polygon fill="#212237" points="1016.776,691.443 1067.508,668.322 1065.597,664.289 1014.863,687.411 					"/>
					<path fill="#4A63FE" d="M1050.729,650.598l4.862-0.962c0,0,4.287,4.975,6.749,8.675c2.463,3.699,3.255,5.979,3.255,5.979
						l-50.732,23.122c0,0,0.202-3.244,9.087-15.843c3.501-4.967,4.474-9.271,4.474-9.271L1050.729,650.598z"/>
					<path fill="#FFCEB6" d="M1048.289,632.53l7.304,17.104c0,0-0.96,3.546-9.574,7.475c-8.614,3.925-17.595,5.188-17.595,5.188
						l-13.561-26.063"/>
				</g>
				<g>
					
						<rect x="1044.438" y="698.402" transform="matrix(1 -0.0011 0.0011 1 -0.7721 1.1837)" fill="#212237" width="55.754" height="3.676"/>
					<path fill="#4A63FE" d="M1092.235,678.991l4.824,1.138c0,0,1.847,6.298,2.558,10.687c0.711,4.387,0.558,7.578,0.558,7.578
						l-55.751,0.064c0,0,1.454-3.657,14.756-11.452c5.241-3.074,7.906-6.588,7.906-6.588L1092.235,678.991z"/>
					<path fill="#FFCEB6" d="M1097.487,661.531l-0.428,18.598c0,0-2.341,2.83-11.807,2.841c-9.469,0.012-18.168-2.552-18.168-2.552
						l-1.563-29.339"/>
				</g>
				<g>
					<path fill="#202263" d="M1009.786,387.51c0,0-35.602,90.938-38.673,133.921c-3.07,42.986,39.914,136.121,39.914,136.121
						l48.104-19.445c0,0-32.75-82.9-27.634-108.487c5.117-25.588,26.611-81.876,26.611-81.876l6.14-67.55"/>
					<path fill="#202263" d="M1095.66,393.417c14.646,27.714,10.01,131.001,8.504,164.86c-1.506,33.857,2.047,111.559,2.047,111.559
						h-54.924c0,0-9.389-84.09-12.728-126.361c-2.899-36.759-10.01-100.115-5.561-142.387"/>
					<path fill="none" stroke="#4D59A3" stroke-width="0.5" stroke-miterlimit="10" d="M1087.373,416.36
						c10.512,65.709,5.914,91.334,5.257,139.957c-0.656,48.623,4.044,113.36,4.044,113.36"/>
					
						<line fill="none" stroke="#4D59A3" stroke-width="0.5" stroke-miterlimit="10" x1="1050.321" y1="659.482" x2="1105.589" y2="658.699"/>
					<path fill="none" stroke="#4D59A3" stroke-width="0.5" stroke-miterlimit="10" d="M1066.022,420.807
						c0.923,17.517,23.967,14.98,23.967,14.98"/>
					<path fill="none" stroke="#4D59A3" stroke-width="0.5" stroke-miterlimit="10" d="M1030.865,421.88
						c-1.827,36.146,4.171,90.852,4.171,90.852"/>
					<path fill="none" stroke="#4D59A3" stroke-width="0.5" stroke-miterlimit="10" d="M1021.412,423.994
						c-0.89,26.238,9.34,26.387,9.34,26.387"/>
					<path fill="none" stroke="#4D59A3" stroke-width="0.5" stroke-miterlimit="10" d="M1009.862,424.213
						c-3.715,10.684-16.139,7.779-16.139,7.779"/>
					<path fill="none" stroke="#4D59A3" stroke-width="0.5" stroke-miterlimit="10" d="M1033.35,492.768
						c0,0-10.67,21.34-13.094,42.678c-2.425,21.338,23.275,79.046,23.275,79.046"/>
					
						<line fill="none" stroke="#4D59A3" stroke-width="0.5" stroke-miterlimit="10" x1="1006.635" y1="646.968" x2="1046.813" y2="631.544"/>
				</g>
			</g>
			<g>
				<path fill="#F2B18F" d="M1029.853,237.419c0,0-8.12,21.071-1.449,28.118c3.468,3.663,13.916,4.514,18.445,1.054
					c3.362-2.565,8.608-18.787,6.796-21.689C1046.721,233.819,1029.853,237.419,1029.853,237.419z"/>
				<path fill="#F2B18F" d="M1054.963,259.017l1.563,22.049c0,0-11.519,11.694-23.568-1.241l1.729-14.399L1054.963,259.017z"/>
				<g>
					<path fill="#212237" d="M1050.74,252.357"/>
					<path fill="#212237" d="M1060.409,253.849c0.882-4.511,3.174-6.968,2.871-12.202c-0.316-5.465-4.96-6.155-4.96-6.155
						s-0.57-2.657-5.102-4.695c-4.53-2.038-20.411-5.822-27.677,0.424c-1.4,1.203-2.896,8.62,2.402,10.323
						c8.672,2.787,20.445-2.122,22.701,3.409c0.813,1.998,0.521,3.96,0.274,5.549c-0.116,0.751-0.165,1.335-0.182,1.854l2.663,1.206
						c3.373,1.416-2.059,7.904-1.079,10.301c0.514,1.257,3.255,1.295,5.363-0.238
						C1059.793,262.093,1059.45,258.758,1060.409,253.849z"/>
				</g>
				<path fill="#F2B18F" d="M1051.951,254.092c2.098-3.244,4.074-2.946,5.282-1.384c1.613,2.079-0.771,6.941-2.01,7.85
					c-2.508,1.841-4.676,1.879-5.084-0.262"/>
			</g>
			<g>
				<path fill="#4A63FE" d="M1056.574,280.812c0,0-4.879,3.592-12.91,3.592c-8.028,0-10.562-4.766-10.562-4.766
					s-31.736,0.835-47.623,16.07c-17.361,16.646-34.274,51.458-20.725,74.042c13.548,22.582,51.453-5.582,51.453-5.582"/>
				<path fill="#4A63FE" d="M1022.456,285.913c-24.547-6.85-26.92,130.894-26.92,130.894c15.872,9.866,110.466,6.671,110.466,6.671
					s9.267-80.1-19.991-127.769c-5.712-9.307-29.437-14.896-29.437-14.896S1039.652,290.713,1022.456,285.913z"/>
				<g>
					<path fill="#FFD9C0" d="M960.906,270.073l31.54-6.022l23.208,132.873c0,0-2.362,6.338-12.22,8.22
						c-9.855,1.885-15.656-2.896-15.656-2.896L960.906,270.073z"/>
					<path fill="#FFC088" d="M972.425,255.568c0,0,15.907-2.563,19.632,5.758c3.729,8.314-4.872,13.047-12.12,14.907
						c-7.25,1.857-21.069,1.254-18.554-8.814c2.211-8.845,16.832-8.915,20.151-6.46c3.318,2.454,3.725,8.317-5.762,9.652
						c-9.486,1.338-6.052-6.722-1.161-7.047"/>
					<path fill="#FFAF5F" d="M970.008,269.132c0,0,3.146,4.02,9.427,1c6.281-3.02,6.567-14.218-9.334-10.045
						c-16.029,4.206-9.611,18.097,1.572,17.268L970.008,269.132z"/>
					<path fill="#F78D37" d="M975.371,271.292l-1.495-7.834c0,0-4.801,1.819-4.422,4.693
						C969.922,271.703,975.371,271.292,975.371,271.292z"/>
					<path fill="#FFCDA4" d="M969.486,268.424l1.682,8.969c7.644,0.368,14.313-3.133,14.313-3.133l-1.949-10.209
						c0,0,0.457,4.952-5.744,6.555C971.584,272.211,969.486,268.424,969.486,268.424z"/>
				</g>
				<g>
					<path fill="#FFEAD7" d="M1000.563,280.012l22.98-0.865l2.827,115.521c0,0-2.324,5.047-9.506,5.317
						c-7.184,0.271-10.806-4.551-10.806-4.551L1000.563,280.012z"/>
					<path fill="#FFC088" d="M1010.219,269.289c0,0,11.539-0.035,13.329,7.501c1.789,7.536-4.793,10.385-10.123,10.985
						s-15.066-1.762-12.25-9.942c2.473-7.188,12.848-5.287,14.947-2.765c2.104,2.522,1.79,7.536-5.073,7.396
						c-6.862-0.143-3.601-6.5-0.1-6.117"/>
					<path fill="#FFAF5F" d="M1007.113,280.439c0,0,1.818,3.819,6.582,2.108c4.763-1.711,6.113-11.147-5.589-9.75
						c-11.799,1.411-8.671,14.023-0.655,14.821L1007.113,280.439z"/>
					<path fill="#F78D37" d="M1010.697,282.982l-0.261-6.825c0,0-3.59,0.895-3.612,3.376
						C1006.789,282.599,1010.697,282.982,1010.697,282.982z"/>
					<path fill="#FFCDA4" d="M1006.818,279.769l0.271,7.814c5.382,1.335,10.469-0.732,10.469-0.732l-0.335-8.898
						c0,0-0.184,4.252-4.747,4.776C1007.916,283.253,1006.818,279.769,1006.818,279.769z"/>
				</g>
				<g>
					<path fill="#FFD9C0" d="M1046.78,281.444l27.689,9.015l-37.592,109.277c0,0-4.561,3.728-13.212,0.911
						c-8.655-2.816-11.262-8.878-11.262-8.878L1046.78,281.444z"/>
					<path fill="#FFC088" d="M1062.088,275.541c0,0,13.765,4.898,13.224,12.712c-0.539,7.817-9.394,7.669-15.959,5.952
						c-6.563-1.716-17.328-8.09-11.07-14.54c5.495-5.663,17.184,0.546,18.794,3.806c1.61,3.257-0.54,7.815-8.669,4.75
						c-8.128-3.068-1.986-7.62,2.049-5.766"/>
					<path fill="#FFAF5F" d="M1054.434,284.642c0,0,0.813,4.352,7.096,4.787c6.284,0.436,11.236-7.814-3.203-11.507
						c-14.557-3.725-15.302,9.41-6.033,13.583L1054.434,284.642z"/>
					<path fill="#F78D37" d="M1057.801,288.556l2.114-6.495c0,0-4.596-0.698-5.507,1.613
						C1053.281,286.529,1057.801,288.556,1057.801,288.556z"/>
					<path fill="#FFCDA4" d="M1054.316,283.891l-2.443,7.425c5.938,3.549,12.734,3.79,12.734,3.79l2.757-8.466
						c0,0-1.728,3.898-7.351,2.438C1054.393,287.621,1054.316,283.891,1054.316,283.891z"/>
				</g>
				<g>
					<g>
						<g>
							<path fill="#F2B18F" d="M1021.71,334.087c3.014-2.392,15.202-11.902,15.799-11.053c0.573,0.815-3.454,5.073-2.925,5.309
								c0.752,0.335,4.414-2.211,6.336-3.825c1.714-1.442,4.704-3.476,5.426-2.813c1.378,1.265-8.126,9.055-8.126,9.055
								c0.417,0.384,8.653-10.288,9.915-9.35c1.816,1.354-7.75,11.896-7.715,12.599c0,0,5.759-11.445,7.104-10.443
								c1.343,1.002-3.541,11.35-5.973,13.73c1.627-2.33,4.414-11.304,5.396-10.574c0.98,0.729-2.122,7.987-2.848,8.941
								c-5.945,7.816-12.631,12.618-12.631,12.618"/>
						</g>
					</g>
				</g>
				<path fill="#4A63FE" d="M968.312,341.353c20.899-0.435,60.577-18.165,60.577-18.165l15.723,22.063
					c0,0-35.725,31.602-67.126,33.021L968.312,341.353z"/>
				<path fill="none" stroke="#6E94FF" stroke-width="0.5" stroke-miterlimit="10" d="M1024.578,359.758l20.032-14.507
					l-15.723-22.063c0,0-29.412,13.731-56.562,17.851"/>
				<g>
					<g>
						<g>
							<path fill="#F2B18F" d="M1013.735,391.93c-3.83-0.387-21.162-1.864-21.205-0.83c-0.044,1.001,5.646,2.406,5.326,2.894
								c-0.45,0.687-4.907,0.521-7.397,0.2c-2.222-0.289-5.836-0.388-6.084,0.563c-0.476,1.809,11.729,3.232,11.729,3.232
								c-0.145,0.546-12.841-3.987-13.395-2.518c-0.801,2.122,12.947,5.831,13.296,6.441c0,0-11.028-6.525-11.62-4.957
								c-0.589,1.57,9.109,7.639,12.439,8.333c-2.625-1.081-9.817-7.13-10.25-5.984c-0.43,1.145,6.104,5.576,7.226,5.987
								c9.227,3.368,18.352,3.735,18.352,3.735"/>
						</g>
					</g>
				</g>
				<path fill="#4A63FE" d="M1072.83,412.544c17.924-10.507,35.229-38.625,37.165-67.172c1.262-18.651-11.218-42.605-27.233-53.259"
					/>
				<path fill="#4A63FE" d="M1053.957,376.166c0,0-21,9.285-49.099,14.172l-4.174,32.818c13.416,1.057,49.236,1.246,74.019-11.537"
					/>
				<path fill="none" stroke="#6E94FF" stroke-width="0.5" stroke-miterlimit="10" d="M1031.813,422.731
					c0,0,31.589-4.432,42.89-11.112c18.813-11.12,26.547-33.348,26.547-33.348"/>
				<path fill="none" stroke="#6E94FF" stroke-width="0.5" stroke-miterlimit="10" d="M1004.858,390.338
					c0,0,34.528-5.871,51.716-15.545c13.604-7.658,16.256-45.614,16.256-45.614"/>
			</g>
		</g>
		<g>
			<g>
				<path fill="#4A63FE" d="M772.438,570.357c-1.691,0-3.18-1.145-3.605-2.784l-13.688-51.94c-0.293-1.138-0.053-2.313,0.661-3.229
					c0.708-0.919,1.784-1.449,2.943-1.449h66.01c1.691,0,3.173,1.141,3.605,2.779l13.688,51.943
					c0.292,1.142,0.052,2.313-0.659,3.233c-0.711,0.919-1.787,1.446-2.945,1.446H772.438L772.438,570.357z"/>
				<path fill="#C7E2FF" d="M838.444,567.688H772.44c-0.481,0-0.903-0.322-1.024-0.787l-13.686-51.947
					c-0.18-0.67,0.326-1.327,1.021-1.327h66.007c0.479,0,0.899,0.324,1.021,0.786l13.688,51.951
					C839.646,567.032,839.139,567.688,838.444,567.688z"/>
				<g>
					<polygon fill="#C7E2FF" points="818.663,550.362 772.703,550.362 764.877,520.664 810.835,520.664 					"/>
					<polygon fill="#F0F8FF" points="820.391,547.479 774.43,547.479 766.604,517.777 812.563,517.777 					"/>
					<g>
						<g>
							<defs>
								<polygon id="SVGID_3_" points="817.35,545.8 776.584,545.8 769.643,519.455 810.41,519.455 								"/>
							</defs>
							<clipPath id="SVGID_4_">
								<use xlink:href="#SVGID_3_"  overflow="visible"/>
							</clipPath>
							<g opacity="0.35" clip-path="url(#SVGID_4_)">
								<g>
									<rect x="765.166" y="522.632" fill="#A4D0FF" width="59.576" height="2.099"/>
								</g>
								<g>
									<rect x="765.166" y="528.598" fill="#A4D0FF" width="59.576" height="2.099"/>
								</g>
								<g>
									<rect x="765.166" y="534.561" fill="#A4D0FF" width="59.576" height="2.101"/>
								</g>
								<g>
									<rect x="765.166" y="540.525" fill="#A4D0FF" width="59.576" height="2.098"/>
								</g>
							</g>
						</g>
					</g>
				</g>
				<g>
					<polygon fill="#C7E2FF" points="830.081,564.543 786.283,564.543 778.825,536.239 822.623,536.239 					"/>
					<polygon fill="#F0F8FF" points="831.728,561.794 787.929,561.794 780.472,533.49 824.271,533.49 					"/>
					<g>
						<g>
							<defs>
								<polygon id="SVGID_5_" points="828.829,560.196 789.979,560.196 783.366,535.09 822.215,535.09 								"/>
							</defs>
							<clipPath id="SVGID_6_">
								<use xlink:href="#SVGID_5_"  overflow="visible"/>
							</clipPath>
							<g clip-path="url(#SVGID_6_)">
								<g>
									<rect x="779.098" y="538.115" fill="#C7E2FF" width="56.775" height="2"/>
								</g>
								<g>
									<rect x="779.098" y="543.799" fill="#C7E2FF" width="56.775" height="2.001"/>
								</g>
								<g>
									<rect x="779.098" y="549.484" fill="#C7E2FF" width="56.775" height="2"/>
								</g>
								<g>
									<rect x="779.098" y="555.168" fill="#C7E2FF" width="56.775" height="2.001"/>
								</g>
							</g>
						</g>
					</g>
				</g>
			</g>
			<g>
				<g>
					<polygon fill="#FF7D12" points="587.948,645.086 593.749,700.537 596.229,700.277 590.435,644.826 					"/>
					<path fill="#2E53ED" d="M615.887,690.26l-0.635,4.917c0,0-6.077,2.487-10.366,3.645c-4.292,1.156-8.654,1.457-8.654,1.457
						l-5.796-55.451c0,0,4.955,0.949,14.078,13.378c3.599,4.897,7.369,7.188,7.369,7.188L615.887,690.26z"/>
					<path fill="#F2B18F" d="M655.662,692.344l-40.411,2.833c0,0-3.057-2.035-4.041-11.453c-0.984-9.415,0.67-18.332,0.67-18.332
						l40.373-2.604"/>
				</g>
				<path fill="#091E89" d="M894.639,700.98c-27.504,0.988-71.698,1.225-115.813,1.133c-71.343-0.145-142.478-1.133-142.478-1.133
					l-5.206-42.689c0,0,67.195-6.866,131.748-15.827c63.515-8.817,125.117,4.182,125.117,4.182"/>
				
					<line fill="none" stroke="#2058BC" stroke-width="0.5" stroke-miterlimit="10" x1="634.419" y1="685.141" x2="852.489" y2="685.335"/>
				<g>
					
						<rect x="608.835" y="675.935" transform="matrix(0.5875 0.8092 -0.8092 0.5875 810.6776 -235.8982)" fill="#FF7D12" width="55.758" height="2.498"/>
					<path fill="#2E53ED" d="M666.112,680.566l1.908,4.573c0,0-4.018,5.192-7.155,8.343c-3.136,3.146-6.764,5.587-6.764,5.587
						l-32.756-45.117c0,0,4.77-1.657,18.888,4.541c5.563,2.442,9.972,2.544,9.972,2.544L666.112,680.566z"/>
					<path fill="#F2B18F" d="M693.257,673.828l-25.236,11.313c0,0-3.664-0.231-9.226-7.896c-5.563-7.663-8.59-16.207-8.59-16.207
						l40.254-18.573"/>
				</g>
				<path fill="#103BB2" d="M933.276,617.793c0,0,23.63,83.188-35.586,83.188c-59.215,0-98.038-40.692-106.381-41.692
					c-8.342-0.997-97.985,33.861-97.985,33.861l-26.31-40.674c0,0,71.701-36.973,99.729-42.691
					c28.021-5.72,103.33,12.71,103.33,12.71"/>
				<path fill="#202263" d="M906.394,700.98"/>
				<path fill="none" stroke="#4873D3" stroke-width="0.5" stroke-miterlimit="10" d="M906.326,623.997
					c0,0,7.36,41.859-7.388,53.569c-20.954,16.64-95.867-32.956-108.444-32.956s-105.195,36.349-105.195,36.349"/>
				<path fill="none" stroke="#4873D3" stroke-width="0.5" stroke-miterlimit="10" d="M881.81,623.023
					c-0.311,19.91,25.354,19.754,25.354,19.754"/>
				
					<line fill="none" stroke="#4873D3" stroke-width="0.5" stroke-miterlimit="10" x1="676.873" y1="649.2" x2="701.247" y2="689.919"/>
			</g>
			<g>
				<path fill="#F2B18F" d="M868.61,460.845c-3.174,10.453-3.133,20.089,5.728,22.781c8.861,2.689,21.798,1.857,26.366-13.039
					c3.2-10.447-1.438-21.111-10.302-23.804C881.542,444.094,871.784,450.39,868.61,460.845z"/>
				<path fill="#F2B18F" d="M878.601,493.868c0,0,5.86,2.639,12.734,1.743c8.12-1.055,9.712-4.157,9.712-4.157l-6.682-22.414
					l-17.792,5.301L878.601,493.868z"/>
				<path fill="#F2B18F" d="M870.57,460.785c0,0-5.452,6.063-5.386,7.293c0.064,1.228,3.273,2.211,3.273,2.211"/>
				<g>
					<g>
						<path fill="#22252D" d="M869.562,454.834v-0.008V454.834z"/>
					</g>
				</g>
				<g>
					<path fill="#22252D" d="M888.724,468.946c-6.188-2.652-10.275-9.537-9.642-16.24c-3.133,2.289-5.728,2.943-9.521,2.124
						c4.145-8.062,12.982-13.672,22.177-12.023c5.2,0.934,9.614,3.6,12.573,7.979c4.576,6.769,4.646,10.524,6.813,18.21
						c0.775,2.747,2.83,8.896,6.028,10.875c-4.192,3.272-17.948,9.039-35.364,5.373c5.16-4.729,7.92-11.947,7.232-18.913"/>
				</g>
				<path fill="#F2B18F" d="M886.083,466.291c0,0,2.271-2.608,4.77-0.364c3.229,2.9-1.279,8.752-3.938,9.647
					c-2.66,0.895-3.341-2.068-3.341-2.068"/>
			</g>
			<g>
				<g>
					<g>
						<g>
							<path fill="#F2B18F" d="M787.594,560.802c-3.471-1.662-19.271-8.934-19.668-7.975c-0.375,0.925,4.498,4.18,4.036,4.528
								c-0.659,0.493-4.798-1.175-7.03-2.319c-1.991-1.024-5.356-2.344-5.917-1.535c-1.06,1.538,9.938,7.021,9.938,7.021
								c-0.318,0.465-10.727-8.106-11.744-6.909c-1.474,1.722,10.201,9.872,10.322,10.565c0,0-8.16-9.88-9.25-8.604
								c-1.089,1.275,5.979,10.275,8.877,12.059c-2.104-1.908-6.819-10.037-7.614-9.106c-0.795,0.93,3.85,7.313,4.766,8.082
								c7.536,6.299,15.997,9.738,15.997,9.738"/>
						</g>
					</g>
				</g>
				<path fill="#FF7D12" d="M881.36,555.412c0,0-8.376,45.971-34.676,50.236c-32.131,5.209-77.708-22.498-77.708-22.498
					l12.794-25.584c30.06,8.324,48.066,8.575,52.82,4.228c4.755-4.347,9.895-32.294,22.874-50.84
					c12.982-18.543,20.979-18.04,20.979-18.04s2.688,2.657,10.619,2.408c7.918-0.246,11.982-3.868,11.982-3.868
					s12.621,2.944,25.602,26.588c12.982,23.644,9.313,104.981,9.313,104.981s-46.775,9.484-93.675-7.104
					c0,0-1.662-76.567,9.608-93.475"/>
				<path fill="none" stroke="#BA4A13" stroke-width="0.5" stroke-miterlimit="10" d="M842.285,606.132
					c34.288-5.648,41.287-64.887,41.287-64.887"/>
			</g>
		</g>
		<g>
			<g>
				<path fill="#FFD9C0" d="M290.917,532.813l30.181,25.494l-94.467,106.429c0,0-7.165,1.79-16.597-6.177
					c-9.431-7.969-10.08-16.355-10.08-16.355L290.917,532.813z"/>
				<path fill="#FFC088" d="M312.187,534.393c0,0,14.824,13.156,10.869,21.842c-3.954,8.685-14.756,3.674-22.087-1.885
					c-7.332-5.563-17.855-18.771-7.463-22.76c9.13-3.509,20.854,10.021,21.458,14.644c0.604,4.625-3.953,8.688-12.636,0.722
					c-8.681-7.969,0.772-9.845,4.943-5.507"/>
				<path fill="#FFAF5F" d="M298.961,540.672c0,0-0.837,5.444,6.69,9.377c7.525,3.937,17.078-2.838,0.917-14.975
					c-16.294-12.237-22.741,2.448-13.126,12.31L298.961,540.672z"/>
				<path fill="#F78D37" d="M301.443,547.008l5.329-6.309c0,0-5.344-3.314-7.436-1.157
					C296.754,542.207,301.443,547.008,301.443,547.008z"/>
				<path fill="#FFD19F" d="M299.135,539.742l-6.128,7.198c5.794,7.324,14.029,11.314,14.029,11.314l6.947-8.224
					c0,0-3.76,3.533-10.043-1.213C297.655,544.069,299.135,539.742,299.135,539.742z"/>
			</g>
			<g>
				<path fill="#FFEAD7" d="M68.37,574.923l37.181-27.302l79.173,112.973c0,0,0.245,8.854-11.375,17.387
					c-11.619,8.53-21.488,6.746-21.488,6.746L68.37,574.923z"/>
				<path fill="#FFC088" d="M75.618,550.729c0,0,18.995-13.219,28.034-6.008c9.039,7.212,0.49,18.229-7.81,25.054
					c-8.301,6.821-26.26,15.036-28.229,1.774c-1.729-11.649,16.907-21.162,22.41-20.465s9.039,7.212-2.388,14.875
					c-11.427,7.663-11.188-3.871-5.11-7.398"/>
				<path fill="#FFAF5F" d="M79.511,567.968c0,0,6.084,2.613,12.553-4.925c6.469-7.542,1.069-20.668-17.09-5.591
					c-18.308,15.2-2.961,27.117,10.895,18.946L79.511,567.968z"/>
				<path fill="#F78D37" d="M87.471,567.003l-5.939-8.091c0,0-5.196,5.198-3.233,8.279
					C80.723,570.992,87.471,567.003,87.471,567.003z"/>
				<path fill="#FFD19F" d="M78.48,567.486l6.763,9.281c9.952-4.506,16.663-12.853,16.663-12.853l-7.74-10.545
					c0,0,3.13,5.431-3.964,11.282C83.108,570.509,78.48,567.486,78.48,567.486z"/>
			</g>
			<g>
				<path fill="#B8DAFF" d="M139.909,557.606l4.344,18.725l-6.789,7.185l-10.135-3.257l-4.342-18.725
					c-4.53,4.165-6.759,10.571-5.27,16.994c2.204,9.501,11.692,15.416,21.193,13.213s15.416-11.693,13.212-21.192
					C150.634,564.126,145.81,559.354,139.909,557.606z"/>
				
					<rect x="137.903" y="587.691" transform="matrix(-0.9741 0.2261 -0.2261 -0.9741 430.6573 1200.1722)" fill="#B8DAFF" width="17.374" height="74.121"/>
				<path fill="#6486F2" d="M153.723,655.593c-9.501,2.206-15.416,11.693-13.212,21.195c2.204,9.501,11.693,15.415,21.193,13.212
					c9.501-2.205,15.417-11.693,13.213-21.194C172.712,659.305,163.225,653.39,153.723,655.593z M167.513,675.782l-7.483,6.993
					l-9.8-2.984l-2.315-9.979l7.485-6.992l9.8,2.983L167.513,675.782z"/>
			</g>
			<g>
				<path fill="#6486F2" d="M146.944,694.342l5.72-19.98l10.188-3.23l7.872,8.398l-5.72,19.98c6.468-1.56,11.938-6.447,13.9-13.302
					c2.902-10.14-2.964-20.711-13.103-23.611c-10.138-2.902-20.711,2.963-23.613,13.103
					C140.227,682.551,142.281,689.595,146.944,694.342z"/>
				
					<rect x="166.509" y="587.256" transform="matrix(0.9614 0.2753 -0.2753 0.9614 179.5041 -24.1847)" fill="#A1C7FF" width="18.786" height="80.147"/>
				<path fill="#A1C7FF" d="M185.306,594.455c10.139,2.903,20.711-2.963,23.613-13.102c2.903-10.141-2.964-20.712-13.102-23.611
					c-10.139-2.903-20.711,2.962-23.613,13.102C169.303,580.982,175.168,591.555,185.306,594.455z M182.864,568.135l10.746-2.687
					l7.698,7.966l-3.049,10.65l-10.746,2.684l-7.698-7.966L182.864,568.135z"/>
			</g>
			<g>
				<path fill="#FFEAD7" d="M233.814,519.415l40.936,21.263l-75.265,138.28c0,0-8.304,5.05-21.097-1.597
					c-12.794-6.646-15.084-17.197-15.084-17.197L233.814,519.415z"/>
				<path fill="#FFC088" d="M259.709,513.304c0,0,20.22,11.259,17.025,23.954c-3.195,12.699-17.105,10.385-26.935,6.033
					c-9.83-4.35-24.881-17.324-13.088-26.444c10.359-8.009,26.916,4.914,28.478,10.638c1.561,5.723-3.195,12.695-15.084,5.766
					s-0.846-12.967,4.958-8.982"/>
				<path fill="#FFAF5F" d="M244.917,526.451c0,0-0.024,7.33,9.746,9.515c9.77,2.183,20.051-10.196-1.598-19.633
					c-21.823-9.515-26.939,11.861-13.583,20.876L244.917,526.451z"/>
				<path fill="#F78D37" d="M249.048,533.66l5.279-10.166c0,0-7.032-2.22-9.162,1.358
					C242.536,529.275,249.048,533.66,249.048,533.66z"/>
				<path fill="#FFD19F" d="M244.959,525.191l-6.081,11.611c8.297,7.212,18.931,9.193,18.931,9.193l6.883-13.245
					c0,0-3.891,5.99-12.313,2.281C243.958,531.327,244.959,525.191,244.959,525.191z"/>
			</g>
			<g>
				<rect x="84.675" y="616.438" fill="#FFAC06" width="143.539" height="85.694"/>
				<rect x="226.786" y="616.438" fill="#FF8F08" width="78.553" height="85.694"/>
				<polygon fill="#FFD8BD" points="196.064,657.779 53.202,657.779 83.919,616.438 226.782,616.438 				"/>
				<polygon fill="#FFC69F" points="244.312,657.785 323.257,657.779 305.339,616.438 226.393,616.439 				"/>
			</g>
		</g>
		<g>
			<g>
				<g>
					<g>
						<line fill="none" stroke="#254BB7" stroke-miterlimit="10" x1="362.518" y1="702.132" x2="397.131" y2="398.787"/>
						<line fill="none" stroke="#254BB7" stroke-miterlimit="10" x1="265.336" y1="702.132" x2="299.947" y2="398.787"/>
						<line fill="none" stroke="#254BB7" stroke-miterlimit="10" x1="270.679" y1="659.158" x2="367.421" y2="659.158"/>
						<line fill="none" stroke="#254BB7" stroke-miterlimit="10" x1="275.098" y1="622.013" x2="371.66" y2="622.013"/>
						<line fill="none" stroke="#254BB7" stroke-miterlimit="10" x1="278.833" y1="583.846" x2="375.193" y2="583.846"/>
						<line fill="none" stroke="#254BB7" stroke-miterlimit="10" x1="282.983" y1="547.47" x2="379.137" y2="547.47"/>
						<line fill="none" stroke="#254BB7" stroke-miterlimit="10" x1="287.319" y1="509.471" x2="384.055" y2="509.471"/>
						<line fill="none" stroke="#254BB7" stroke-miterlimit="10" x1="291.615" y1="471.813" x2="387.781" y2="471.813"/>
						<line fill="none" stroke="#254BB7" stroke-miterlimit="10" x1="296.354" y1="436.247" x2="392.856" y2="436.247"/>
					</g>
					<line fill="none" stroke="#254BB7" stroke-miterlimit="10" x1="334.56" y1="702.132" x2="299.947" y2="398.787"/>
					<line fill="none" stroke="#254BB7" stroke-miterlimit="10" x1="431.743" y1="702.132" x2="397.131" y2="398.787"/>
					<line fill="none" stroke="#254BB7" stroke-miterlimit="10" x1="426.4" y1="659.158" x2="329.657" y2="659.158"/>
					<line fill="none" stroke="#254BB7" stroke-miterlimit="10" x1="421.979" y1="622.013" x2="325.418" y2="622.013"/>
					<line fill="none" stroke="#254BB7" stroke-miterlimit="10" x1="418.246" y1="583.846" x2="321.886" y2="583.846"/>
					<line fill="none" stroke="#254BB7" stroke-miterlimit="10" x1="414.096" y1="547.47" x2="317.942" y2="547.47"/>
					<line fill="none" stroke="#254BB7" stroke-miterlimit="10" x1="409.76" y1="509.471" x2="313.023" y2="509.471"/>
					<line fill="none" stroke="#254BB7" stroke-miterlimit="10" x1="405.463" y1="471.813" x2="309.297" y2="471.813"/>
					<line fill="none" stroke="#254BB7" stroke-miterlimit="10" x1="400.726" y1="436.247" x2="304.222" y2="436.247"/>
				</g>
				<rect x="285.279" y="391.775" fill="#254BB7" width="125.279" height="8.776"/>
			</g>
			<g>
				<polygon fill="#202263" points="481.863,239.544 447.426,304.848 356.473,304.848 356.473,296.685 445.388,296.685 
					477.197,236.474 				"/>
				<g>
					<path fill="#F2B18F" d="M363.345,170.547c0.468,10.988-1.992,20.372-11.307,20.768c-9.314,0.396-21.713-3.667-22.423-19.335
						c-0.498-10.987,6.705-20.218,16.02-20.614C354.948,150.97,362.879,159.558,363.345,170.547z"/>
					<path fill="#F2B18F" d="M345.311,200.228c0,0-6.156,0.373-12.632-2.225c-7.649-3.071-8.643-5.769-8.643-5.769l12.145-20.169
						l16.01,9.637L345.311,200.228z"/>
					<path fill="#F2B18F" d="M361.45,169.997c0,0,3.79,7.28,3.417,8.462c-0.372,1.18-3.747,1.333-3.747,1.333"/>
					<path fill="#212237" d="M339.543,171.481c1.438,2.791,5.523,4.691,7.124-0.307c1.602-4.999,0.966-6.409,3.492-6.932
						c3.177-0.657,2.283,1.651,13.152,2.362c6.493,0.424,9.488-4.502,8.758-8.034c-0.447-2.164-1.674-5.249-5.724-5.958
						c-5.789-1.015-3.936,0.207-7.658-0.985c-3.721-1.192-5.159-4.388-11.093-4.648c-5.935-0.261-9.227,4.386-9.227,4.386
						s-4.79-2.19-8.635,3.11c-3.606,4.974-1.408,7.048-3.611,12.085c-1.924,4.402-0.551,11.894,1.66,14.088
						c5.833,5.788,11.683,0.235,11.683,0.235s-5.97-10.018-1.604-9.719"/>
					<path fill="#F2B18F" d="M341.81,171.908c0,0-1.556-3.114-4.555-1.554c-3.878,2.017-0.952,8.854,1.415,10.395
						c2.369,1.541,3.776-1.177,3.776-1.177"/>
				</g>
				<g>
					<g>
						
							<rect x="412.944" y="526.925" transform="matrix(-0.9929 -0.119 0.119 -0.9929 815.657 1105.0496)" fill="#103BB2" width="55.754" height="2.495"/>
						<path fill="#22252D" d="M423.609,504.104l-4.925,0.561c0,0-2.578,6.042-3.801,10.313c-1.222,4.273-1.585,8.632-1.585,8.632
							l55.358,6.631c0,0-0.876-4.973-13.164-14.28c-4.844-3.668-7.08-7.472-7.08-7.472L423.609,504.104z"/>
						<path fill="#F2B18F" d="M411.562,466.488l7.123,38.176c0,0,1.988,3.09,11.389,4.214c9.4,1.128,18.339-0.392,18.339-0.392
							l-4.5-48.652"/>
					</g>
					<polyline fill="#141744" points="451.621,368.091 460.303,496.558 409.729,503.156 399.673,389.564 					"/>
					
						<line fill="none" stroke="#4D59A3" stroke-width="0.5" stroke-miterlimit="10" x1="409.306" y1="493.671" x2="457.849" y2="487.305"/>
					<g>
						
							<rect x="355.876" y="504.285" transform="matrix(-0.9078 -0.4195 0.4195 -0.9078 520.0557 1125.4128)" fill="#103BB2" width="55.755" height="2.496"/>
						<path fill="#22252D" d="M374.789,477.313l-4.857-0.989c0,0-4.315,4.952-6.795,8.64s-4.171,7.72-4.171,7.72l50.611,23.385
							c0,0,0.7-4.998-8.118-17.646c-3.475-4.983-4.426-9.29-4.426-9.29L374.789,477.313z"/>
						<path fill="#F2B18F" d="M377.366,462.645l-7.435,13.679c0,0,0.939,3.552,9.534,7.521c8.596,3.973,17.567,5.285,17.567,5.285
							l15.208-23.35"/>
					</g>
					<path fill="#202263" d="M284.331,308.367c0,0-15.598,83.408,25.063,83.408c31.776,0,68.667,0.52,83.274,0.746
						c3.182,0.049,5.382,3.185,4.359,6.197l-23.148,68.164l49.338,21.57c0,0,40.211-90.54,35.763-124.469
						c-4.452-33.927-117.359-38.375-117.359-38.375l-11.68-22.249"/>
					<path fill="none" stroke="#4D59A3" stroke-width="0.5" stroke-miterlimit="10" d="M304.827,318.701
						c0,0-8.375,45.75,12.895,52.521c21.278,6.774,71.723,7.582,86.806,11.004c5.806,1.316,9.393,7.128,7.986,12.913l-27.435,76.673
						"/>
					<path fill="none" stroke="#4D59A3" stroke-width="0.5" stroke-miterlimit="10" d="M336.096,324.572
						c-1.991,15.118-32.602,20.824-32.602,20.824"/>
					
						<line fill="none" stroke="#4D59A3" stroke-width="0.5" stroke-miterlimit="10" x1="376.68" y1="458.658" x2="426.56" y2="480.68"/>
				</g>
				<g>
					<g>
						<g>
							<g>
								<path fill="#F2B18F" d="M424.727,302.353c3.841-0.254,21.212-1.127,21.224-0.089c0.005,0.998-5.73,2.206-5.428,2.7
									c0.427,0.706,4.887,0.695,7.385,0.459c2.232-0.211,5.847-0.184,6.065,0.776c0.411,1.822-11.837,2.822-11.837,2.822
									c0.125,0.548,12.969-3.539,13.473-2.047c0.727,2.146-13.144,5.371-13.514,5.969c0,0,11.25-6.137,11.786-4.546
									c0.535,1.589-9.369,7.316-12.721,7.896c2.66-0.992,10.061-6.785,10.453-5.625c0.392,1.157-6.293,5.36-7.432,5.73
									c-9.336,3.046-18.47,3.092-18.47,3.092"/>
							</g>
						</g>
					</g>
					<path fill="#4A63FE" d="M348.69,229.651c0,36.908,5.306,49.869,18.231,57.757c13.236,8.074,42.807,10.634,60.815,12.167
						l-2.076,28.209c0,0-68.804-1.39-86.43-10.966c-17.624-9.58-20.305-62.452-20.305-62.452"/>
					<path fill="#4A63FE" d="M345.651,199.525c17.749,17.313,25.006,128.531,25.006,128.531
						c-42.529,2.301-102.157,2.784-102.157,2.784s5.215-81.457,20.923-106.742c14.022-22.573,34.92-32.545,34.92-32.545
						s3.987,5.213,10.501,6.746C341.357,199.832,345.651,199.525,345.651,199.525"/>
					<path fill="none" stroke="#1C38AD" stroke-width="0.5" stroke-miterlimit="10" d="M369.89,288.94
						c-20.206-7.828-19.634-50.931-19.634-50.931"/>
					<path fill="none" stroke="#1C38AD" stroke-width="0.5" stroke-miterlimit="10" d="M370.369,324.026
						c0,0-29.862-0.086-43.767-25.671c-13.906-25.584-15.987-54.405-15.987-54.405"/>
				</g>
			</g>
		</g>
	</g>
</g>
</svg>
