<?xml version="1.0" standalone="no"?><!DOCTYPE svg PUBLIC "-//W3C//DTD SVG 1.1//EN" "http://www.w3.org/Graphics/SVG/1.1/DTD/svg11.dtd"><svg t="1671506982929" class="icon" viewBox="0 0 1029 1024" version="1.1" xmlns="http://www.w3.org/2000/svg" p-id="6805" xmlns:xlink="http://www.w3.org/1999/xlink" width="48.234375" height="48"><path d="M1020.835581 368.09697L864.649723 121.793939C850.944672 100.331313 822.500228 93.99596 800.908309 107.442424L21.401238 600.565657c-21.462626 13.705051-27.79798 42.149495-14.351515 63.612121L163.364874 910.480808c13.705051 21.462626 42.149495 27.79798 63.612122 14.222222l779.50707-493.123232c21.462626-13.575758 27.927273-42.020202 14.351515-63.482828z m-31.159596 37.10707L210.168915 898.327273c-6.852525 4.39596-15.90303 2.327273-20.29899-4.525253L33.684066 647.49899c-4.39596-6.852525-2.327273-15.90303 4.525253-20.29899l779.50707-493.123232c6.852525-4.266667 15.90303-2.327273 20.169697 4.654545l156.185859 246.30303c4.39596 6.593939 2.456566 15.644444-4.39596 20.169697zM317.740632 248.888889l12.929293 31.030303 16.808081-29.090909 33.486868-2.715152-22.626262-24.953535 7.628283-32.711111-30.513132 13.834343-28.832323-17.454545 3.620202 33.486869-25.470707 21.721212 32.969697 6.852525zM516.205278 156.444444l-16.161616-29.60808-13.575757 30.90101-33.09899 6.335353 24.953535 22.367677-4.266667 33.357576 29.220202-16.808081 30.383839 14.480808-6.981818-32.969697 23.014141-24.436364-33.486869-3.620202z m302.545455 495.19192l-26.634344-20.428283-0.129292 33.616161-27.79798 18.876768 32.064646 10.60202 9.438384 32.19394 19.911111-27.151515 33.616162 0.90505-19.781818-27.280808 11.377777-31.547475-32.064646 10.214142zM710.015379 785.454545l-12.670707-31.159596-17.066666 28.961617-33.486869 2.456565 22.367677 25.082829-8.016162 32.581818 30.771717-13.446465 28.703031 17.842424-3.361617-33.486868 25.470708-21.721212-32.711112-7.111112z m-199.240404 91.022223l15.903031 29.737373 13.963636-30.642424 33.09899-5.947475-24.824243-22.755555 4.525253-33.357576-29.349495 16.549495-30.254545-14.610101 6.723232 32.840404-23.272727 24.436364 33.486868 3.749495zM212.366895 378.957576l26.50505 20.816161 0.387879-33.616161 27.927273-18.747475-31.935354-10.731313-9.179798-32.323232-20.169697 26.892929-33.616162-1.163637 19.523233 27.410101-11.636364 31.547475 32.19394-10.084848z m-118.303031 145.066666c-3.490909-142.222222 65.680808-282.892929 194.585859-364.347474S574.257804 75.894949 701.611339 139.765657l30.771717-19.39394c-37.624242-21.074747-78.222222-36.460606-120.888889-46.028283-57.018182-12.8-115.070707-14.480808-172.476767-5.042424-59.474747 9.826263-115.717172 31.288889-167.046465 63.870707-51.329293 32.581818-94.771717 74.084848-129.163636 123.604041-33.228283 47.709091-56.630303 100.977778-69.430303 157.866666-9.567677 42.666667-12.929293 85.850505-9.955556 128.905051l30.642424-19.523233zM931.106288 502.30303c3.620202 142.222222-65.551515 282.892929-194.327272 364.347475-128.905051 81.583838-285.608081 83.911111-412.832323 20.040404l-30.771718 19.523232c37.624242 20.945455 78.222222 36.460606 120.888889 46.028283 57.018182 12.8 115.070707 14.480808 172.476768 5.042424 59.474747-9.826263 115.717172-31.288889 166.917172-63.741414 51.329293-32.581818 94.771717-74.084848 129.163636-123.60404 33.09899-47.838384 56.50101-100.977778 69.30101-157.866667 9.567677-42.666667 12.929293-85.850505 9.955556-128.90505L931.106288 502.30303zM381.482046 306.424242c36.072727-22.755556 75.765657-34.909091 115.717172-37.365656l47.579798-30.125253c-62.836364-7.369697-125.80202 6.723232-180.105051 40.985859-54.173737 34.262626-93.866667 85.20404-114.036363 145.066667l47.579798-30.125253c19.264646-35.038384 47.191919-65.680808 83.264646-88.436364z m262.206061 413.608081c-36.072727 22.884848-75.765657 35.038384-115.587879 37.365657l-47.579798 30.125252c62.836364 7.369697 125.80202-6.723232 180.10505-41.115151 54.173737-34.262626 93.866667-85.20404 114.036364-145.066667l-47.579798 30.125253c-19.264646 35.038384-47.321212 65.680808-83.393939 88.565656z m0 0" p-id="6806"></path><path d="M297.570935 621.381818l-8.016162-12.670707-8.016161-12.670707-8.016162-12.670707-8.016162-12.670707L236.803258 589.187879l-28.832323 18.230303-28.832323 18.230303L150.176996 643.878788c-1.034343 0.646465-2.068687 1.422222-2.973738 2.068687s-1.810101 1.292929-2.585858 1.939394-1.422222 1.292929-2.068687 1.939394-1.163636 1.292929-1.551515 1.939394L138.540632 650.343434l-2.456566-1.422222-2.456565-1.422222-2.456566-1.422222c0.905051-0.387879 1.939394-0.775758 2.973737-1.163637s2.068687-0.905051 3.103031-1.551515 2.19798-1.163636 3.232323-1.810101 2.19798-1.292929 3.361616-2.068687l28.961616-18.359596 28.961616-18.359596L230.985076 584.40404l28.961617-18.359596V554.666667c0-0.775758 0.129293-1.551515 0.258585-2.19798s0.387879-1.292929 0.517172-1.810101 0.517172-1.034343 0.905051-1.422222 0.646465-0.775758 1.163636-1.034344c0.387879-0.258586 0.905051-0.517172 1.551515-0.646464 0.646465-0.258586 1.422222-0.387879 2.327273-0.517172s1.939394-0.258586 2.973737-0.387879c1.163636-0.129293 2.327273-0.129293 3.620202-0.129293l3.878788-0.129293 3.878788-0.129293 3.878788-0.129293 3.878788-0.129293c1.163636 0 2.19798 0 3.232323 0.129293 0.905051 0.129293 1.810101 0.258586 2.456566 0.517172s1.292929 0.517172 1.810101 0.775758c0.517172 0.387879 0.905051 0.646465 1.163636 1.163636 0.258586 0.387879 0.387879 1.034343 0.258586 1.680808-0.129293 0.646465-0.387879 1.551515-0.905051 2.456566s-1.163636 2.068687-2.068686 3.361616c-0.905051 1.292929-2.068687 2.585859-3.361617 4.137374l7.240404 11.50707 7.240404 11.507071 7.240404 11.507071 7.240405 11.50707c0.646465 1.034343 1.163636 1.939394 1.680808 2.715152l1.551515 2.327273c0.517172 0.775758 0.905051 1.292929 1.292929 1.939394s0.775758 1.034343 1.034343 1.551515l0.905051 1.292929 0.90505 1.292929 0.905051 1.29293 0.90505 1.292929c0.258586 0.387879 0.387879 0.775758 0.517172 1.163636s0.129293 0.775758 0.129293 1.29293-0.129293 0.905051-0.258586 1.422222c-0.129293 0.517172-0.258586 1.034343-0.517171 1.551515-0.258586 0.517172-0.646465 1.163636-1.034344 1.939394-0.387879 0.775758-1.034343 1.551515-1.551515 2.456566s-1.422222 1.810101-2.19798 2.973737-1.810101 2.19798-2.715151 3.490909c-1.034343 1.292929-1.939394 2.327273-2.844445 3.232323s-1.551515 1.810101-2.19798 2.456566-1.163636 1.292929-1.680808 1.680808-0.775758 0.775758-1.034343 0.905051c-0.258586 0.129293-0.517172 0.258586-0.775758 0.258585-0.258586 0-0.517172-0.129293-0.775757-0.258585s-0.517172-0.387879-0.905051-0.775758-0.646465-0.775758-0.90505-1.163636l-2.068687-3.232324-2.068687-3.232323-2.068687-3.232323-2.068687-3.232323-25.082828 15.773737-25.082828 14.99798L227.235581 676.20202l-25.082828 15.773738 10.731313 16.937373 10.731313 16.937374 10.731314 16.937374 10.731313 16.937374c0.646465 1.034343 1.292929 1.939394 2.068687 2.715151s1.422222 1.422222 2.068686 1.939394 1.422222 0.905051 2.19798 1.163636 1.551515 0.387879 2.327273 0.387879c0.775758 0 1.939394-0.258586 3.490909-0.775757 1.551515-0.517172 3.361616-1.292929 5.559596-2.327273s4.783838-2.327273 7.757576-3.878788 6.206061-3.361616 9.826262-5.430303 7.240404-4.137374 10.731313-6.206061l10.472728-6.20606c3.490909-2.068687 6.852525-4.137374 10.214141-6.206061 3.361616-2.068687 6.723232-4.137374 9.955556-6.206061 3.232323-2.068687 6.464646-4.137374 9.567676-6.076767 3.10303-2.068687 6.206061-4.008081 9.179798-5.947475s5.947475-3.878788 8.79192-5.818182 5.688889-3.878788 8.40404-5.688889c2.715152-1.939394 5.171717-3.620202 7.369697-5.171717 2.19798-1.551515 4.137374-2.973737 5.688889-4.137374s2.973737-2.19798 4.008081-3.10303c1.034343-0.905051 1.810101-1.551515 2.327272-2.068687 0.517172-0.517172 0.905051-1.034343 1.29293-1.680808 0.387879-0.517172 0.775758-1.163636 1.034343-1.810101l0.775758-1.939394c0.258586-0.646465 0.387879-1.422222 0.517171-2.068687s0.258586-1.551515 0.258586-2.327272v-2.585859c0-0.905051-0.129293-1.939394-0.387878-2.973737-0.129293-1.034343-0.387879-2.068687-0.646465-3.232324-0.258586-1.163636-0.517172-2.327273-0.905051-3.620202-0.387879-1.292929-0.775758-2.585859-1.292929-4.00808s-1.034343-2.844444-1.551515-4.39596c-0.646465-1.551515-1.292929-3.10303-1.939394-4.783838-0.646465-1.680808-1.422222-3.490909-2.327273-5.430303s-1.810101-4.008081-2.715151-6.335354-2.068687-4.654545-3.232323-7.111111c-1.163636-2.456566-2.327273-5.171717-3.749495-7.886869l1.680808-1.034343 1.680808-1.034344 1.680808-1.034343 1.680808-1.034343c1.939394 3.361616 3.878788 6.464646 5.688889 9.438383 1.810101 2.973737 3.620202 5.688889 5.430303 8.145455s3.490909 4.783838 5.171717 6.852525c1.680808 2.068687 3.232323 3.878788 4.783838 5.559596 1.551515 1.680808 3.10303 2.973737 4.654546 4.137374 1.551515 1.163636 3.10303 2.068687 4.654545 2.844444s3.10303 1.163636 4.654546 1.422223 3.10303 0.258586 4.654545 0.129292c0.905051-0.129293 1.680808-0.258586 2.456566-0.387878h1.939394c0.517172 0 1.034343 0.258586 1.422222 0.517171 0.387879 0.258586 0.646465 0.517172 0.905051 0.905051 0.258586 0.387879 0.387879 0.905051 0.517171 1.551515 0.129293 0.775758 0.129293 1.680808 0.129293 2.715152s-0.129293 2.456566-0.129293 3.878787c-0.129293 1.422222-0.258586 3.10303-0.517171 5.042425-0.258586 1.810101-0.517172 3.620202-1.034344 5.30101-0.387879 1.680808-1.034343 3.232323-1.680808 4.783838s-1.422222 2.973737-2.327273 4.266667-1.810101 2.585859-2.844444 3.878788c-1.034343 1.163636-2.456566 2.585859-4.266667 4.137373s-4.008081 3.232323-6.464646 5.171718-5.430303 4.008081-8.662627 6.20606c-3.232323 2.327273-6.852525 4.654545-10.860606 7.369697-4.008081 2.585859-8.274747 5.430303-12.670707 8.274748-4.525253 2.844444-9.179798 5.947475-14.222222 9.179798s-10.214141 6.464646-15.644444 9.955555-11.119192 7.111111-17.066667 10.860606c-5.947475 3.749495-11.377778 7.111111-16.420202 10.214142-5.042424 3.10303-9.567677 5.818182-13.705051 8.274747s-7.757576 4.525253-10.989899 6.206061c-3.232323 1.680808-5.947475 3.10303-8.274747 4.266666-2.327273 1.034343-4.525253 2.068687-6.723232 2.844445-2.19798 0.775758-4.266667 1.551515-6.206061 2.068687s-3.878788 1.034343-5.688889 1.292929c-1.810101 0.387879-3.620202 0.517172-5.30101 0.646465-1.680808 0.129293-3.361616-0.129293-4.913131-0.646465-1.551515-0.517172-3.232323-1.292929-4.783839-2.456566s-3.10303-2.585859-4.654545-4.266666c-1.551515-1.680808-2.973737-3.749495-4.39596-6.076768L211.979016 757.656566l-13.187879-20.816162-13.187879-20.816162-13.187879-20.816161c-1.551515-2.327273-2.973737-4.654545-4.395959-6.723233-1.422222-2.19798-2.715152-4.137374-4.008081-6.076767s-2.585859-3.749495-3.749495-5.430303c-1.163636-1.680808-2.327273-3.232323-3.361616-4.654546 3.10303-1.292929 6.076768-2.456566 8.791919-3.620202 2.715152-1.034343 5.30101-2.068687 7.628283-2.973737s4.39596-1.680808 6.335353-2.456566 3.620202-1.292929 5.171718-1.810101c1.551515-0.517172 2.844444-0.905051 4.137373-1.292929s2.19798-0.517172 3.103031-0.646465 1.551515-0.129293 2.068687-0.129293c0.517172 0 0.775758 0.258586 1.034343 0.387879 0.258586 0.258586 0.258586 0.775758 0.129293 1.422222s-0.517172 1.422222-0.905051 2.456566-1.163636 2.068687-1.939394 3.361616-1.810101 2.715152-2.973737 4.39596l2.068687 3.232323 2.068687 3.232323 2.068687 3.232324 2.068687 3.232323L222.581036 668.70303 247.534571 652.929293l25.082829-15.773737 24.953535-15.773738zM461.126491 440.242424c-0.517172-0.129293-0.905051-0.258586-1.422223-0.517171s-0.905051-0.387879-1.292929-0.646465-0.905051-0.517172-1.292929-0.905051c-0.387879-0.258586-0.905051-0.646465-1.29293-1.034343-1.422222-1.292929-3.232323-2.585859-5.171717-3.749495-2.068687-1.163636-4.266667-2.327273-6.852525-3.361616s-5.430303-2.068687-8.533333-2.973738c-3.10303-0.905051-6.464646-1.810101-10.214142-2.585858l0.129293-1.163636 0.129293-1.163637 0.129293-1.163636 0.129293-1.163637c3.361616-1.422222 6.723232-2.715152 9.69697-3.878787 3.10303-1.163636 5.947475-2.068687 8.662626-2.973738s5.30101-1.551515 7.628283-2.068687c2.327273-0.517172 4.525253-0.905051 6.593939-1.163636 2.068687-0.258586 3.878788-0.258586 5.559596-0.129293 1.680808 0.129293 3.232323 0.387879 4.654546 0.905051s2.585859 1.163636 3.749494 2.068686c1.034343 0.905051 2.068687 1.939394 2.844445 3.103031 0.258586 0.517172 0.517172 0.905051 0.775758 1.422222s0.387879 1.163636 0.517171 1.680808 0.258586 1.292929 0.258586 1.939394 0.129293 1.422222 0 2.19798c0 0.775758-0.129293 1.551515-0.129293 2.327272l-0.387879 2.327273c-0.129293 0.775758-0.387879 1.551515-0.646464 2.327273-0.258586 0.775758-0.646465 1.551515-0.905051 2.327273l14.99798-9.438384 14.99798-9.438384 14.99798-9.438384 14.997979-9.438384 0.517172-4.525252 0.517172-4.525253 0.517172-4.525252 0.517171-4.525253c0.129293-0.387879 0.129293-0.775758 0.258586-1.163636s0.258586-0.646465 0.387879-1.034344 0.387879-0.517172 0.517172-0.775757c0.258586-0.258586 0.387879-0.387879 0.646464-0.517172 0.517172-0.387879 1.292929-0.646465 2.456566-0.775757 1.034343-0.258586 2.456566-0.387879 4.008081-0.517172s3.490909-0.129293 5.688889-0.129293c2.19798 0 4.654545 0.129293 7.369697 0.258586s5.171717 0.258586 7.240404 0.517171c2.068687 0.129293 3.878788 0.387879 5.30101 0.646465s2.585859 0.517172 3.490909 0.775758c0.905051 0.258586 1.422222 0.646465 1.551515 0.90505 0.129293 0.258586 0.129293 0.517172 0 0.905051s-0.387879 0.775758-0.905051 1.163636-1.034343 0.905051-1.680808 1.422222-1.551515 1.163636-2.585858 1.810101L520.213359 411.151515l-50.036363 31.547475-50.036364 31.547475-50.036364 31.547474c-1.034343 0.646465-2.068687 1.422222-2.973737 2.068687-0.905051 0.646465-1.810101 1.292929-2.585859 1.939394s-1.422222 1.292929-2.068687 1.939394-1.163636 1.292929-1.551515 1.939394l-2.456565-1.422222-2.456566-1.422222-2.456566-1.422223-2.456565-1.422222c0.905051-0.387879 1.939394-0.775758 2.973737-1.163636 1.034343-0.517172 2.068687-0.905051 3.10303-1.551515s2.19798-1.163636 3.232324-1.810101c1.163636-0.646465 2.19798-1.292929 3.361616-2.068687l24.177778-15.256566 24.177777-15.256566 24.177778-15.256565 24.824243-15.385859z m92.832323 29.478788l-5.688889-9.050505-5.688889-9.050505-5.688889-9.050505-5.688889-9.050505c-0.775758-1.292929-1.680808-2.585859-2.327273-3.620202-0.775758-1.163636-1.422222-2.068687-2.068686-2.973737s-1.163636-1.680808-1.680808-2.327273-1.034343-1.292929-1.422223-1.680808c5.171717-1.939394 9.69697-3.620202 13.705051-5.042425 3.878788-1.422222 7.240404-2.456566 9.955555-3.361616s4.783838-1.292929 6.206061-1.551515 2.327273-0.258586 2.456566 0.129293c0.258586 0.258586 0.258586 0.775758 0.129293 1.292929s-0.258586 1.163636-0.646465 1.939394-0.905051 1.551515-1.422222 2.456566-1.422222 1.939394-2.327273 3.10303l5.559596 8.791919 5.559596 8.79192 5.559596 8.791919 5.559596 8.791919 1.680808 2.327273 1.680808 2.327273 1.680808 2.327272 1.680808 2.327273c0.258586 0.517172 0.387879 1.034343 0.387879 1.551515s-0.258586 1.292929-0.646465 2.068687-0.905051 1.680808-1.680808 2.585859c-0.775758 0.905051-1.551515 2.068687-2.715151 3.10303-1.034343 1.163636-2.068687 2.19798-2.973738 3.10303-0.905051 0.905051-1.810101 1.810101-2.585858 2.456566s-1.551515 1.422222-2.19798 1.939394-1.292929 1.034343-1.810101 1.292929c-0.258586 0.258586-0.646465 0.387879-0.905051 0.387879h-0.90505c-0.387879 0-0.517172-0.258586-0.775758-0.387879-0.258586-0.258586-0.517172-0.517172-0.646464-0.775758l-1.422223-2.197979-1.422222-2.19798-1.422222-2.19798-1.422222-2.19798-14.739394 9.309091-14.739394 9.309091-14.739394 9.309091-14.739394 9.309091c4.266667-1.034343 8.016162-1.810101 11.248485-2.585859 3.232323-0.646465 5.947475-1.163636 8.274747-1.422222s4.008081-0.387879 5.30101-0.387879c1.292929 0 2.068687 0.258586 2.327273 0.775758 0.129293 0.129293 0.129293 0.387879 0.129293 0.646465s-0.129293 0.517172-0.258586 0.775757-0.387879 0.517172-0.775757 0.905051-0.775758 0.646465-1.163637 1.034343c-0.517172 0.387879-0.905051 0.775758-1.292929 1.034344-0.387879 0.387879-0.775758 0.646465-1.034343 1.034343s-0.517172 0.646465-0.775758 1.034343c-0.258586 0.258586-0.387879 0.646465-0.517172 0.905051-0.129293 0.258586-0.258586 0.646465-0.387879 1.034343-0.129293 0.387879-0.258586 0.905051-0.258585 1.422223s-0.258586 1.163636-0.258586 1.810101c-0.129293 0.646465-0.129293 1.292929-0.258586 2.068686-0.129293 0.775758-0.129293 1.422222-0.258586 2.068687s-0.129293 1.292929-0.258586 1.810101-0.129293 1.034343-0.258586 1.422223c-0.129293 0.387879-0.129293 0.775758-0.258586 1.034343l16.161617-10.214141 16.161616-10.214142 16.161616-10.214141 16.161616-10.214142 0.258586-2.585858 0.258586-2.585859 0.258586-2.585858 0.258586-2.585859 0.387878-1.163636c0.129293-0.387879 0.387879-0.646465 0.517172-1.034344s0.517172-0.646465 0.775758-0.90505 0.646465-0.517172 0.90505-0.775758c0.387879-0.258586 0.905051-0.387879 1.680808-0.646465s1.810101-0.387879 3.103031-0.517171 2.844444-0.258586 4.525252-0.387879c1.680808-0.129293 3.749495-0.258586 5.947475-0.387879 2.19798-0.129293 4.137374-0.129293 5.818182-0.129293 1.680808 0 3.10303 0 4.395959 0.129293s2.068687 0.258586 2.844445 0.387879c0.646465 0.129293 1.163636 0.387879 1.292929 0.646465 0.129293 0.258586 0.258586 0.646465 0.129293 1.163636s-0.258586 1.163636-0.517172 1.939394-0.646465 1.551515-1.163636 2.585858-1.163636 2.068687-1.939394 3.232324l6.852525 10.731313 6.852525 10.731313 6.852526 10.731313 6.852525 10.731313c0.775758 1.292929 1.551515 2.585859 2.19798 3.749495 0.646465 1.163636 1.163636 2.327273 1.551515 3.361616s0.775758 2.068687 0.90505 2.973738c0.258586 0.905051 0.387879 1.810101 0.387879 2.715151 0 0.775758-0.129293 1.810101-0.258586 2.844445-0.258586 1.034343-0.646465 2.19798-1.034343 3.490909s-1.163636 2.715152-1.810101 4.266666c-0.775758 1.551515-1.680808 3.10303-2.585859 4.913132-1.034343 1.810101-1.939394 3.361616-2.715151 4.654545-0.905051 1.422222-1.551515 2.585859-2.327273 3.490909s-1.292929 1.810101-1.810101 2.456566c-0.517172 0.646465-0.905051 1.034343-1.292929 1.292929s-0.775758 0.387879-1.163637 0.387879c-0.387879 0-0.905051 0-1.422222-0.129293s-1.034343-0.387879-1.551515-0.646465c-0.517172-0.258586-1.163636-0.646465-1.810101-1.163636-1.163636-0.775758-2.19798-1.551515-3.361616-2.068687-1.163636-0.646465-2.19798-1.163636-3.361616-1.551515s-2.19798-0.775758-3.232324-0.90505c-1.034343-0.258586-2.19798-0.387879-3.232323-0.387879s-2.327273 0-3.878788 0.258586c-1.551515 0.129293-3.232323 0.517172-5.042424 0.775757s-4.008081 0.905051-6.335354 1.422222c-2.327273 0.646465-4.783838 1.292929-7.498989 2.068687l-0.258586-1.034343-0.258586-1.034344-0.258586-1.034343-0.258586-1.034343c3.10303-1.422222 5.818182-2.844444 8.404041-4.008081s4.783838-2.327273 6.852525-3.361616 3.749495-1.939394 5.171717-2.715152 2.715152-1.551515 3.620202-2.068687c0.905051-0.646465 1.810101-1.163636 2.456566-1.680808s1.292929-1.034343 1.810101-1.551515 0.905051-1.034343 1.163636-1.422222 0.517172-0.905051 0.517172-1.29293c0.129293-0.387879 0.129293-0.905051 0-1.422222s-0.129293-1.034343-0.387879-1.551515-0.517172-1.163636-0.775758-1.810101c-0.387879-0.646465-0.775758-1.292929-1.163636-2.068687l-6.593939-10.343434-6.59394-10.343434-6.593939-10.343435-6.59394-10.343434-18.10101 11.377778-18.10101 11.377777-18.10101 11.377778-18.10101 11.377778c-0.517172 3.361616-1.034343 6.723232-1.551515 9.955555-0.517172 3.361616-1.034343 6.723232-1.680808 10.084849s-1.163636 6.723232-1.810101 10.084848l-1.939394 10.084849 12.929293-9.050505 12.929293-9.050505 12.929293-9.050505 12.929293-9.050505c-0.905051-0.517172-2.068687-0.905051-3.49091-1.551515-1.422222-0.517172-3.10303-1.163636-4.913131-1.810101s-4.008081-1.292929-6.464646-2.068687c-2.456566-0.775758-5.042424-1.551515-7.886869-2.456566l0.258586-1.163636 0.258586-1.163637 0.258586-1.163636 0.258585-1.163636c3.490909-0.517172 6.723232-0.905051 9.69697-1.29293s5.688889-0.646465 8.274748-0.90505 4.783838-0.517172 6.852525-0.646465c2.068687-0.129293 3.749495-0.258586 5.30101-0.258586h4.266667c1.292929 0 2.585859 0.129293 3.620202 0.258586s2.068687 0.258586 2.973737 0.517172c0.905051 0.258586 1.680808 0.517172 2.327273 0.775757 0.646465 0.258586 1.292929 0.646465 1.939394 1.163637s1.292929 0.905051 1.939394 1.551515 1.163636 1.292929 1.810101 1.939394c0.517172 0.775758 1.163636 1.551515 1.680808 2.456566s1.034343 1.810101 1.422222 2.715151c0.387879 0.905051 0.775758 1.810101 1.034343 2.715152s0.517172 1.810101 0.646465 2.844444c0.129293 0.905051 0.258586 1.939394 0.258586 2.844444 0 0.905051 0 1.810101-0.129293 2.715152s-0.258586 1.551515-0.517172 2.19798-0.646465 1.292929-1.034343 1.680808c-0.387879 0.517172-0.905051 0.905051-1.422222 1.292929-0.517172 0.387879-1.034343 0.646465-1.551516 0.905051-0.517172 0.258586-1.034343 0.387879-1.551515 0.517171s-1.034343 0.129293-1.551515 0.129293c-0.517172 0-0.905051 0-1.422222-0.129293-0.517172-0.129293-1.034343-0.258586-1.551515-0.517171-0.517172-0.258586-1.163636-0.517172-1.939394-0.905051s-1.422222-0.775758-2.19798-1.292929-1.680808-1.034343-2.585859-1.551515c-0.905051-0.646465-1.680808-1.163636-2.456565-1.680808-0.775758-0.517172-1.422222-0.905051-2.068687-1.29293s-1.163636-0.646465-1.551515-1.034343c-0.387879-0.258586-0.775758-0.517172-1.034344-0.646465-3.878788 3.232323-7.628283 6.335354-11.119192 9.309091-3.490909 2.973737-6.852525 5.818182-9.955555 8.404041s-6.076768 5.171717-8.791919 7.628282-5.30101 4.654545-7.757576 6.723233c-2.327273 2.068687-4.525253 4.137374-6.593939 5.947474-2.068687 1.810101-3.878788 3.620202-5.559596 5.171718s-3.10303 3.10303-4.39596 4.395959-2.456566 2.585859-3.361616 3.620202c-0.905051 1.034343-1.810101 2.068687-2.456566 2.844445-0.775758 0.775758-1.422222 1.551515-1.939394 2.19798s-1.034343 1.034343-1.422222 1.422222-0.646465 0.646465-0.775758 0.646464c-0.129293 0.129293-0.387879 0.258586-0.517171 0.258586-0.129293 0.129293-0.387879 0.129293-0.646465 0.129293h-0.646465c-0.258586 0-0.387879-0.129293-0.646464-0.129293-0.258586-0.129293-0.517172-0.258586-0.905051-0.387879-0.387879-0.258586-0.775758-0.517172-1.292929-0.775757s-1.034343-0.775758-1.680808-1.163636c-0.646465-0.517172-1.292929-1.034343-2.068687-1.551516-0.775758-0.646465-1.422222-1.163636-2.19798-1.810101s-1.551515-1.292929-2.19798-1.810101-1.551515-1.292929-2.327272-1.939394-1.551515-1.292929-2.327273-2.068686c1.034343-1.034343 2.068687-1.939394 2.844444-2.844445 0.905051-0.905051 1.551515-1.810101 2.327273-2.585859s1.163636-1.551515 1.680808-2.327272c0.517172-0.775758 0.775758-1.422222 1.034344-2.068687 0.258586-0.646465 0.517172-1.422222 0.775757-2.19798 0.258586-0.905051 0.387879-1.810101 0.646465-2.844444s0.387879-2.19798 0.517172-3.361617 0.258586-2.585859 0.387878-4.00808c0.129293-1.422222 0.129293-2.973737 0.258586-4.525253 0-1.551515 0.129293-3.232323 0-4.913131s0-3.490909-0.129293-5.30101-0.129293-3.749495-0.258586-5.688889l-10.731313 6.723232-10.731313 6.723233-10.731313 6.723232-10.731313 6.723232 9.438384 14.868687 9.438384 14.868687 9.438383 14.868687 9.438384 14.868687c0.258586 0.258586 0.387879 0.646465 0.517172 0.90505l0.387879 0.775758c0.129293 0.258586 0.129293 0.517172 0.258586 0.775757v0.646465c0 0.258586-0.129293 0.517172-0.258586 0.775758-0.129293 0.258586-0.387879 0.646465-0.646465 1.163636s-0.646465 0.905051-0.90505 1.422222c-0.387879 0.517172-0.775758 1.163636-1.29293 1.810101l-1.551515 1.939394c-0.517172 0.646465-1.163636 1.292929-1.680808 1.939394s-1.163636 1.292929-1.939394 1.939394c-0.646465 0.646465-1.292929 1.292929-2.068687 1.939394-0.646465 0.646465-1.292929 1.163636-1.939394 1.680808s-1.163636 1.034343-1.680808 1.422222-0.905051 0.775758-1.292929 1.034344c-0.387879 0.258586-0.775758 0.517172-1.034343 0.646464l-0.775758 0.387879c-0.258586 0.129293-0.387879 0.129293-0.646465 0.129293s-0.387879 0-0.517171-0.129293c-0.129293-0.129293-0.258586-0.129293-0.387879-0.387879-0.129293-0.129293-0.258586-0.517172-0.517172-0.90505-0.258586-0.517172-0.646465-1.163636-1.034343-1.939394s-0.905051-1.680808-1.551516-2.844445c-0.646465-1.163636-1.292929-2.327273-2.068686-3.749495-0.775758-1.422222-1.551515-2.844444-2.456566-4.395959s-1.680808-3.10303-2.715152-4.654546-1.939394-3.232323-2.973737-4.913131c-1.034343-1.680808-2.068687-3.361616-3.232323-5.171717l-5.688889-9.050505-5.688889-9.050505-5.688889-9.050505-5.688889-9.050505c-1.034343-1.680808-2.19798-3.361616-3.232323-4.913132l-3.10303-4.654545c-1.034343-1.551515-1.939394-2.973737-2.973738-4.266667-0.905051-1.422222-1.939394-2.715152-2.844444-4.008081 2.715152-0.646465 5.30101-1.163636 7.757576-1.680808 2.456566-0.517172 4.783838-0.905051 6.981818-1.163636s4.266667-0.517172 6.20606-0.646465c1.939394-0.129293 3.749495-0.258586 5.430304-0.258586l11.765656-7.369696 11.765657-7.369697 11.765656-7.369697 11.765657-7.369697c-0.129293-2.068687-0.387879-4.137374-0.517172-6.206061-0.258586-2.068687-0.387879-4.266667-0.646465-6.464646s-0.517172-4.525253-0.775757-6.723233c-0.258586-2.327273-0.646465-4.654545-0.905051-6.981818l-10.343434 6.464646-10.343434 6.464647-10.343435 6.464646-10.343434 6.464647v6.20606c0 0.258586-0.129293 0.517172-0.258586 0.775758-0.129293 0.258586-0.129293 0.387879-0.258586 0.646465s-0.258586 0.387879-0.387879 0.517171c-0.129293 0.129293-0.258586 0.258586-0.517171 0.387879-0.129293 0.129293-0.517172 0.258586-1.034344 0.387879-0.517172 0.129293-1.163636 0.258586-1.939394 0.517172s-1.810101 0.387879-2.973737 0.646464-2.456566 0.387879-3.878788 0.646465-2.973737 0.517172-4.395959 0.646465c-1.422222 0.258586-2.844444 0.387879-4.266667 0.517171s-2.715152 0.258586-4.137374 0.387879c-1.292929 0.129293-2.715152 0.258586-4.008081 0.258586 0.517172-1.034343 0.905051-2.068687 1.29293-2.973737s0.646465-1.680808 0.90505-2.456566 0.387879-1.422222 0.517172-2.068687 0.129293-1.163636 0.129293-1.551515c0-0.387879-0.129293-0.905051-0.258586-1.422222-0.129293-0.517172-0.387879-1.163636-0.646465-1.810101s-0.646465-1.292929-1.034343-2.068687c-0.387879-0.775758-0.905051-1.551515-1.422222-2.327273l-3.361617-5.30101-3.361616-5.30101-3.361616-5.30101-3.361616-5.30101c-1.163636-1.939394-2.327273-3.620202-3.361616-5.171717s-2.068687-2.973737-2.973738-4.266667-1.680808-2.456566-2.456565-3.361616-1.422222-1.810101-2.068687-2.456566c3.361616-1.292929 6.335354-2.456566 9.050505-3.490909 2.715152-1.034343 5.171717-1.939394 7.240404-2.715152s3.878788-1.422222 5.430303-1.939393 2.715152-0.905051 3.620202-1.163637c0.905051-0.258586 1.680808-0.387879 2.456566-0.517172 0.775758-0.129293 1.292929-0.258586 1.810101-0.258585s0.905051 0 1.292929 0.129293c0.387879 0.129293 0.517172 0.258586 0.646465 0.517171 0.258586 0.258586 0.258586 0.775758 0.129293 1.29293s-0.387879 1.163636-0.775758 1.939393-1.034343 1.551515-1.810101 2.585859-1.680808 1.939394-2.715152 3.10303l5.688889 8.921212 5.688889 8.921213 5.688889 8.921212 5.688889 8.921212 26.117172-16.549495 26.117171-16.549495 26.117172-16.549495 26.375758-16.678788z m-74.084849-3.620202c0.646465-2.068687 1.292929-4.266667 1.939394-6.723232 0.646465-2.456566 1.292929-5.042424 2.068687-7.886869s1.422222-5.818182 2.068687-8.921212c0.646465-3.10303 1.422222-6.464646 2.068687-9.955556 2.844444-0.129293 5.30101-0.258586 7.628283-0.258585 2.327273-0.129293 4.39596-0.129293 6.20606-0.129293H509.999218c0.905051 0 1.680808 0.129293 2.327273 0.129293 0.646465 0.129293 1.292929 0.129293 1.810101 0.258585s0.905051 0.258586 1.163636 0.387879c0.258586 0.129293 0.517172 0.387879 0.646465 0.517172 0.129293 0.258586 0.129293 0.387879 0.129292 0.646465s-0.258586 0.517172-0.387878 0.775757-0.517172 0.646465-1.034344 0.905051c-0.387879 0.387879-0.905051 0.646465-1.551515 1.034343-0.646465 0.387879-1.163636 0.775758-1.680808 1.163636s-1.034343 0.775758-1.422222 1.163637l-1.163637 1.163636c-0.387879 0.387879-0.646465 0.775758-0.90505 1.163637-0.258586 0.387879-0.517172 0.775758-0.775758 1.292929s-0.517172 1.163636-0.90505 1.810101-0.646465 1.422222-1.034344 2.19798c-0.387879 0.775758-0.775758 1.680808-1.034343 2.585858-0.387879 0.905051-0.775758 1.939394-1.292929 2.973738-0.387879 1.034343-0.905051 2.068687-1.422223 3.10303s-1.034343 2.19798-1.551515 3.361616c-0.517172 1.163636-1.163636 2.327273-1.810101 3.620202 2.715152-0.387879 5.171717-0.646465 7.49899-0.775757 2.327273-0.258586 4.39596-0.387879 6.335354-0.387879s3.620202-0.129293 5.171717 0c1.551515 0 2.844444 0.129293 4.008081 0.387879 1.163636 0.129293 2.19798 0.387879 3.10303 0.775757l2.715152 1.163636c0.905051 0.387879 1.551515 1.034343 2.197979 1.680809s1.163636 1.292929 1.680808 2.068686c0.517172 0.775758 0.905051 1.551515 1.29293 2.19798s0.646465 1.422222 0.90505 2.19798 0.387879 1.422222 0.517172 2.068687c0.129293 0.646465 0.258586 1.292929 0.258586 1.939394s0 1.292929-0.129293 1.810101l-0.387879 1.551515c-0.129293 0.517172-0.387879 0.775758-0.646465 1.163636-0.258586 0.387879-0.646465 0.646465-1.034343 0.905051-0.387879 0.258586-0.775758 0.517172-1.163636 0.646464-0.387879 0.258586-0.646465 0.387879-1.034344 0.517172s-0.646465 0.258586-0.90505 0.387879-0.646465 0.129293-0.905051 0.258586c-0.258586 0-0.775758 0.129293-1.680808 0s-1.939394-0.129293-3.232323-0.258586-2.973737-0.258586-4.913131-0.387879c-1.939394-0.129293-4.008081-0.387879-6.464647-0.646464s-4.783838-0.517172-6.852525-0.646465c-2.19798-0.258586-4.137374-0.387879-5.947475-0.517172s-3.490909-0.258586-5.171717-0.387879-2.973737-0.129293-4.266667-0.129293c-2.327273 4.137374-4.913131 8.274747-7.49899 12.541415s-5.430303 8.274747-8.274747 12.412121-5.947475 8.145455-9.179798 12.282828-6.464646 8.145455-9.955556 12.153535l-1.163636-0.646464-1.163636-0.646465-1.163637-0.646464-1.163636-0.646465c2.973737-4.913131 5.818182-9.69697 8.274747-14.092929s4.783838-8.533333 6.852526-12.412122 3.878788-7.49899 5.559596-10.860606c1.551515-3.361616 2.973737-6.464646 4.137373-9.309091-1.680808 0-3.878788 0.129293-6.593939 0.387879-2.715152 0.258586-5.818182 0.517172-9.438384 0.905051s-7.757576 0.775758-12.412121 1.422222c-4.654545 0.517172-9.69697 1.163636-15.256566 1.939394v-5.171717c4.913131-1.551515 9.567677-2.973737 14.092929-4.266667s8.791919-2.585859 12.8-3.620202 8.016162-2.068687 11.636364-2.973737c4.008081-1.163636 7.49899-1.939394 10.731313-2.715152zM617.700228 343.660606l-2.715152 1.680808-2.715151 1.680808-2.715152 1.680808-2.715151 1.680808c-0.646465 0.387879-1.163636 0.775758-1.680808 1.163637s-1.163636 0.775758-1.680808 1.292929-1.034343 0.905051-1.551515 1.292929c-0.517172 0.387879-0.905051 0.905051-1.422223 1.422223l-2.19798-1.422223-2.197979-1.422222-2.19798-1.422222-2.19798-1.422222c0.646465-0.129293 1.292929-0.387879 1.939394-0.646465s1.292929-0.517172 1.939394-0.90505 1.422222-0.646465 2.068687-1.163637c0.775758-0.387879 1.422222-0.905051 2.19798-1.292929l17.971717-11.377778 17.971717-11.377778 17.971717-11.377777 17.971717-11.377778 0.517172-4.266667 0.517172-4.266667 0.517171-4.266666 0.517172-4.266667c0-0.517172 0.129293-0.905051 0.258586-1.292929s0.258586-0.775758 0.387879-1.034344 0.258586-0.517172 0.517172-0.775757c0.129293-0.258586 0.387879-0.387879 0.646464-0.517172 0.517172-0.387879 1.292929-0.646465 2.327273-0.775758 1.034343-0.129293 2.327273-0.258586 3.878788-0.387878s3.361616 0 5.30101 0c2.068687 0.129293 4.266667 0.258586 6.852525 0.517171s4.783838 0.517172 6.723232 0.775758c1.939394 0.258586 3.620202 0.517172 5.042425 0.775758s2.456566 0.517172 3.232323 0.90505c0.775758 0.258586 1.292929 0.646465 1.551515 0.905051 0.258586 0.387879 0.258586 0.646465 0.258586 1.034343 0 0.387879-0.129293 0.646465-0.387879 1.034343s-0.517172 0.775758-1.034343 1.163637c-0.387879 0.387879-0.905051 0.775758-1.551515 1.163636l-5.688889 3.620202-5.688889 3.620202-5.688889 3.620202-5.688889 3.620202 15.90303 25.212121 15.903031 25.212122 15.90303 25.212121 15.90303 25.212121 4.266667-4.137374 4.266667-4.137373 4.266666-4.137374 4.266667-4.137374 0.90505 0.905051 0.905051 0.90505 0.90505 0.905051 0.905051 0.90505-3.878788 5.30101-3.878788 5.30101-3.878788 5.30101-3.878788 5.301011 4.654546 7.369697 4.654545 7.369697 4.654546 7.369696 4.654545 7.369697c0.905051 1.422222 1.680808 2.715152 2.585859 4.008081 0.775758 1.292929 1.551515 2.456566 2.327273 3.620202s1.551515 2.19798 2.197979 3.232324 1.422222 1.939394 2.068687 2.844444c0.646465 0.905051 1.163636 1.680808 1.680808 2.456566 0.517172 0.775758 0.905051 1.292929 1.29293 1.939394s0.775758 1.034343 1.034343 1.422222c0.258586 0.387879 0.517172 0.646465 0.646465 0.90505 0.129293 0.258586 0.258586 0.387879 0.258586 0.646465s0.129293 0.517172 0.129292 0.775758 0 0.517172-0.129292 0.775757c-0.129293 0.258586-0.258586 0.517172-0.387879 0.905051-0.129293 0.258586-0.387879 0.646465-0.775758 1.163636s-0.905051 1.163636-1.551515 1.939394-1.292929 1.680808-2.19798 2.585858c-0.905051 1.034343-1.810101 2.068687-2.844444 3.361617-1.034343 1.163636-2.068687 2.327273-2.973738 3.232323-0.905051 0.905051-1.680808 1.810101-2.327272 2.456566s-1.163636 1.292929-1.680808 1.680808c-0.387879 0.387879-0.775758 0.646465-1.034344 0.90505s-0.517172 0.258586-0.775757 0.258586-0.517172 0-0.775758-0.129293-0.517172-0.258586-0.775758-0.517172c-0.258586-0.258586-0.517172-0.517172-0.775757-0.90505l-7.369697-11.765657-7.369697-11.765656-7.369697-11.765657-7.369697-11.765656c-5.171717 6.335354-9.826263 12.282828-14.092929 17.713131s-7.886869 10.343434-10.989899 14.739394-5.818182 8.40404-8.016162 11.765656c-2.19798 3.490909-3.749495 6.464646-4.913131 8.921212-0.129293 0.387879-0.387879 0.775758-0.517172 1.163637s-0.387879 0.646465-0.517172 0.90505-0.387879 0.517172-0.517171 0.646465l-0.517172 0.517172c-0.129293 0.129293-0.387879 0.258586-0.517172 0.258586-0.129293 0.129293-0.387879 0.129293-0.646464 0.129293h-0.646465c-0.258586 0-0.387879 0-0.646465-0.129293-0.258586 0-0.646465-0.258586-1.163636-0.517172s-1.292929-0.646465-2.19798-1.163636-1.939394-1.034343-3.10303-1.810102-2.585859-1.551515-4.137374-2.456565c-1.551515-0.905051-2.973737-1.810101-4.266667-2.585859-1.292929-0.775758-2.585859-1.551515-3.620202-2.19798s-2.068687-1.292929-2.973737-1.939393c-0.905051-0.517172-1.680808-1.034343-2.327273-1.551516 1.163636-0.905051 2.327273-2.068687 3.749495-3.10303s2.715152-2.327273 4.266667-3.749495 3.10303-2.715152 4.913131-4.266667 3.490909-3.10303 5.430303-4.783838l-17.971717-28.573737-18.488889-29.478788-17.971717-28.573738-18.10101-28.573737z m46.545454-29.349495l-6.852525 4.39596-6.852525 4.395959-6.852525 4.39596-6.852526 4.395959 5.171718 8.145455 5.171717 8.145455 5.171717 8.145454 5.171717 8.145455 6.852525-4.39596 6.852526-4.39596 6.852525-4.395959 6.852525-4.39596-5.171717-8.145454-5.171717-8.145455-5.171717-8.145454-5.171718-8.145455z m24.307071 38.529293l-6.852525 4.39596-6.852525 4.395959-6.852526 4.39596-6.852525 4.395959 4.783839 7.49899 4.783838 7.49899 4.783838 7.49899 4.783839 7.49899 6.852525-4.39596 6.852525-4.395959 6.852525-4.39596 6.852526-4.395959-4.783839-7.49899-4.783838-7.49899-4.783838-7.49899-4.783839-7.49899z m-4.913131 53.139394l5.688889 9.050505 5.688889 9.050505 5.688888 9.050505 5.688889 9.050505 5.947475-5.688889 5.947475-5.688889 5.947475-5.688888 5.947474-5.688889-4.913131-7.628283-4.913131-7.628283-4.913132-7.628283-4.913131-7.628283-6.852525 4.39596-6.852525 4.39596-6.852526 4.395959-6.335353 3.878788z m52.363636-140.412121l8.921212-5.559596 8.921212-5.559596 8.921213-5.559596 8.921212-5.559596 0.258586-2.456566 0.258585-2.456565 0.258586-2.456566 0.258586-2.456566c0-0.517172 0.129293-1.034343 0.258586-1.422222 0.129293-0.387879 0.258586-0.905051 0.517172-1.292929s0.387879-0.646465 0.646464-1.034344c0.258586-0.258586 0.517172-0.517172 0.905051-0.775757 0.387879-0.258586 0.905051-0.387879 1.810101-0.646465 0.775758-0.258586 1.939394-0.387879 3.232323-0.517172s2.973737-0.387879 4.783838-0.517171c1.810101-0.129293 3.878788-0.387879 6.206061-0.517172 2.327273-0.129293 4.39596-0.258586 6.206061-0.258586h4.525252c1.163636 0 2.19798 0.258586 2.973738 0.387879 0.775758 0.129293 1.163636 0.387879 1.422222 0.775757 0.129293 0.258586 0.258586 0.775758 0.129293 1.422223-0.129293 0.646465-0.387879 1.422222-0.775758 2.456565s-0.905051 2.068687-1.680808 3.361617c-0.646465 1.292929-1.551515 2.844444-2.456566 4.395959l9.438384 14.99798 9.438384 14.99798 9.438384 14.99798 9.438384 14.997979c0.517172 0.775758 0.905051 1.422222 1.422222 2.068687s0.905051 1.292929 1.292929 1.939394 0.905051 1.292929 1.29293 1.810101c0.387879 0.646465 0.775758 1.163636 1.163636 1.680808l1.034343 1.422222 1.034344 1.422223 1.034343 1.422222 1.034344 1.422222c0.258586 0.258586 0.387879 0.646465 0.387878 1.034344s0.129293 0.646465 0.129293 1.034343 0 0.775758-0.129293 1.163636-0.258586 0.775758-0.387878 1.29293c-0.258586 0.387879-0.517172 0.905051-0.905051 1.551515-0.387879 0.646465-0.775758 1.292929-1.422222 1.939394s-1.163636 1.551515-1.939394 2.456565-1.551515 1.810101-2.456566 2.844445c-0.905051 1.034343-1.810101 1.939394-2.585858 2.844444-0.775758 0.905051-1.551515 1.680808-2.327273 2.327273s-1.422222 1.292929-2.068687 1.810101c-0.646465 0.517172-1.292929 0.905051-1.810101 1.292929-0.258586 0.129293-0.387879 0.258586-0.646464 0.258586s-0.387879 0-0.646465-0.129293-0.387879-0.258586-0.646465-0.517171-0.387879-0.517172-0.646464-0.905051l-2.068687-3.232323-2.068687-3.232323-2.068687-3.232324-2.068687-3.232323-10.214141 6.464647-10.214142 6.464646-10.214141 6.464646-10.214142 6.464647 1.810101 2.715151 1.810101 2.715152 1.810101 2.715151 1.810101 2.715152c0.258586 0.387879 0.517172 0.775758 0.646465 1.163636s0.258586 0.646465 0.387879 1.034344 0.129293 0.646465 0.129293 0.775757c0 0.258586 0 0.517172-0.129293 0.646465-0.129293 0.258586-0.258586 0.517172-0.646465 0.905051s-0.775758 1.034343-1.422222 1.680808-1.292929 1.422222-2.068687 2.327272c-0.775758 0.905051-1.810101 1.939394-2.844444 2.973738-1.034343 1.163636-2.068687 2.19798-3.103031 3.10303-0.905051 0.905051-1.810101 1.810101-2.585858 2.456566s-1.551515 1.292929-2.19798 1.939394c-0.646465 0.517172-1.292929 0.905051-1.810101 1.292929-0.129293 0.129293-0.258586 0.129293-0.387879 0.129293-0.129293 0-0.258586-0.129293-0.387879-0.258586s-0.387879-0.258586-0.517171-0.517172c-0.129293-0.258586-0.387879-0.517172-0.517172-0.775757l-1.163636-1.939394-1.163637-1.939394-1.163636-1.939394-1.163636-1.939394c-0.387879-0.646465-0.646465-1.292929-1.034344-1.939394l-1.163636-1.939394-1.163637-1.939394c-0.387879-0.646465-0.905051-1.422222-1.292929-2.068687l-10.989899-17.325252-10.989899-17.325253-10.989899-17.325252-10.989899-17.325253c-0.905051-1.551515-1.939394-3.10303-2.973737-4.654545l-3.103031-4.654546c-1.034343-1.551515-2.19798-3.10303-3.361616-4.783838-1.163636-1.551515-2.327273-3.232323-3.490909-4.783839 3.232323-0.775758 6.335354-1.551515 9.179798-2.197979 2.844444-0.646465 5.688889-1.292929 8.145455-1.680808s4.913131-0.905051 7.111111-1.163637c2.844444-0.646465 4.783838-0.905051 6.723232-1.034343z m81.842424 46.80404l-9.955555-15.90303L797.934571 280.565657l-9.955555-15.903031-9.955556-15.90303-10.214141 6.464646-10.214142 6.464647-10.214141 6.464646-10.214141 6.464647 9.955555 15.90303 9.955556 15.90303 9.955555 15.903031 9.955556 15.90303 10.214141-6.464646 10.214142-6.464647 10.214141-6.464646 10.214141-6.464647z m-25.341414 53.785859c0.517172-0.129293 1.292929-0.387879 2.327273-0.517172s2.19798-0.387879 3.620202-0.646465 3.10303-0.517172 4.913131-0.775757 3.878788-0.517172 6.206061-0.905051c2.327273-0.258586 4.266667-0.517172 6.076768-0.646464 1.810101-0.129293 3.232323-0.258586 4.525252-0.258586s2.19798 0 2.844445 0.129293 1.163636 0.387879 1.292929 0.646464c0.129293 0.129293 0.129293 0.387879 0.129293 0.775758s-0.258586 0.775758-0.387879 1.163636-0.517172 1.034343-0.90505 1.680808c-0.387879 0.646465-0.905051 1.292929-1.422223 2.068687l-1.551515 2.327273c-0.517172 0.775758-0.905051 1.551515-1.163636 2.456566s-0.646465 1.680808-0.905051 2.456565c-0.258586 0.905051-0.387879 1.680808-0.517171 2.585859-0.905051 4.913131-1.680808 9.567677-2.456566 13.963636s-1.551515 8.40404-2.327273 12.024243-1.422222 7.111111-2.19798 10.084848c-0.646465 3.10303-1.422222 5.818182-2.068686 8.145455-0.646465 2.456566-1.422222 5.171717-2.327273 8.145454s-2.068687 6.335354-3.232323 9.955556-2.585859 7.628283-4.137374 11.894949c-1.551515 4.266667-3.232323 8.791919-4.913131 13.705051l-1.29293-0.258586-1.292929-0.258586-1.292929-0.258586-1.29293-0.258586c1.422222-9.179798 2.585859-18.230303 3.490909-26.892929s1.551515-17.325253 1.810101-25.6 0.387879-16.420202 0.129293-24.307071c-0.387879-7.369697-0.905051-15.127273-1.680808-22.626262z m28.315152-21.333334c6.852525 0.258586 13.187879 0.646465 19.00606 1.034344 5.818182 0.387879 11.248485 0.905051 16.032324 1.422222s9.179798 1.163636 13.058585 1.810101c3.878788 0.646465 7.111111 1.422222 9.955556 2.19798 2.844444 0.775758 5.430303 1.680808 7.757576 2.585858 2.327273 0.905051 4.39596 1.939394 6.335353 3.103031s3.490909 2.327273 4.913132 3.490909c1.422222 1.292929 2.585859 2.585859 3.490909 4.008081 0.905051 1.422222 1.680808 2.844444 2.327272 4.266666 0.646465 1.422222 1.163636 2.715152 1.551516 4.137374s0.646465 2.715152 0.90505 4.008081 0.258586 2.585859 0.129293 3.878788-0.258586 2.456566-0.387879 3.490909c-0.258586 1.034343-0.517172 1.939394-0.90505 2.844444s-0.775758 1.551515-1.29293 2.19798-1.034343 1.163636-1.680808 1.551515c-0.646465 0.387879-1.292929 0.775758-1.810101 1.034344-0.517172 0.258586-1.163636 0.517172-1.680808 0.646464s-1.034343 0.258586-1.422222 0.258586c-0.387879 0-0.905051 0-1.163636-0.129293-0.387879-0.129293-0.905051-0.387879-1.810101-0.90505s-1.810101-1.292929-3.103031-2.19798-2.715152-2.068687-4.395959-3.361616c-1.680808-1.292929-3.620202-2.844444-5.688889-4.654546-2.068687-1.680808-4.266667-3.361616-6.335354-5.042424-2.068687-1.551515-4.266667-3.10303-6.335353-4.525252s-4.137374-2.844444-6.335354-4.137374c-2.068687-1.292929-4.137374-2.585859-6.335353-3.749495-2.068687-1.163636-4.39596-2.327273-6.981818-3.490909-2.585859-1.163636-5.30101-2.327273-8.274748-3.490909s-6.206061-2.327273-9.567677-3.361616c-3.361616-1.163636-7.111111-2.327273-10.860606-3.361617l0.258586-1.292929 0.258586-1.292929 0.258586-1.292929 0.129293-1.680809z" p-id="6807"></path></svg>