<?xml version="1.0" standalone="no"?><!DOCTYPE svg PUBLIC "-//W3C//DTD SVG 1.1//EN" "http://www.w3.org/Graphics/SVG/1.1/DTD/svg11.dtd"><svg t="1671506877401" class="icon" viewBox="0 0 1024 1024" version="1.1" xmlns="http://www.w3.org/2000/svg" p-id="3556" xmlns:xlink="http://www.w3.org/1999/xlink" width="48" height="48"><path d="M945.459136 473.527865a81.432686 81.432686 0 0 0-78.867877-76.944271h-4.167815a140.102693 140.102693 0 0 0-15.709455 5.770821c-1.923607-41.357545-21.800877-80.791484-61.234816-80.791485h-3.847213a176.33062 176.33062 0 0 0-32.060113 13.785849v-23.724483c0-45.204759-23.403882-76.944271-64.120225-76.944271h-6.412023a77.906074 77.906074 0 0 0-70.532248 76.944271 50.013776 50.013776 0 0 0-23.403882-3.847214h-8.65623a55.784596 55.784596 0 0 0-64.120226 64.120225v340.478397a256.480902 256.480902 0 0 0-75.020664-25.64809 329.257358 329.257358 0 0 0-88.806512 13.785849 81.753287 81.753287 0 0 0-57.067 70.852849c0 51.29618 82.715091 71.17345 106.439574 75.020664 114.454602 15.709455 179.536631 177.613024 179.536631 177.613024h281.167188s82.715091-161.903569 88.806513-226.985598c-1.923607-1.923607-1.923607-323.486537-1.923607-323.486537z m-39.433939 320.601127a574.196619 574.196619 0 0 1-78.867877 192.360676h-221.214778c-23.724483-41.357545-106.439574-169.597996-224.420789-185.628052-17.953663-1.923607-55.463995-21.480276-55.463995-29.495304s32.060113-35.586725 39.75454-37.510332c0 0 39.433939-1.923607 72.776456-1.923607a253.595492 253.595492 0 0 1 73.738259 35.586725l37.510332 39.433939V372.859111a29.815905 29.815905 0 0 1 27.571697-29.495304h3.847213a29.815905 29.815905 0 0 1 27.892299 29.495304v238.84784h39.433938V302.006262a32.060113 32.060113 0 0 1 27.571697-29.815905h3.847214a28.5335 28.5335 0 0 1 25.64809 29.815905v309.700689h39.433938v-209.352536a29.815905 29.815905 0 0 1 27.571697-29.495304h4.167815a32.060113 32.060113 0 0 1 29.495304 29.495304v209.352536h39.433938v-140.102693a35.907326 35.907326 0 0 1 29.495304-25.64809h4.167815a32.060113 32.060113 0 0 1 27.571697 25.64809zM542.78412 73.097057h4.167815V0H304.256882v70.852849h238.527238M679.039599 59.311209a58.028804 58.028804 0 0 1 49.372574 58.990607v78.867877h40.395742V118.301816c0-55.143394-27.571697-96.180338-88.806512-96.180338h-50.334377v37.189731h49.372573M116.705222 674.865373V106.439574a50.334377 50.334377 0 0 1 53.219787-47.128365h59.311209V23.724483H169.925009a85.921102 85.921102 0 0 0-92.653725 96.180339v543.098309c0 58.990607 32.060113 88.806512 96.180338 88.806512h73.417658v-35.586725h-64.120226c-27.571697-1.923607-64.120225-13.785848-64.120225-41.357545M571.317621 202.940513V116.69881h-123.110833V160.300564h64.120225v36.227927c0 10.900438-3.847214 15.709455-14.747652 14.747652h-49.372573V256.480902h73.417658c34.304321 0 50.654978-17.633062 49.693175-53.540389zM436.023945 315.471509h64.120225a83.356293 83.356293 0 0 1 64.120226-32.060113h10.259236v-11.862241h-138.499687z" p-id="3557"></path><path d="M431.214928 360.996869H369.018309v-32.060113h58.670007V286.296807H369.018309v-32.060113h19.556669c34.945523 2.244208 51.29618-15.068253 49.051973-52.257984V116.69881h-128.240451l3.206011-9.618034h-64.120225a148.758923 148.758923 0 0 1-43.922355 102.592361v42.319349a195.887289 195.887289 0 0 0 27.892298-11.541641V480.901691h58.670006V178.574828a224.420789 224.420789 0 0 0 16.030057-48.731372 48.41077 48.41077 0 0 1 3.526612-9.938634V480.901691H369.018309v-75.661866h62.196619zM369.018309 160.300564h21.480276v37.830933c0 10.900438-3.847214 15.709455-14.747652 14.747651H369.018309z" p-id="3558"></path><path d="M480.2669 367.729493a83.035692 83.035692 0 0 1 8.33563-35.586725l-2.244208-5.129618h-56.7464a288.541014 288.541014 0 0 0 35.586725 79.82968 176.010019 176.010019 0 0 1-47.128365 32.060113V480.901691a487.313713 487.313713 0 0 0 62.196618-27.892298z" p-id="3559"></path><path d="M200.702718 619.721979m23.403882 0l105.15717 0q23.403882 0 23.403882 23.403882l0 9.938635q0 23.403882-23.403882 23.403882l-105.15717 0q-23.403882 0-23.403882-23.403882l0-9.938635q0-23.403882 23.403882-23.403882Z" p-id="3560"></path><path d="M200.702718 540.854101m23.403882 0l222.497182 0q23.403882 0 23.403882 23.403883l0 9.938635q0 23.403882-23.403882 23.403882l-222.497182 0q-23.403882 0-23.403882-23.403882l0-9.938635q0-23.403882 23.403882-23.403883Z" p-id="3561"></path></svg>