<?xml version="1.0" encoding="utf-8"?>
<!-- Generator: Adobe Illustrator 16.0.0, SVG Export Plug-In . SVG Version: 6.00 Build 0)  -->
<!DOCTYPE svg PUBLIC "-//W3C//DTD SVG 1.1//EN" "http://www.w3.org/Graphics/SVG/1.1/DTD/svg11.dtd">
<svg version="1.1" id="Layer_1" xmlns="http://www.w3.org/2000/svg" xmlns:xlink="http://www.w3.org/1999/xlink" x="0px" y="0px"
	 width="767.271px" height="590.206px" viewBox="0 0 767.271 590.206" enable-background="new 0 0 767.271 590.206"
	 xml:space="preserve">
<g>
	
		<linearGradient id="SVGID_1_" gradientUnits="userSpaceOnUse" x1="980.7285" y1="546.8364" x2="1035.178" y2="428.4417" gradientTransform="matrix(1 0 0 1 -930.1328 0)">
		<stop  offset="0.0054" style="stop-color:#C3CCED"/>
		<stop  offset="1" style="stop-color:#FFFFFF"/>
	</linearGradient>
	<path fill-rule="evenodd" clip-rule="evenodd" fill="url(#SVGID_1_)" d="M159.921,430.423l-16.137-9.269
		c-4.333-2.489-9.65-2.546-14.038-0.151L11.81,485.392c-9.853,5.379-10.004,19.476-0.268,25.065l16.673,9.572
		c4.351,2.499,9.689,2.546,14.084,0.124l117.402-64.694C169.51,450.054,169.634,436,159.921,430.423z"/>
	
		<linearGradient id="SVGID_2_" gradientUnits="userSpaceOnUse" x1="1580.8682" y1="478.0972" x2="1635.3179" y2="359.702" gradientTransform="matrix(1 0 0 1 -930.1328 0)">
		<stop  offset="0.0054" style="stop-color:#C3CCED"/>
		<stop  offset="1" style="stop-color:#FFFFFF"/>
	</linearGradient>
	<path fill-rule="evenodd" clip-rule="evenodd" fill="url(#SVGID_2_)" d="M760.061,361.683l-16.137-9.269
		c-4.333-2.489-9.65-2.546-14.036-0.152l-117.938,64.39c-9.853,5.379-10.005,19.476-0.269,25.065l16.672,9.572
		c4.353,2.499,9.69,2.546,14.086,0.124l117.4-64.694C769.649,381.314,769.773,367.26,760.061,361.683z"/>
	<g>
		
			<linearGradient id="SVGID_3_" gradientUnits="userSpaceOnUse" x1="2390.7939" y1="582.4409" x2="2390.7939" y2="345.0239" gradientTransform="matrix(-1 0 0 1 2749.7129 0)">
			<stop  offset="0" style="stop-color:#130B75"/>
			<stop  offset="1" style="stop-color:#3F36A8"/>
		</linearGradient>
		<path fill="url(#SVGID_3_)" d="M134.493,463.75c0,17.623,7.383,35.245,22.146,51.462c0.775,0.871,1.583,1.728,2.422,2.584
			c8.626,8.933,19.545,17.38,32.725,25.149c2.714,1.6,5.508,3.165,8.432,4.716c87.673,46.373,229.764,46.373,317.421,0
			c2.795-1.485,5.509-2.988,8.125-4.539c6.073-3.553,11.661-7.269,16.766-11.112c0.792-0.566,1.551-1.146,2.293-1.744
			c25.683-20.013,38.523-43.256,38.523-66.516c0-23.291-12.856-46.533-38.538-66.563c-0.808-0.63-1.648-1.275-2.487-1.89
			c-7.269-5.444-15.49-10.644-24.682-15.507c-87.657-46.355-229.748-46.355-317.421,0c-19.964,10.563-35.374,22.63-46.211,35.486
			c-0.582,0.662-1.131,1.324-1.647,2.004C140.438,432.091,134.493,447.906,134.493,463.75z"/>
		
			<linearGradient id="SVGID_4_" gradientUnits="userSpaceOnUse" x1="-36.9541" y1="1387.0073" x2="411.9004" y2="1387.0073" gradientTransform="matrix(1 0 0 -1 171.4512 1786.3037)">
			<stop  offset="0" style="stop-color:#CFD3F9"/>
			<stop  offset="1" style="stop-color:#B6BAE9"/>
		</linearGradient>
		<path fill="url(#SVGID_4_)" d="M583.352,463.748v-10.206c0-30.368-21.918-60.764-65.721-83.946
			c-87.641-46.334-229.739-46.334-317.414,0c-43.804,23.183-65.72,53.578-65.72,83.946v10.206c0-30.398,21.916-60.763,65.72-83.946
			c87.674-46.364,229.773-46.364,317.414,0C561.434,402.985,583.352,433.349,583.352,463.748z"/>
	</g>
	<g>
		<defs>
			<path id="SVGID_5_" d="M134.492,463.75c0,28.342,19.116,56.718,57.295,79.19c2.713,1.612,5.512,3.172,8.43,4.715
				c87.67,46.371,229.768,46.371,317.422,0c2.799-1.476,5.512-2.984,8.124-4.527c6.073-3.563,11.669-7.277,16.774-11.11
				c0.78-0.576,1.544-1.152,2.29-1.747c25.68-20.014,38.519-43.268,38.519-66.521c0-23.287,36.437-127.179-47.156-213.385
				c-69.028-71.184-252.018-78.923-365.937,30.879C106.411,342.778,134.492,433.338,134.492,463.75z"/>
		</defs>
		<clipPath id="SVGID_6_">
			<use xlink:href="#SVGID_5_"  overflow="visible"/>
		</clipPath>
		<g clip-path="url(#SVGID_6_)">
			<linearGradient id="SVGID_7_" gradientUnits="userSpaceOnUse" x1="532.6533" y1="511.4224" x2="190.5096" y2="511.4224">
				<stop  offset="0" style="stop-color:#B6BAE9"/>
				<stop  offset="0.2668" style="stop-color:#D5D7F2"/>
				<stop  offset="0.5339" style="stop-color:#ECEDF9"/>
				<stop  offset="0.7846" style="stop-color:#FAFAFE"/>
				<stop  offset="1" style="stop-color:#FFFFFF"/>
			</linearGradient>
			<path fill="url(#SVGID_7_)" d="M551.168,561.923v-0.02c0.499-2.266,0.712-4.541,0.63-6.812
				c-0.055-1.57-0.202-159.498-0.202-159.498l-381.803,2.377c0,0-0.074,155.544-0.13,157.121c-0.081,2.263,0.134,4.529,0.63,6.789
				l0.001,0.042h0.009c3.264,14.746,18.821,29.22,46.86,41.08c2.306,0.985,4.685,1.938,7.168,2.881
				c75.026,28.488,197.8,28.488,272.812,0c2.382-0.9,22.424-10.242,23.053-10.604c18.1-10.176,28.386-21.679,30.968-33.357H551.168z
				"/>
			<path fill="#F6F6FE" d="M169.865,395.594c-0.612,20.082,15.13,40.317,47.444,56.437c2.303,1.159,4.679,2.283,7.16,3.393
				c74.948,33.562,197.604,33.562,272.539,0c2.379-1.062,22.399-12.064,23.027-12.489c21.592-14.319,32.064-30.873,31.561-47.34
				c-0.5-16.405-11.874-32.701-33.951-46.658c-0.7-0.448-1.412-0.896-2.139-1.32c-6.216-3.785-13.237-7.388-21.06-10.765
				c-74.154-31.962-193.249-31.962-267.417,0C189.69,352.963,170.519,374.188,169.865,395.594z"/>
			<path fill="#FFFFFF" d="M360.744,494.709c-94.576,0-177.373-30.803-190.222-72.485c0.075,1.457,0.263,2.91,0.536,4.382
				c8.049,43.233,92.688,75.663,189.685,75.663c96.971,0,181.612-32.43,189.659-75.663c0.275-1.472,0.461-2.925,0.536-4.382
				C538.09,463.907,455.293,494.709,360.744,494.709z"/>
			<linearGradient id="SVGID_8_" gradientUnits="userSpaceOnUse" x1="169.9092" y1="459.2026" x2="551.5508" y2="459.2026">
				<stop  offset="0.0108" style="stop-color:#D9DCFF"/>
				<stop  offset="0.5364" style="stop-color:#C4C8F2"/>
				<stop  offset="1" style="stop-color:#B6BAE9"/>
			</linearGradient>
			<path fill="url(#SVGID_8_)" d="M360.744,494.709c-94.576,0-177.92-33.831-190.835-75.777c0.078,1.467,0.266,2.929,0.542,4.41
				c8.099,43.505,93.009,76.13,190.292,76.13c97.259,0,182.17-32.625,190.268-76.13c0.275-1.481,0.464-2.943,0.54-4.41
				C538.637,460.878,455.293,494.709,360.744,494.709z"/>
			<path fill="#FFFFFF" d="M360.743,516.753c-94.53,0-177.154-29.369-189.795-69.042c0.068,1.386,0.248,2.766,0.515,4.167
				c7.839,41.158,92.312,72.088,189.28,72.088c96.942,0,181.415-30.93,189.255-72.088c0.267-1.401,0.446-2.781,0.515-4.167
				C537.873,487.384,455.248,516.753,360.743,516.753z"/>
			<linearGradient id="SVGID_9_" gradientUnits="userSpaceOnUse" x1="170.353" y1="482.9399" x2="551.1074" y2="482.9399">
				<stop  offset="0.0108" style="stop-color:#D9DCFF"/>
				<stop  offset="0.5364" style="stop-color:#C4C8F2"/>
				<stop  offset="1" style="stop-color:#B6BAE9"/>
			</linearGradient>
			<path fill="url(#SVGID_9_)" d="M360.743,516.753c-94.53,0-177.688-32.255-190.39-72.172c0.069,1.394,0.25,2.783,0.519,4.192
				c7.888,41.412,92.623,72.524,189.872,72.524c97.225,0,181.958-31.112,189.846-72.524c0.27-1.409,0.449-2.799,0.519-4.192
				C538.405,484.499,455.248,516.753,360.743,516.753z"/>
		</g>
		<g clip-path="url(#SVGID_6_)">
			
				<linearGradient id="SVGID_10_" gradientUnits="userSpaceOnUse" x1="2388.9834" y1="445.2954" x2="2388.9834" y2="354.9478" gradientTransform="matrix(-1 0 0 1 2749.7129 0)">
				<stop  offset="0" style="stop-color:#130B75"/>
				<stop  offset="1" style="stop-color:#3F36A8"/>
			</linearGradient>
			<path fill="url(#SVGID_10_)" d="M232.097,400.128c0,6.706,4.23,13.411,12.692,19.582c0.445,0.333,0.907,0.658,1.389,0.984
				c4.943,3.399,11.201,6.614,18.757,9.57c1.555,0.608,3.157,1.205,4.832,1.796c50.251,17.646,131.693,17.646,181.935,0
				c1.602-0.565,3.158-1.138,4.656-1.728c3.481-1.353,6.685-2.767,9.61-4.229c0.453-0.216,0.889-0.437,1.315-0.663
				c14.72-7.616,22.079-16.461,22.079-25.313c0-8.864-7.369-17.709-22.089-25.33c-0.464-0.24-0.945-0.485-1.426-0.72
				c-4.166-2.071-8.879-4.051-14.146-5.9c-50.242-17.641-131.684-17.641-181.935,0c-11.443,4.02-20.274,8.611-26.487,13.504
				c-0.334,0.252-0.647,0.504-0.944,0.763C235.502,388.082,232.097,394.098,232.097,400.128z"/>
			
				<linearGradient id="SVGID_11_" gradientUnits="userSpaceOnUse" x1="60.6465" y1="1412.8394" x2="317.9141" y2="1412.8394" gradientTransform="matrix(1 0 0 -1 171.4512 1786.3037)">
				<stop  offset="0" style="stop-color:#CFD3F9"/>
				<stop  offset="1" style="stop-color:#B6BAE9"/>
			</linearGradient>
			<path fill="url(#SVGID_11_)" d="M489.365,400.126v-3.883c0-11.557-12.562-27.395-37.668-36.217
				c-50.232-17.632-131.679-17.632-181.931,0c-25.106,8.822-37.668,24.66-37.668,36.217v3.883c0-11.566,12.562-23.122,37.668-31.944
				c50.252-17.645,131.699-17.645,181.931,0C476.804,377.004,489.365,388.56,489.365,400.126z"/>
		</g>
	</g>
	<g>
		<g>
			
				<linearGradient id="SVGID_12_" gradientUnits="userSpaceOnUse" x1="2905.5605" y1="396.4048" x2="2819.2656" y2="396.4048" gradientTransform="matrix(-1 0 0 1 2965.4648 0)">
				<stop  offset="0" style="stop-color:#FF426B"/>
				<stop  offset="1" style="stop-color:#FFCB68"/>
			</linearGradient>
			<path fill="url(#SVGID_12_)" d="M61.461,481.538c0,3.446,1.76,6.572,4.706,8.36c2.948,1.786,6.533,1.904,9.588,0.313
				l53.88-28.237c3.542-1.846,7.696-1.709,11.111,0.363c3.417,2.072,5.454,5.694,5.454,9.689v29.62l-1.554-2.609v-27.011
				c0-3.448-1.76-6.572-4.706-8.36c-2.946-1.788-6.531-1.906-9.587-0.313l-53.88,28.236c-1.658,0.864-3.451,1.293-5.239,1.293
				c-2.032,0-4.058-0.554-5.872-1.656c-3.417-2.072-5.456-5.694-5.456-9.688V291.164h1.555V481.538z"/>
		</g>
		<g>
			<path fill="#FED6D6" d="M50.6,314.241c0.034,0.005,0.067,0.012,0.101,0.018c2.718,0.451,4.585,2.984,4.287,5.723
				c0,0-2.914,17.412-3.237,23.108c-0.164,2.891-9.912,6.483-10.038,4.095c-0.374-7.034,2.753-28.359,2.753-28.359
				C44.794,315.807,47.607,313.731,50.6,314.241z"/>
			<path fill="#FED6D6" d="M51.75,343.089c3.073,0.851,22.452,9.772,30.184,10.485c1.319,0.122-2.865,4.702-2.865,4.702
				c-2.688-1.231-25.89-4.174-32.009-6.346c-2.972-1.053-5.821-2.444-5.379-5.744C42.347,341.208,48.711,342.248,51.75,343.089z"/>
			<g>
				<path fill="#FED6D6" d="M79.597,353.647c0.959-0.033,1.78,0.209,2.681,0.521c0.667,0.232,1.364,0.399,1.976,0.766
					c1.128,0.674,1.879,1.965,3.044,2.563c1.169,0.601,1.604,1.012,2.736,1.689c0.999,0.599,2.888,1.443,2.706,2.12
					c-0.238,0.885-2.497,2.195-3.073,2.375c-0.28,0.086-0.566,0.174-0.853,0.176c-0.35,0.003-0.682-0.123-1.008-0.247
					c-1.018-0.39-2.035-0.777-3.052-1.166c-0.743-0.284-1.488-0.569-2.168-0.993c-1.507-0.939-2.59-2.742-4.107-3.594
					C76.526,356.762,77.99,353.704,79.597,353.647z"/>
				<path fill="#FED6D6" d="M85.68,353.244c0.59,0.101,1.145,0.349,1.709,0.55c1.164,0.415,2.386,0.637,3.603,0.856
					c0.231,0.453-0.074,1.041-0.532,1.266c-0.458,0.224-1.001,0.159-1.496,0.036c-2.582-0.643-3.666,0.134-4.786,0.29
					c-1.064,0.149-2.137-0.134-3.174-0.414c-0.626-0.17-0.484-1.771-0.612-2.407C82.369,353.276,85.113,353.147,85.68,353.244z"/>
			</g>
			<path fill="#02007D" d="M50.218,310.721c0.297,0,0.599,0.019,0.903,0.062c1.855,0.253,3.409,1.159,4.478,2.568
				c1.068,1.407,2.015,4.971,1.776,6.722l-2.544,14.834c0,0-8.537,1.155-13.133-2.488c0,0,1.449-11.974,1.968-15.961
				C44.092,313.176,46.93,310.721,50.218,310.721z"/>
		</g>
		<path fill="#FED6D6" d="M44.206,379.437h20.997c1.373,17.637-1.516,28.463-3.675,51.228c-0.243,2.555-4.651,36.52-3.587,48.934
			c0.677,4.655,4.529,14.939,4.572,16.699c0.042,1.761-4.527,2.571-4.931,2.444c-0.402-0.127-8.744-20.726-8.744-20.726
			c3.769-9.265-5.177-38.92-0.792-50.081C45.163,405.4,43.771,379.416,44.206,379.437z"/>
		<path fill="#5469FA" d="M49.75,475.561c0,0-1.458,1.764,0.19,3.199c4.268,3.717,4.864,15.585,8.9,16.764
			c2.82,0.825,3.297-1.004,3.297-1.004s2.193,3.128,4.163,3.559c0.8,0.175,2.04,1.558,0.602,2.186
			c-2.585,1.124-7.119,0.874-10.111-0.462c-3.432-1.53-4.02-12.658-7.274-15.065C47.446,483.204,46.016,478.174,49.75,475.561z"/>
		<path fill="#5469FA" d="M49.517,494.23c-0.379,0.218-0.509-0.113-0.509-0.113s-0.599-7.766-1.272-12.134l2.205,1.103
			L49.517,494.23z"/>
		<path fill="#FED6D6" d="M30.753,438.7c-1.297-22.682-0.869-48.7-0.434-48.648l20.944,1.471
			c0.134,17.688-3.503,28.285-7.251,50.844c-0.421,2.532-7.196,36.104-7.004,48.563c0.35,4.691,3.473,15.22,3.391,16.979
			c-0.081,1.758-4.697,2.247-5.089,2.093c-0.393-0.155-7.271-21.286-7.271-21.286C32.444,479.736,25.598,449.526,30.753,438.7z"/>
		<path fill="#5469FA" d="M29.121,486.328c0,0-1.579,1.658-0.036,3.205c3.998,4.007,3.762,15.886,7.706,17.346
			c2.756,1.019,3.359-0.771,3.359-0.771s1.969,3.273,3.904,3.842c0.786,0.23,1.926,1.696,0.448,2.221
			c-2.658,0.942-7.163,0.374-10.054-1.168c-3.317-1.767-3.126-12.907-6.204-15.538C26.286,493.792,25.21,488.673,29.121,486.328z"/>
		<path fill="#5469FA" d="M27.579,504.935c-0.393,0.19-0.499-0.148-0.499-0.148s-0.055-7.789-0.419-12.193l2.122,1.254
			L27.579,504.935z"/>
		<path fill="#02007D" d="M58.919,356.888c9.31,13.686,15.19,26.759,17.764,38.892l-55.701,17.125
			c-2.374-18.471,5.238-39.365,7.056-49.494C29.284,356.46,54.949,351.051,58.919,356.888z"/>
		<path fill="#02007D" d="M28.86,401.205c2.426-1.766,5.225-3.363,8.21-4.779c1.238-0.59,2.529-1.144,3.837-1.662
			c0.342-0.144,0.702-0.291,1.044-0.423c2.405-0.903,4.877-1.686,7.343-2.312c6.892-1.783,13.77-2.412,19.108-1.491
			c1.827,0.325,3.379,0.802,4.607,1.439c0.217,0.096,0.418,0.207,0.622,0.33c1.008,0.583,1.773,1.271,2.308,2.046
			c0.588,0.837,0.882,1.767,0.913,2.792c0.019,0.634-0.062,1.307-0.272,2.014c-0.181,0.624-0.458,1.275-0.835,1.949
			c-1.208,2.23-3.484,4.644-6.817,7.049c-10.767,7.808-28.486,12.586-39.542,10.665c-5.536-0.958-8.355-3.415-8.45-6.594
			C20.841,409.037,23.47,405.111,28.86,401.205z"/>
		<path fill="#FFB06D" d="M43.701,310.521c10.64-1.214,11.062,1.672,13.074,9.172c1.937,7.225,8.776,12.945,1.945,20.458
			c-4.331,4.764,0.579,17.296,0.579,17.296c-3.146,4.525-17.618,12.491-31.261,5.964c0,0,1.675-10.2-1.725-19.492
			c-1.767-4.827-5.735-9.123-5.178-14.551C22.07,320.24,34.738,311.542,43.701,310.521z"/>
		<g>
			
				<linearGradient id="SVGID_13_" gradientUnits="userSpaceOnUse" x1="2907.7539" y1="299.7417" x2="2919.5908" y2="299.7417" gradientTransform="matrix(-1 0 0 1 2965.4648 0)">
				<stop  offset="0" style="stop-color:#FF426B"/>
				<stop  offset="1" style="stop-color:#FFCB68"/>
			</linearGradient>
			<path fill="url(#SVGID_13_)" d="M49.606,285.972c1.428-1.677,4.562-4.143,5.692-2.253c1.761,2.944,2.511,5.408,2.401,8.807
				c-0.083,2.563-0.886,8.161-0.886,10.726c0,6.858,0.809,12.497,0.578,12.639c-2.04,1.255-8.782,0.427-10.354-2.879
				c-1.407-2.958-1.642-14.544-0.126-21.075C47.408,289.79,48.178,287.649,49.606,285.972z"/>
			<path fill="#FED6D6" d="M35.585,310.883c0.594-0.34,1.276-0.597,2.001-0.784c0.301-0.078,0.615-0.141,0.931-0.191
				c0.083-0.017,0.172-0.031,0.253-0.043c0.583-0.078,1.182-0.114,1.777-0.103c1.665,0.024,3.316,0.398,4.589,1.121
				c0.436,0.249,0.804,0.522,1.094,0.818c0.052,0.049,0.099,0.099,0.147,0.153c0.237,0.261,0.416,0.534,0.539,0.814
				c0.134,0.306,0.198,0.614,0.198,0.931c0,0.194-0.024,0.394-0.079,0.593c-0.048,0.175-0.119,0.352-0.214,0.526
				c-0.306,0.583-0.869,1.133-1.685,1.594c-2.636,1.498-6.916,1.498-9.553,0c-1.32-0.751-1.979-1.733-1.979-2.713
				C33.606,312.616,34.265,311.632,35.585,310.883z"/>
			<path fill="#FED6D6" d="M45.801,292.553c-3.661,7.622,1.236,20.458,1.236,20.458L33.606,313.6v-21.609
				C33.606,291.991,47.264,289.509,45.801,292.553z"/>
			<path fill="#FED6D6" d="M42.37,280.201c6.176-3.145,11.064,1.969,12.014,4.523c0.321,0.863,0.966,4.999,0.968,6.403
				c0.005,6.515-2.225,17.827-6.108,18.958c-2.733,0.796-10.051-1.714-12.351-8.629C34.144,293.192,33.639,284.647,42.37,280.201z"
				/>
			
				<linearGradient id="SVGID_14_" gradientUnits="userSpaceOnUse" x1="2910.165" y1="299.3804" x2="2940.8809" y2="299.3804" gradientTransform="matrix(-1 0 0 1 2965.4648 0)">
				<stop  offset="0" style="stop-color:#FF426B"/>
				<stop  offset="1" style="stop-color:#FFCB68"/>
			</linearGradient>
			<path fill="url(#SVGID_14_)" d="M33.606,277.256c9.045-5.385,17.873-0.258,20.17,1.982c2.799,2.728,1.548,7.514-2.189,8.658
				c-1.976,0.604-3.923,1.78-4.676,4.039c-4.029,12.095-9.606,12.567-9.507,13.281c0.213,1.521-1.175,9.117,4.296,18.376
				c0.273,0.463-12.22,1.082-14.879-4.426c-1.063-2.202-4.52-22.788,0.125-33.419C28.175,282.932,30.965,278.83,33.606,277.256z"/>
		</g>
		<g>
			<path fill="#FED6D6" d="M25.609,328.029c0.015-0.03,0.029-0.062,0.044-0.093c1.205-2.478,4.163-3.55,6.706-2.486
				c0,0,15.867,7.737,21.238,9.663c2.727,0.979,3.405,11.345,1.078,10.787c-6.852-1.638-26.412-10.688-26.412-10.688
				C25.464,334.04,24.271,330.752,25.609,328.029z"/>
			<path fill="#FED6D6" d="M53.597,335.113c1.689-2.706,15.743-18.756,18.622-25.966c0.491-1.231,3.695,4.08,3.695,4.08
				c-1.945,2.228-11.35,23.642-15.168,28.894c-1.854,2.55-3.997,4.887-7.036,3.527C49.124,343.594,51.927,337.789,53.597,335.113z"
				/>
			<g>
				<path fill="#FED6D6" d="M71.625,311.407c0.24-0.93,0.705-1.646,1.261-2.422c0.412-0.575,0.77-1.194,1.293-1.678
					c0.966-0.891,2.417-1.243,3.322-2.19c0.907-0.95,1.426-1.252,2.396-2.145c0.858-0.788,2.204-2.359,2.801-1.992
					c0.78,0.479,1.395,3.017,1.403,3.621c0.004,0.293,0.008,0.591-0.072,0.865c-0.097,0.338-0.313,0.621-0.523,0.898
					c-0.662,0.864-1.323,1.729-1.985,2.595c-0.483,0.632-0.968,1.266-1.567,1.798c-1.329,1.178-3.364,1.705-4.612,2.918
					C73.74,315.237,71.223,312.963,71.625,311.407z"/>
				<path fill="#FED6D6" d="M72.964,305.459c0.264-0.536,0.659-0.997,1.012-1.48c0.729-0.999,1.288-2.108,1.843-3.213
					c0.501-0.094,0.979,0.366,1.063,0.87c0.084,0.502-0.131,1.005-0.39,1.444c-1.349,2.292-0.912,3.552-1.079,4.671
					c-0.16,1.063-0.736,2.011-1.299,2.927c-0.339,0.552-1.836-0.039-2.482-0.097C72.055,308.645,72.709,305.976,72.964,305.459z"/>
			</g>
			<path fill="#02007D" d="M22.124,327.395c0.084-0.284,0.189-0.568,0.316-0.849c0.77-1.706,2.081-2.939,3.734-3.563
				c1.653-0.626,5.337-0.521,6.948,0.203l13.501,6.649c0,0-1.313,8.515-6.112,11.888c0,0-11.07-4.789-14.745-6.417
				C22.74,333.965,21.191,330.547,22.124,327.395z"/>
		</g>
		<linearGradient id="SVGID_15_" gradientUnits="userSpaceOnUse" x1="31.1426" y1="283.353" x2="51.5708" y2="283.353">
			<stop  offset="0" style="stop-color:#130B75"/>
			<stop  offset="1" style="stop-color:#5469FA"/>
		</linearGradient>
		<path fill="url(#SVGID_15_)" d="M38.602,275.04c-2.78,0.257-5.238,1.466-7.191,3.491c-0.507,0.525-0.167,0.741-0.02,0.618
			c1.056-0.885,2.492-1.779,3.834-2.133c2.838-0.745,5.639,0.899,6.857,3.469c1.154,2.435,0.892,5.264-0.028,7.726
			c-0.334,0.895-1.296,1.959-1.481,2.85c-0.178,0.862,0.154,0.726,0.908,0.445c3.151-1.172,6.266-3.21,9.16-4.914
			c0.207-0.121,0.795-0.339,0.91-0.568C51.857,285.411,48.584,274.115,38.602,275.04z"/>
		<linearGradient id="SVGID_16_" gradientUnits="userSpaceOnUse" x1="25.1084" y1="293.9858" x2="35.8452" y2="293.9858">
			<stop  offset="0" style="stop-color:#130B75"/>
			<stop  offset="1" style="stop-color:#5469FA"/>
		</linearGradient>
		<path fill="url(#SVGID_16_)" d="M29.97,292.512c-2.291-1.559-3.65-3.176-4.132-3.603c-0.409-0.362-1.17,0.793-0.396,2.65
			c0.988,2.366,4.099,5.616,6.509,6.789c1.225,0.596,2.59,1.385,3.308,0.039c0.383-0.717,0.732-2.079,0.524-2.879
			C35.401,294.034,33.048,294.606,29.97,292.512z"/>
		<g>
			<g>
				<linearGradient id="SVGID_17_" gradientUnits="userSpaceOnUse" x1="39.2979" y1="294.1196" x2="62.3545" y2="294.1196">
					<stop  offset="0" style="stop-color:#130B75"/>
					<stop  offset="1" style="stop-color:#5469FA"/>
				</linearGradient>
				<path fill="url(#SVGID_17_)" d="M59.276,283.91l-16.932,9.773c-1.681,0.97-3.052,3.348-3.046,5.28l0.009,3.619
					c0.007,1.934,1.386,2.72,3.068,1.747l16.93-9.772c1.682-0.974,3.055-3.35,3.049-5.279l-0.009-3.619
					C62.339,283.722,60.957,282.938,59.276,283.91z"/>
			</g>
			<g>
				<path fill="#000046" d="M59.276,283.91l-16.932,9.773c-1.682,0.97-3.052,3.348-3.046,5.28l0.009,3.619
					c0.004,1.214,0.55,1.974,1.371,2.132l20.904-20.904C61.019,283.387,60.197,283.376,59.276,283.91z"/>
				<path fill="#000046" d="M51.97,298.792l7.335-4.234c1.682-0.974,3.055-3.35,3.049-5.279l-0.001-0.868
					C58.891,291.87,55.43,295.331,51.97,298.792z"/>
			</g>
			<g>
				<linearGradient id="SVGID_18_" gradientUnits="userSpaceOnUse" x1="48.1523" y1="291.1636" x2="53.5005" y2="291.1636">
					<stop  offset="0" style="stop-color:#130B75"/>
					<stop  offset="1" style="stop-color:#5469FA"/>
				</linearGradient>
				<path fill="url(#SVGID_18_)" d="M52.787,288.793l-3.929,2.267c-0.39,0.227-0.708,0.779-0.706,1.226l0.002,0.842
					c0.001,0.446,0.32,0.63,0.712,0.404l3.926-2.268c0.39-0.226,0.708-0.777,0.708-1.224l-0.003-0.842
					C53.496,288.755,53.176,288.57,52.787,288.793z"/>
			</g>
			<linearGradient id="SVGID_19_" gradientUnits="userSpaceOnUse" x1="34.207" y1="291.9253" x2="58.6138" y2="291.9253">
				<stop  offset="0" style="stop-color:#130B75"/>
				<stop  offset="1" style="stop-color:#5469FA"/>
			</linearGradient>
			<path fill="url(#SVGID_19_)" d="M53.325,281.32l-16.201,9.355c-1.609,0.928-2.923,3.202-2.917,5.055l0.009,3.463
				c0.003,0.919,0.329,1.566,0.857,1.873l3.206,1.862c-0.525-0.306-0.854-0.954-0.855-1.871l-0.009-3.465
				c-0.005-1.85,1.308-4.125,2.916-5.055l16.204-9.354c0.808-0.465,1.546-0.509,2.08-0.198l-3.208-1.864
				C54.874,280.812,54.136,280.852,53.325,281.32z"/>
			<path fill="#5469FA" d="M55.922,281.96l-16.929,9.775c-1.682,0.969-3.053,3.349-3.048,5.28l0.009,3.616
				c0.004,0.965,0.346,1.639,0.895,1.958l3.351,1.947c-0.548-0.318-0.891-0.996-0.894-1.955l-0.009-3.619
				c-0.005-1.933,1.366-4.311,3.046-5.282l16.932-9.771c0.846-0.492,1.617-0.536,2.174-0.209l-3.353-1.949
				C57.542,281.431,56.771,281.47,55.922,281.96z"/>
		</g>
	</g>
	<g>
		<g>
			
				<linearGradient id="SVGID_20_" gradientUnits="userSpaceOnUse" x1="682.8564" y1="370.4976" x2="626.3613" y2="370.4976" gradientTransform="matrix(1 0 0 1 -65.0996 0)">
				<stop  offset="0" style="stop-color:#FF426B"/>
				<stop  offset="1" style="stop-color:#FFCB68"/>
			</linearGradient>
			<path fill="url(#SVGID_20_)" d="M616.202,412.367c0,3.446-1.759,6.572-4.705,8.36c-2.947,1.786-6.534,1.904-9.589,0.313
				l-24.079-12.645c-3.544-1.846-7.698-1.711-11.111,0.363c-3.417,2.071-5.456,5.693-5.456,9.688v96.361l1.556-1.645v-94.717
				c0-3.446,1.758-6.571,4.704-8.359c2.947-1.788,6.531-1.906,9.589-0.314l24.08,12.646c1.659,0.863,3.451,1.292,5.24,1.292
				c2.031,0,4.057-0.553,5.872-1.655c3.415-2.072,5.454-5.695,5.454-9.689v-186.18h-1.555V412.367z"/>
		</g>
		<path fill="#02007D" d="M635.222,414.002l-9.51-0.209c-1.04,2.747-2.163,5.334-3.43,7.235c-3,4.507-10.514,5.768-11.524,8.833
			c-0.507,1.534,0.098,2.556,1.058,3.089c2.045,1.14,5.894,0.619,8.393,0.078c4.161-0.9,8.983-4.756,14.175-6.404
			c1.307-0.414,3.054-1.752,2.512-4.501C636.589,420.574,635.544,418.888,635.222,414.002z"/>
		<linearGradient id="SVGID_21_" gradientUnits="userSpaceOnUse" x1="631.5146" y1="323.729" x2="631.5146" y2="422.4402">
			<stop  offset="0" style="stop-color:#130B75"/>
			<stop  offset="1" style="stop-color:#3F36A8"/>
		</linearGradient>
		<path fill="url(#SVGID_21_)" d="M619.698,316.069c0,0-0.729,30.847,0.805,44.906c1.43,13.09,15.971,8.56,16.085,3.82
			c0.433-17.946,9.449-36.829,6.218-44.167L619.698,316.069z"/>
		<linearGradient id="SVGID_22_" gradientUnits="userSpaceOnUse" x1="628.3174" y1="323.729" x2="628.3174" y2="422.4401">
			<stop  offset="0" style="stop-color:#130B75"/>
			<stop  offset="1" style="stop-color:#3F36A8"/>
		</linearGradient>
		<path fill="url(#SVGID_22_)" d="M620.149,356.691c-0.658,3.368,1.958,58.971,3.532,60.145c3.149,2.345,9.478,2.117,12.59-0.53
			c0,0,0.716-59.507-0.004-61.089C635.45,353.422,620.809,353.323,620.149,356.691z"/>
		<g>
			<path fill="#FED6D6" d="M609.412,281.084c2.646,2.434,7.009,3.085,9.818,0.165l11.498-11.685l-10.095-8.279
				c0,0-8.154,9.638-10.774,12.113C606.933,276.166,606.766,278.652,609.412,281.084z"/>
			<path fill="#FED6D6" d="M579.211,292.336c-2.425,1.582-9.014,4.243-10.229,4.803c-1.217,0.562-6.738,2.192-8.025,2.563
				c-1.256,0.361-1.322,0.841-1.279,1.131c0.141,0.955,8-0.491,8.413-0.38c1.677,0.454,3.043,3.485,4.202,3.799
				c3.858,1.047,9.719-5.538,10.611-6.627C583.794,296.539,581.655,290.743,579.211,292.336z"/>
			<path fill="#FED6D6" d="M608.194,274.681c-6.184,4.45-20.393,13-27.201,16.591c-8.177,4.313-1.872,8.037,1.626,6.479
				c7.532-3.358,27.97-9.296,35.105-15.177c2.956-2.436,0.377-5.097-1.45-7.327C614.368,272.918,612.788,271.375,608.194,274.681z"
				/>
			
				<linearGradient id="SVGID_23_" gradientUnits="userSpaceOnUse" x1="900.7529" y1="-1469.7212" x2="900.7529" y2="-1403.5999" gradientTransform="matrix(0.4052 -0.9142 0.9142 0.4052 1598.0461 1675.0912)">
				<stop  offset="0" style="stop-color:#FFCB68"/>
				<stop  offset="1" style="stop-color:#FF426B"/>
			</linearGradient>
			<path fill="url(#SVGID_23_)" d="M627.445,250.599l-11.149,11.837c-2.827,4.352,9.696,15.658,13.972,11.893l10.519-11.165
				c3.469-3.684,3.296-9.481-0.389-12.952C636.714,246.742,630.915,246.916,627.445,250.599z"/>
		</g>
		<path fill="#02007D" d="M671.298,420.29l-9.253,2.208c-0.311,2.921-0.742,5.709-1.485,7.869c-1.76,5.12-8.711,8.242-8.91,11.464
			c-0.101,1.612,0.742,2.448,1.806,2.722c2.267,0.583,5.858-0.896,8.14-2.053c3.796-1.925,7.484-6.875,12.089-9.784
			c1.159-0.733,2.509-2.471,1.289-4.992C674.285,426.301,672.846,424.936,671.298,420.29z"/>
		<linearGradient id="SVGID_24_" gradientUnits="userSpaceOnUse" x1="652.4795" y1="319.7954" x2="652.4795" y2="430.147">
			<stop  offset="0" style="stop-color:#130B75"/>
			<stop  offset="1" style="stop-color:#3F36A8"/>
		</linearGradient>
		<path fill="url(#SVGID_24_)" d="M663.581,319.795l-23.848,5.786c0,0,2.813,27.791,5.356,41.701
			c2.368,12.952,19.387,4.659,19.156-0.076C663.376,349.276,667.327,326.877,663.581,319.795z"/>
		<linearGradient id="SVGID_25_" gradientUnits="userSpaceOnUse" x1="642.8428" y1="250.0298" x2="642.8428" y2="330.0185">
			<stop  offset="0" style="stop-color:#FFCB68"/>
			<stop  offset="1" style="stop-color:#FF426B"/>
		</linearGradient>
		<path fill="url(#SVGID_25_)" d="M648.66,246.783c-15.588-2.477-21.974,4.188-25.062,13.797c-0.448,1.39-4.571,46.754-5.206,53.766
			c-0.066,0.712,0.054,1.418,0.351,2.064c4.342,9.446,28.831,14.493,43.107,12.479c1.922-0.271,3.363-1.915,3.393-3.89
			c0.177-11.765,3.17-54.042,1.629-65.252C665.501,249.768,655.796,247.917,648.66,246.783z"/>
		<linearGradient id="SVGID_26_" gradientUnits="userSpaceOnUse" x1="659.0771" y1="327.8472" x2="659.0771" y2="426.5582">
			<stop  offset="0" style="stop-color:#130B75"/>
			<stop  offset="1" style="stop-color:#3F36A8"/>
		</linearGradient>
		<path fill="url(#SVGID_26_)" d="M645.329,368.906c0.207,3.428,14.038,56.298,15.898,57.027c3.723,1.455,10.442-0.545,11.601-3.651
			c0,0-6.102-52.229-9.944-57.376C661.698,363.317,645.124,365.479,645.329,368.906z"/>
		<g>
			<path fill="#FED6D6" d="M645.313,245.483c-0.838-0.029-1.734,0.04-2.646,0.223c-0.479,0.084-0.98,0.213-1.474,0.356
				c-0.256,0.076-0.487,0.159-0.737,0.251c-0.394,0.135-0.781,0.286-1.162,0.452c-1.977,0.862-3.788,2.1-4.967,3.51
				c-0.81,0.979-1.211,1.904-1.252,2.71c-0.014,0.202,0.007,0.392,0.05,0.586c0.108,0.579,0.441,1.06,0.959,1.442
				c0.566,0.397,1.36,0.659,2.382,0.732c0.089,0.016,0.179,0.03,0.262,0.03c3.694,0.195,8.614-1.952,10.984-4.792
				C650.084,248.142,649.008,245.677,645.313,245.483z"/>
			<path fill="#FED6D6" d="M642.976,227.842l-14.27,4.335c0,0,7.103,10.932,7.103,17.741c0,3.731,13.548,0.771,12.984-2.916
				C647.321,237.375,642.976,227.842,642.976,227.842z"/>
			<g>
				<path fill="#FED6D6" d="M645.595,223.196c-3.79-9.096-10.529-7.524-14.816-6.568c-3.781,1.01-7.049,3.654-8.197,8.005
					c-0.517,1.966-0.6,4.271-0.106,6.923c0.459,0.766,0.942,1.383,0.942,1.383l-0.765,5.157c-0.128,0.839,0.525,1.614,1.379,1.616
					l1.304,0.056c0.208,0.858,0.916,4.559,0.916,4.559c0.563,2.143,2.41,4.783,5.002,4.153l0.822-0.216l1.42-0.362l0.499-0.134
					c1.966-0.686,4.273-2.83,5.444-5.674c0.412-0.995,0.688-2.087,0.744-3.219c0.063-0.94-0.018-1.891-0.28-2.872l0.206-0.063
					c2.111-0.554,6.126,0.023,6.446-1.953c0.471-2.805,0.33-5.519-0.216-8.346C646.037,224.481,645.976,224.107,645.595,223.196z"/>
				<path fill="#02007D" d="M648.801,219.976c-2.442-6.612-9.885-8.191-16.315-6.949c-11.1,2.145-12.01,10.123-9.91,11.612
					c11.413-5.174,11.918,8.805,12.706,11.634c0.35,1.256,2.565,0.773,2.697-0.476c0.121-1.135,1.255-9.693,2.099-7.286
					c2.935,8.394,7.665,13.283,7.665,13.283C646.839,238.457,651.012,225.959,648.801,219.976z"/>
				<path fill="#FED6D6" d="M638.484,227.519c-1.394,0.632-0.783,2.492-0.576,3.832c0.31,2.027,0.397,3.693,1.725,3.504
					c1.327-0.19,2.705-2.777,2.415-4.808C641.623,227.072,639.705,226.965,638.484,227.519z"/>
			</g>
		</g>
		<g>
			<path fill="#FED6D6" d="M678.177,281.204c3.112,2.556,5.6,2.407,7.68-0.524s2.179-7.341-1.073-9.761l-13.041-9.935l-6.941,11.06
				C664.801,272.043,675.389,278.916,678.177,281.204z"/>
			<path fill="#FED6D6" d="M700.826,309.221c1.875,2.206,5.345,8.408,6.054,9.543c0.709,1.136,3.024,6.407,3.554,7.636
				c0.518,1.201,1.003,1.207,1.282,1.129c0.931-0.26-1.494-7.876-1.437-8.298c0.24-1.722,3.073-3.458,3.239-4.648
				c0.552-3.96-6.719-8.943-7.912-9.69C704.417,304.145,698.936,306.998,700.826,309.221z"/>
			<path fill="#FED6D6" d="M679.657,282.694c5.195,5.574,15.468,18.592,19.887,24.894c5.31,7.568,8.21,0.843,6.223-2.429
				c-4.28-7.051-12.747-26.575-19.481-32.914c-2.787-2.623-5.103,0.27-7.085,2.363C677.132,276.791,675.8,278.553,679.657,282.694z"
				/>
			
				<linearGradient id="SVGID_27_" gradientUnits="userSpaceOnUse" x1="1912.1064" y1="-166.7578" x2="1912.1064" y2="-84.3819" gradientTransform="matrix(-0.0474 -0.9989 0.9989 -0.0474 902.4626 2166.2004)">
				<stop  offset="0" style="stop-color:#FFCB68"/>
				<stop  offset="1" style="stop-color:#FF426B"/>
			</linearGradient>
			<path fill="url(#SVGID_27_)" d="M651.325,253.832c-2.979,4.093-2.075,9.822,2.016,12.801l13.147,9.569
				c4.675,2.256,14.312-11.593,10.038-15.361l-12.402-9.025C660.033,248.837,654.302,249.74,651.325,253.832z"/>
		</g>
		
			<linearGradient id="SVGID_28_" gradientUnits="userSpaceOnUse" x1="2348.3213" y1="220.0112" x2="2368.751" y2="220.0112" gradientTransform="matrix(-1 0 0 1 2992.8672 0)">
			<stop  offset="0" style="stop-color:#130B75"/>
			<stop  offset="1" style="stop-color:#5469FA"/>
		</linearGradient>
		<path fill="url(#SVGID_28_)" d="M637.086,211.698c2.78,0.257,5.238,1.468,7.191,3.493c0.507,0.525,0.166,0.74,0.021,0.616
			c-1.057-0.883-2.492-1.778-3.835-2.131c-2.839-0.746-5.641,0.899-6.858,3.469c-1.154,2.434-0.891,5.264,0.029,7.726
			c0.334,0.895,1.296,1.958,1.479,2.849c0.18,0.863-0.153,0.727-0.906,0.446c-3.151-1.173-6.268-3.212-9.16-4.915
			c-0.207-0.122-0.796-0.338-0.911-0.568C623.831,222.071,627.104,210.774,637.086,211.698z"/>
		
			<linearGradient id="SVGID_29_" gradientUnits="userSpaceOnUse" x1="2342.2881" y1="230.644" x2="2353.0254" y2="230.644" gradientTransform="matrix(-1 0 0 1 2992.8672 0)">
			<stop  offset="0" style="stop-color:#130B75"/>
			<stop  offset="1" style="stop-color:#5469FA"/>
		</linearGradient>
		<path fill="url(#SVGID_29_)" d="M645.718,229.172c2.291-1.56,3.65-3.176,4.132-3.604c0.41-0.361,1.171,0.794,0.396,2.65
			c-0.988,2.367-4.1,5.616-6.508,6.789c-1.226,0.596-2.59,1.384-3.31,0.04c-0.382-0.717-0.73-2.079-0.524-2.879
			C640.287,230.693,642.641,231.266,645.718,229.172z"/>
		<g>
			<g>
				
					<linearGradient id="SVGID_30_" gradientUnits="userSpaceOnUse" x1="2356.4766" y1="230.7788" x2="2379.5332" y2="230.7788" gradientTransform="matrix(-1 0 0 1 2992.8672 0)">
					<stop  offset="0" style="stop-color:#130B75"/>
					<stop  offset="1" style="stop-color:#5469FA"/>
				</linearGradient>
				<path fill="url(#SVGID_30_)" d="M616.413,220.568l16.93,9.775c1.682,0.97,3.052,3.347,3.048,5.28l-0.01,3.618
					c-0.006,1.935-1.387,2.719-3.069,1.747l-16.93-9.772c-1.683-0.974-3.054-3.349-3.048-5.28l0.009-3.618
					C613.35,220.382,614.73,219.596,616.413,220.568z"/>
			</g>
			<g>
				<path fill="#000046" d="M616.413,220.568l16.931,9.775c1.681,0.97,3.051,3.347,3.047,5.28l-0.01,3.618
					c-0.005,1.215-0.551,1.974-1.371,2.132l-20.904-20.904C614.67,220.046,615.49,220.037,616.413,220.568z"/>
				<path fill="#000046" d="M623.719,235.452l-7.337-4.235c-1.681-0.974-3.054-3.349-3.048-5.28l0.001-0.867
					C616.796,228.53,620.258,231.991,623.719,235.452z"/>
			</g>
			<g>
				
					<linearGradient id="SVGID_31_" gradientUnits="userSpaceOnUse" x1="2365.3311" y1="227.8237" x2="2370.6787" y2="227.8237" gradientTransform="matrix(-1 0 0 1 2992.8672 0)">
					<stop  offset="0" style="stop-color:#130B75"/>
					<stop  offset="1" style="stop-color:#5469FA"/>
				</linearGradient>
				<path fill="url(#SVGID_31_)" d="M622.901,225.454l3.927,2.267c0.391,0.226,0.709,0.777,0.708,1.226l-0.003,0.84
					c-0.001,0.446-0.321,0.632-0.711,0.405l-3.928-2.267c-0.39-0.226-0.708-0.777-0.706-1.224l0.002-0.842
					C622.192,225.415,622.513,225.23,622.901,225.454z"/>
			</g>
			
				<linearGradient id="SVGID_32_" gradientUnits="userSpaceOnUse" x1="2351.3857" y1="228.5854" x2="2375.7939" y2="228.5854" gradientTransform="matrix(-1 0 0 1 2992.8672 0)">
				<stop  offset="0" style="stop-color:#130B75"/>
				<stop  offset="1" style="stop-color:#5469FA"/>
			</linearGradient>
			<path fill="url(#SVGID_32_)" d="M622.364,217.98l16.2,9.355c1.608,0.928,2.924,3.202,2.917,5.055l-0.01,3.461
				c-0.002,0.921-0.328,1.568-0.856,1.875l-3.206,1.862c0.524-0.308,0.853-0.955,0.854-1.872l0.011-3.464
				c0.005-1.852-1.308-4.125-2.916-5.055l-16.202-9.354c-0.81-0.466-1.547-0.509-2.082-0.198l3.209-1.864
				C620.814,217.472,621.553,217.511,622.364,217.98z"/>
			<path fill="#5469FA" d="M619.765,218.621l16.931,9.774c1.682,0.969,3.053,3.35,3.048,5.28l-0.01,3.616
				c-0.004,0.964-0.346,1.64-0.896,1.959l-3.352,1.947c0.548-0.319,0.893-0.996,0.895-1.956l0.01-3.618
				c0.004-1.934-1.366-4.311-3.048-5.282l-16.93-9.773c-0.848-0.49-1.617-0.534-2.176-0.207l3.354-1.949
				C618.147,218.09,618.918,218.13,619.765,218.621z"/>
		</g>
	</g>
	<g>
		<defs>
			<path id="SVGID_33_" d="M232.097,400.128c-0.833,6.654,4.23,13.411,12.692,19.582c0.445,0.333,0.907,0.658,1.389,0.984
				c4.943,3.399,11.201,6.614,18.757,9.57c1.555,0.608,3.157,1.205,4.832,1.796c50.251,17.646,131.693,17.646,181.935,0
				c1.602-0.565,3.158-1.138,4.656-1.728c3.481-1.353,6.685-2.767,9.61-4.229c0.453-0.216,0.889-0.437,1.315-0.663
				c14.72-7.616,22.079-16.461,22.079-25.313c0-8.864,44.718-92.565,44.718-141.865c0-65.947-6.406-150.943-50.141-188.189
				C418.431,14.286,264.221-2.201,213.968,15.439c-11.443,4.02-148.41,87.983-116.353,245.544
				C115.464,348.709,232.509,396.822,232.097,400.128z"/>
		</defs>
		<clipPath id="SVGID_34_">
			<use xlink:href="#SVGID_33_"  overflow="visible"/>
		</clipPath>
		<g clip-path="url(#SVGID_34_)">
			<g>
				<g>
					<polygon id="XMLID_243_" fill-rule="evenodd" clip-rule="evenodd" fill="#C69A7B" points="348.079,434.568 347.604,461.782 
						372.541,447.033 373.016,419.818 					"/>
					<polygon id="XMLID_242_" fill-rule="evenodd" clip-rule="evenodd" fill="#FF5A72" points="348.079,434.568 347.604,461.782 
						372.541,447.033 373.016,419.818 					"/>
					<polygon id="XMLID_241_" fill-rule="evenodd" clip-rule="evenodd" fill="#FFB06D" points="348.079,434.568 323.654,420.078 
						348.594,405.068 373.016,419.818 					"/>
					<linearGradient id="XMLID_2_" gradientUnits="userSpaceOnUse" x1="323.1797" y1="440.9292" x2="348.0791" y2="440.9292">
						<stop  offset="0" style="stop-color:#FF426B"/>
						<stop  offset="1" style="stop-color:#FFCB68"/>
					</linearGradient>
					<polygon id="XMLID_240_" fill-rule="evenodd" clip-rule="evenodd" fill="url(#XMLID_2_)" points="348.079,434.568 
						347.604,461.782 323.18,447.294 323.654,420.078 					"/>
				</g>
			</g>
			<g opacity="0.5">
				<g>
					<polygon fill-rule="evenodd" clip-rule="evenodd" fill="#C69A7B" points="313.174,227.389 365.966,196.166 366.975,138.55 
						314.179,169.774 					"/>
					<polygon fill-rule="evenodd" clip-rule="evenodd" fill="#FF5A72" points="313.174,227.389 365.966,196.166 366.975,138.55 
						314.179,169.774 					"/>
					<polygon fill-rule="evenodd" clip-rule="evenodd" fill="#FFB06D" points="262.472,139.099 314.179,169.774 366.975,138.55 
						315.269,107.32 					"/>
					<linearGradient id="SVGID_35_" gradientUnits="userSpaceOnUse" x1="261.4663" y1="183.2437" x2="314.1787" y2="183.2437">
						<stop  offset="0" style="stop-color:#FF426B"/>
						<stop  offset="1" style="stop-color:#FFCB68"/>
					</linearGradient>
					<polygon fill-rule="evenodd" clip-rule="evenodd" fill="url(#SVGID_35_)" points="261.466,196.716 313.174,227.389 
						314.179,169.774 262.472,139.099 					"/>
				</g>
			</g>
			<g>
				<g>
					<polygon id="XMLID_216_" fill-rule="evenodd" clip-rule="evenodd" fill="#C69A7B" points="345.385,391.012 344.778,425.737 
						376.597,406.918 377.201,372.194 					"/>
					<polygon id="XMLID_215_" fill-rule="evenodd" clip-rule="evenodd" fill="#FF5A72" points="345.385,391.012 344.778,425.737 
						376.597,406.918 377.201,372.194 					"/>
					<polygon id="XMLID_214_" fill-rule="evenodd" clip-rule="evenodd" fill="#FFB06D" points="345.385,391.012 314.221,372.526 
						346.042,353.374 377.201,372.194 					"/>
					<linearGradient id="XMLID_3_" gradientUnits="userSpaceOnUse" x1="313.6133" y1="399.1313" x2="345.3848" y2="399.1313">
						<stop  offset="0" style="stop-color:#FF426B"/>
						<stop  offset="1" style="stop-color:#FFCB68"/>
					</linearGradient>
					<polygon id="XMLID_213_" fill-rule="evenodd" clip-rule="evenodd" fill="url(#XMLID_3_)" points="345.385,391.012 
						344.778,425.737 313.613,407.25 314.221,372.526 					"/>
				</g>
			</g>
			<g>
				<g>
					<polygon id="XMLID_239_" fill-rule="evenodd" clip-rule="evenodd" fill="#C69A7B" points="335.745,318.227 335.138,352.953 
						366.955,334.133 367.56,299.41 					"/>
					<linearGradient id="XMLID_4_" gradientUnits="userSpaceOnUse" x1="334.8232" y1="321.4429" x2="367.877" y2="330.9209">
						<stop  offset="0" style="stop-color:#130B75"/>
						<stop  offset="1" style="stop-color:#5469FA"/>
					</linearGradient>
					<polygon id="XMLID_238_" fill-rule="evenodd" clip-rule="evenodd" fill="url(#XMLID_4_)" points="335.745,318.227 
						335.138,352.953 366.955,334.133 367.56,299.41 					"/>
					<polygon id="XMLID_237_" fill-rule="evenodd" clip-rule="evenodd" fill="#5469FA" points="335.745,318.227 304.58,299.742 
						336.4,280.588 367.56,299.41 					"/>
					<polygon id="XMLID_236_" fill-rule="evenodd" clip-rule="evenodd" fill="#E5E6FA" points="335.745,318.227 335.138,352.953 
						303.974,334.465 304.58,299.742 					"/>
				</g>
			</g>
			<g>
				<g>
					<polygon id="XMLID_235_" fill-rule="evenodd" clip-rule="evenodd" fill="#C69A7B" points="272.762,318.651 272.156,353.374 
						303.974,334.555 304.58,299.831 					"/>
					<linearGradient id="XMLID_5_" gradientUnits="userSpaceOnUse" x1="271.8403" y1="321.8628" x2="304.895" y2="331.3411">
						<stop  offset="0" style="stop-color:#130B75"/>
						<stop  offset="1" style="stop-color:#5469FA"/>
					</linearGradient>
					<polygon id="XMLID_234_" fill-rule="evenodd" clip-rule="evenodd" fill="url(#XMLID_5_)" points="272.762,318.651 
						272.156,353.374 303.974,334.555 304.58,299.831 					"/>
					<polygon id="XMLID_233_" fill-rule="evenodd" clip-rule="evenodd" fill="#5469FA" points="272.762,318.651 241.597,300.163 
						273.418,281.01 304.58,299.831 					"/>
					<polygon id="XMLID_232_" fill-rule="evenodd" clip-rule="evenodd" fill="#E5E6FA" points="272.762,318.651 272.156,353.374 
						240.991,334.887 241.597,300.163 					"/>
				</g>
			</g>
			<g>
				<g>
					<polygon id="XMLID_231_" fill-rule="evenodd" clip-rule="evenodd" fill="#C69A7B" points="366.933,348.191 366.325,382.916 
						398.143,364.097 398.749,329.372 					"/>
					<polygon id="XMLID_230_" fill-rule="evenodd" clip-rule="evenodd" fill="#FF5A72" points="366.933,348.191 366.325,382.916 
						398.143,364.097 398.749,329.372 					"/>
					<polygon id="XMLID_229_" fill-rule="evenodd" clip-rule="evenodd" fill="#FFB06D" points="366.933,348.191 335.768,329.705 
						367.588,310.55 398.749,329.372 					"/>
					<linearGradient id="XMLID_6_" gradientUnits="userSpaceOnUse" x1="335.1611" y1="356.3101" x2="366.9326" y2="356.3101">
						<stop  offset="0" style="stop-color:#FF426B"/>
						<stop  offset="1" style="stop-color:#FFCB68"/>
					</linearGradient>
					<polygon id="XMLID_228_" fill-rule="evenodd" clip-rule="evenodd" fill="url(#XMLID_6_)" points="366.933,348.191 
						366.325,382.916 335.161,364.429 335.768,329.705 					"/>
				</g>
			</g>
			<g>
				<g>
					<polygon id="XMLID_227_" fill-rule="evenodd" clip-rule="evenodd" fill="#C69A7B" points="399.332,294.647 398.725,329.372 
						430.544,310.55 431.148,275.829 					"/>
					<polygon id="XMLID_226_" fill-rule="evenodd" clip-rule="evenodd" fill="#FF5A72" points="399.332,294.647 398.725,329.372 
						430.544,310.55 431.148,275.829 					"/>
					<polygon id="XMLID_223_" fill-rule="evenodd" clip-rule="evenodd" fill="#FFB06D" points="399.332,294.647 368.167,276.161 
						399.988,257.007 431.148,275.829 					"/>
					<linearGradient id="XMLID_7_" gradientUnits="userSpaceOnUse" x1="367.5596" y1="302.7661" x2="399.332" y2="302.7661">
						<stop  offset="0" style="stop-color:#FF426B"/>
						<stop  offset="1" style="stop-color:#FFCB68"/>
					</linearGradient>
					<polygon id="XMLID_222_" fill-rule="evenodd" clip-rule="evenodd" fill="url(#XMLID_7_)" points="399.332,294.647 
						398.725,329.372 367.56,310.884 368.167,276.161 					"/>
				</g>
			</g>
			<g>
				<g>
					<polygon id="XMLID_221_" fill-rule="evenodd" clip-rule="evenodd" fill="#C69A7B" points="423.347,376.924 422.74,411.649 
						454.558,392.829 455.165,358.105 					"/>
					<linearGradient id="XMLID_8_" gradientUnits="userSpaceOnUse" x1="422.4248" y1="380.1372" x2="455.4785" y2="389.6152">
						<stop  offset="0" style="stop-color:#130B75"/>
						<stop  offset="1" style="stop-color:#5469FA"/>
					</linearGradient>
					<polygon id="XMLID_220_" fill-rule="evenodd" clip-rule="evenodd" fill="url(#XMLID_8_)" points="423.347,376.924 
						422.74,411.649 454.558,392.829 455.165,358.105 					"/>
					<polygon id="XMLID_219_" fill-rule="evenodd" clip-rule="evenodd" fill="#5469FA" points="423.347,376.924 392.183,358.438 
						424.004,339.286 455.165,358.105 					"/>
					<polygon id="XMLID_217_" fill-rule="evenodd" clip-rule="evenodd" fill="#E5E6FA" points="423.347,376.924 422.74,411.649 
						391.575,393.161 392.183,358.438 					"/>
				</g>
			</g>
			<g>
				<g>
					<polygon id="XMLID_212_" fill-rule="evenodd" clip-rule="evenodd" fill="#C69A7B" points="304.557,348.191 303.949,382.916 
						335.768,364.097 336.372,329.372 					"/>
					<polygon id="XMLID_211_" fill-rule="evenodd" clip-rule="evenodd" fill="#FF5A72" points="304.557,348.191 303.949,382.916 
						335.768,364.097 336.372,329.372 					"/>
					<polygon id="XMLID_210_" fill-rule="evenodd" clip-rule="evenodd" fill="#FFB06D" points="304.557,348.191 273.392,329.705 
						305.213,310.55 336.372,329.372 					"/>
					<linearGradient id="XMLID_9_" gradientUnits="userSpaceOnUse" x1="272.7856" y1="356.3101" x2="304.5566" y2="356.3101">
						<stop  offset="0" style="stop-color:#FF426B"/>
						<stop  offset="1" style="stop-color:#FFCB68"/>
					</linearGradient>
					<polygon id="XMLID_209_" fill-rule="evenodd" clip-rule="evenodd" fill="url(#XMLID_9_)" points="304.557,348.191 
						303.949,382.916 272.786,364.429 273.392,329.705 					"/>
				</g>
			</g>
			<g>
				<g>
					<polygon id="XMLID_208_" fill-rule="evenodd" clip-rule="evenodd" fill="#C69A7B" points="308.825,254.667 308.22,289.392 
						340.037,270.572 340.643,235.848 					"/>
					<polygon id="XMLID_207_" fill-rule="evenodd" clip-rule="evenodd" fill="#FF5A72" points="308.825,254.667 308.22,289.392 
						340.037,270.572 340.643,235.848 					"/>
					<polygon id="XMLID_206_" fill-rule="evenodd" clip-rule="evenodd" fill="#FFB06D" points="308.825,254.667 277.661,236.181 
						309.483,217.028 340.643,235.848 					"/>
					<linearGradient id="XMLID_10_" gradientUnits="userSpaceOnUse" x1="277.0547" y1="262.7866" x2="308.8252" y2="262.7866">
						<stop  offset="0" style="stop-color:#FF426B"/>
						<stop  offset="1" style="stop-color:#FFCB68"/>
					</linearGradient>
					<polygon id="XMLID_205_" fill-rule="evenodd" clip-rule="evenodd" fill="url(#XMLID_10_)" points="308.825,254.667 
						308.22,289.392 277.055,270.904 277.661,236.181 					"/>
				</g>
			</g>
			<g>
				<g>
					<polygon id="XMLID_204_" fill-rule="evenodd" clip-rule="evenodd" fill="#C69A7B" points="397.261,225.033 396.35,277.258 
						444.202,248.955 445.114,196.729 					"/>
					<linearGradient id="XMLID_11_" gradientUnits="userSpaceOnUse" x1="395.874" y1="229.8657" x2="445.5874" y2="244.1208">
						<stop  offset="0" style="stop-color:#130B75"/>
						<stop  offset="1" style="stop-color:#5469FA"/>
					</linearGradient>
					<polygon id="XMLID_203_" fill-rule="evenodd" clip-rule="evenodd" fill="url(#XMLID_11_)" points="397.261,225.033 
						396.35,277.258 444.202,248.955 445.114,196.729 					"/>
					<polygon id="XMLID_202_" fill-rule="evenodd" clip-rule="evenodd" fill="#5469FA" points="397.261,225.033 350.389,197.229 
						398.247,168.424 445.114,196.729 					"/>
					<polygon id="XMLID_201_" fill-rule="evenodd" clip-rule="evenodd" fill="#E5E6FA" points="397.261,225.033 396.35,277.258 
						349.478,249.455 350.389,197.229 					"/>
				</g>
			</g>
			
				<linearGradient id="SVGID_36_" gradientUnits="userSpaceOnUse" x1="2226.4863" y1="290.8032" x2="2226.4863" y2="182.8984" gradientTransform="matrix(-1 0 0 1 2667.875 0)">
				<stop  offset="0" style="stop-color:#FF426B"/>
				<stop  offset="1" style="stop-color:#FFCB68"/>
			</linearGradient>
			<path fill="url(#SVGID_36_)" d="M480.28,210.894c0-0.626-0.332-1.193-0.881-1.506c-6.527-3.614-47.234-26.283-47.234-26.283
				c-0.469-0.275-0.995-0.275-1.446,0l-4.2,2.403l2.91,1.738l2.072-1.171l43.562,24.681l-43.229,24.742l-17.979-10.671v3.421
				l16.493,9.79l0.177,19.016l0.255,29.743l-25.368-14.911l-3.029,1.799c13.349,7.699,29.55,17.043,29.568,17.062
				c0.137,0.039,0.275,0.058,0.392,0.058c0.137,0,0.273-0.019,0.392-0.058c0.037-0.019,0.097-0.019,0.137-0.04
				c0.076-0.02,46.59-26.518,46.59-26.518c0.47-0.257,0.958-0.765,0.937-1.272L480.28,210.894z M433.747,286.796l-0.331-31.443
				l-0.196-17.297l43.308-24.759l0.526,48.758L433.747,286.796z"/>
			<g opacity="0.3">
				<g>
					<polygon id="XMLID_200_" fill-rule="evenodd" clip-rule="evenodd" fill="#C69A7B" points="237.474,70.074 237.017,96.265 
						261.015,82.072 261.472,55.881 					"/>
					<linearGradient id="XMLID_12_" gradientUnits="userSpaceOnUse" x1="236.7793" y1="72.498" x2="261.7101" y2="79.6469">
						<stop  offset="0" style="stop-color:#130B75"/>
						<stop  offset="1" style="stop-color:#5469FA"/>
					</linearGradient>
					<polygon id="XMLID_199_" fill-rule="evenodd" clip-rule="evenodd" fill="url(#XMLID_12_)" points="237.474,70.074 
						237.017,96.265 261.015,82.072 261.472,55.881 					"/>
					<polygon id="XMLID_184_" fill-rule="evenodd" clip-rule="evenodd" fill="#5469FA" points="237.474,70.074 213.968,56.131 
						237.969,41.687 261.472,55.881 					"/>
					<polygon id="XMLID_182_" fill-rule="evenodd" clip-rule="evenodd" fill="#E5E6FA" points="237.474,70.074 237.017,96.265 
						213.511,82.322 213.968,56.131 					"/>
				</g>
			</g>
			<g opacity="0.3">
				<g>
					<polygon id="XMLID_181_" fill-rule="evenodd" clip-rule="evenodd" fill="#C69A7B" points="147.296,191.238 146.627,229.613 
						181.79,208.816 182.46,170.44 					"/>
					<linearGradient id="XMLID_13_" gradientUnits="userSpaceOnUse" x1="146.2783" y1="194.7886" x2="182.8091" y2="205.2636">
						<stop  offset="0" style="stop-color:#130B75"/>
						<stop  offset="1" style="stop-color:#5469FA"/>
					</linearGradient>
					<polygon id="XMLID_180_" fill-rule="evenodd" clip-rule="evenodd" fill="url(#XMLID_13_)" points="147.296,191.238 
						146.627,229.613 181.79,208.816 182.46,170.44 					"/>
					<polygon id="XMLID_176_" fill-rule="evenodd" clip-rule="evenodd" fill="#5469FA" points="147.296,191.238 112.855,170.808 
						148.024,149.642 182.46,170.44 					"/>
					<polygon id="XMLID_175_" fill-rule="evenodd" clip-rule="evenodd" fill="#E5E6FA" points="147.296,191.238 146.627,229.613 
						112.185,209.182 112.855,170.808 					"/>
				</g>
			</g>
			<g>
				<g>
					<polygon id="XMLID_173_" fill-rule="evenodd" clip-rule="evenodd" fill="#C69A7B" points="292.637,223.538 292.032,258.263 
						323.849,239.443 324.454,204.72 					"/>
					<linearGradient id="XMLID_14_" gradientUnits="userSpaceOnUse" x1="291.7148" y1="226.7524" x2="324.7695" y2="236.2307">
						<stop  offset="0" style="stop-color:#130B75"/>
						<stop  offset="1" style="stop-color:#5469FA"/>
					</linearGradient>
					<polygon id="XMLID_172_" fill-rule="evenodd" clip-rule="evenodd" fill="url(#XMLID_14_)" points="292.637,223.538 
						292.032,258.263 323.849,239.443 324.454,204.72 					"/>
					<polygon id="XMLID_171_" fill-rule="evenodd" clip-rule="evenodd" fill="#5469FA" points="292.637,223.538 261.472,205.052 
						293.295,185.898 324.454,204.72 					"/>
					<polygon id="XMLID_170_" fill-rule="evenodd" clip-rule="evenodd" fill="#E5E6FA" points="292.637,223.538 292.032,258.263 
						260.867,239.776 261.472,205.052 					"/>
				</g>
			</g>
			<g opacity="0.5">
				<g>
					<polygon id="XMLID_169_" fill-rule="evenodd" clip-rule="evenodd" fill="#C69A7B" points="484.295,208.53 483.939,228.888 
						502.592,217.855 502.947,197.497 					"/>
					<polygon id="XMLID_168_" fill-rule="evenodd" clip-rule="evenodd" fill="#FF5A72" points="484.295,208.53 483.939,228.888 
						502.592,217.855 502.947,197.497 					"/>
					<polygon id="XMLID_167_" fill-rule="evenodd" clip-rule="evenodd" fill="#FFB06D" points="484.295,208.53 466.022,197.692 
						484.68,186.464 502.947,197.497 					"/>
					<linearGradient id="XMLID_15_" gradientUnits="userSpaceOnUse" x1="465.668" y1="213.2905" x2="484.2949" y2="213.2905">
						<stop  offset="0" style="stop-color:#FF426B"/>
						<stop  offset="1" style="stop-color:#FFCB68"/>
					</linearGradient>
					<polygon id="XMLID_165_" fill-rule="evenodd" clip-rule="evenodd" fill="url(#XMLID_15_)" points="484.295,208.53 
						483.939,228.888 465.668,218.049 466.022,197.692 					"/>
				</g>
			</g>
			<g opacity="0.5">
				<g>
					<polygon id="XMLID_149_" fill-rule="evenodd" clip-rule="evenodd" fill="#C69A7B" points="489.321,311.443 488.951,332.688 
						508.417,321.175 508.788,299.929 					"/>
					<polygon id="XMLID_148_" fill-rule="evenodd" clip-rule="evenodd" fill="#FF5A72" points="489.321,311.443 488.951,332.688 
						508.417,321.175 508.788,299.929 					"/>
					<polygon id="XMLID_147_" fill-rule="evenodd" clip-rule="evenodd" fill="#FFB06D" points="489.321,311.443 470.255,300.133 
						489.723,288.415 508.788,299.929 					"/>
					<linearGradient id="XMLID_16_" gradientUnits="userSpaceOnUse" x1="469.8857" y1="316.4106" x2="489.3213" y2="316.4106">
						<stop  offset="0" style="stop-color:#FF426B"/>
						<stop  offset="1" style="stop-color:#FFCB68"/>
					</linearGradient>
					<polygon id="XMLID_146_" fill-rule="evenodd" clip-rule="evenodd" fill="url(#XMLID_16_)" points="489.321,311.443 
						488.951,332.688 469.886,321.378 470.255,300.133 					"/>
				</g>
			</g>
			<g opacity="0.5">
				<g>
					<polygon id="XMLID_143_" fill-rule="evenodd" clip-rule="evenodd" fill="#C69A7B" points="195.668,327.241 194.958,367.977 
						232.283,345.897 232.993,305.166 					"/>
					<polygon id="XMLID_142_" fill-rule="evenodd" clip-rule="evenodd" fill="#FF5A72" points="195.668,327.241 194.958,367.977 
						232.283,345.897 232.993,305.166 					"/>
					<polygon id="XMLID_84_" fill-rule="evenodd" clip-rule="evenodd" fill="#FFB06D" points="195.668,327.241 159.107,305.552 
						196.439,283.086 232.993,305.166 					"/>
					<linearGradient id="XMLID_17_" gradientUnits="userSpaceOnUse" x1="158.397" y1="336.7651" x2="195.6685" y2="336.7651">
						<stop  offset="0" style="stop-color:#FF426B"/>
						<stop  offset="1" style="stop-color:#FFCB68"/>
					</linearGradient>
					<polygon id="XMLID_60_" fill-rule="evenodd" clip-rule="evenodd" fill="url(#XMLID_17_)" points="195.668,327.241 
						194.958,367.977 158.397,346.29 159.107,305.552 					"/>
				</g>
			</g>
			<g opacity="0.5">
				<g>
					<polygon id="XMLID_247_" fill-rule="evenodd" clip-rule="evenodd" fill="#C69A7B" points="420.72,103.422 420.417,120.808 
						436.348,111.384 436.65,94 					"/>
					<polygon id="XMLID_246_" fill-rule="evenodd" clip-rule="evenodd" fill="#FF5A72" points="420.72,103.422 420.417,120.808 
						436.348,111.384 436.65,94 					"/>
					<polygon id="XMLID_245_" fill-rule="evenodd" clip-rule="evenodd" fill="#FFB06D" points="420.72,103.422 405.115,94.164 
						421.049,84.577 436.65,94 					"/>
					<linearGradient id="XMLID_18_" gradientUnits="userSpaceOnUse" x1="404.8125" y1="107.4858" x2="420.7197" y2="107.4858">
						<stop  offset="0" style="stop-color:#FF426B"/>
						<stop  offset="1" style="stop-color:#FFCB68"/>
					</linearGradient>
					<polygon id="XMLID_244_" fill-rule="evenodd" clip-rule="evenodd" fill="url(#XMLID_18_)" points="420.72,103.422 
						420.417,120.808 404.813,111.551 405.115,94.164 					"/>
				</g>
			</g>
			<linearGradient id="SVGID_37_" gradientUnits="userSpaceOnUse" x1="248.2329" y1="279.855" x2="248.2329" y2="179.3726">
				<stop  offset="0" style="stop-color:#FF426B"/>
				<stop  offset="1" style="stop-color:#FFCB68"/>
			</linearGradient>
			<path fill="url(#SVGID_37_)" d="M287.416,255.518l-35.032,20.608l0.442-45.413l15.878-9.11v-3.182l-17.333,9.927l-40.255-23.037
				l40.554-22.987l24.507,14.008l2.714-1.637l-26.48-15.139c-0.417-0.246-0.922-0.246-1.351,0c0,0-37.916,21.116-43.984,24.48
				c-0.508,0.287-0.82,0.819-0.82,1.403l-0.117,48.441c-0.012,0.481,0.442,0.949,0.871,1.182c0,0,43.322,24.677,43.399,24.702
				c0.039,0.013,0.091,0.028,0.117,0.04c0.117,0.025,0.248,0.051,0.365,0.051s0.247-0.025,0.363-0.051
				c0.025-0.012,27.885-16.101,39.072-22.559L287.416,255.518z M249.591,276.126l-40.333-23.052l0.481-45.398l40.333,23.048
				L249.591,276.126z"/>
		</g>
	</g>
</g>
</svg>
