<?xml version="1.0" encoding="utf-8"?>
<!-- Generator: Adobe Illustrator 16.0.0, SVG Export Plug-In . SVG Version: 6.00 Build 0)  -->
<!DOCTYPE svg PUBLIC "-//W3C//DTD SVG 1.1//EN" "http://www.w3.org/Graphics/SVG/1.1/DTD/svg11.dtd">
<svg version="1.1" id="Layer_1" xmlns="http://www.w3.org/2000/svg" xmlns:xlink="http://www.w3.org/1999/xlink" x="0px" y="0px"
	 width="917.392px" height="586.471px" viewBox="0 0 917.392 586.471" enable-background="new 0 0 917.392 586.471"
	 xml:space="preserve">
<g opacity="0.2">
	<path fill="#2848A6" d="M803.337,386.261c13.408,7.741,13.468,20.291,0.155,28.026L534.598,570.551
		c-13.312,7.736-34.976,7.743-48.384,0L215.57,414.297c-13.408-7.742-13.479-20.296-0.167-28.034l268.895-156.265
		c13.312-7.735,34.985-7.735,48.395,0.006L803.337,386.261z"/>
</g>
<g>
	<g enable-background="new    ">
		<path fill="#93ACF1" d="M803.493,308.995L534.598,465.259c-13.312,7.735-34.976,7.742-48.384,0L215.57,309.004
			c-6.749-3.897-10.118-9.015-10.105-14.119l-0.024,8.962c-0.014,5.108,3.355,10.222,10.104,14.119l270.642,156.256
			c13.412,7.743,35.074,7.738,48.387,0l268.896-156.263c6.612-3.845,9.927-8.878,9.941-13.917l0.024-8.963
			C813.422,300.119,810.109,305.15,803.493,308.995z"/>
		<g>
			<path fill="#FFFFFF" d="M803.337,280.968c13.408,7.743,13.468,20.291,0.155,28.026L534.598,465.259
				c-13.312,7.735-34.976,7.742-48.384,0.002L215.57,309.004c-13.408-7.742-13.479-20.296-0.167-28.034l268.895-156.263
				c13.312-7.737,34.985-7.737,48.395,0.004L803.337,280.968z"/>
		</g>
	</g>
</g>
<g>
	<g>
		<g enable-background="new    ">
			<path fill="#93ACF1" d="M703.842,489.759l7.957,4.703c3.466,2.014,9.104,2.017,12.594,0l39.574-22.854
				c1.757-1.015,2.631-2.347,2.629-3.676l0.007,2.334c0.004,1.327-0.873,2.659-2.631,3.674l-39.573,22.854
				c-3.49,2.016-9.129,2.014-12.593,0l-7.957-4.704c-1.724-0.999-2.585-2.309-2.588-3.621l-0.008-2.334
				C701.259,487.45,702.12,488.759,703.842,489.759z"/>
			<g>
				<path fill="#FFFFFF" d="M703.881,482.464c-3.489,2.013-3.505,5.279-0.039,7.295l7.957,4.703c3.466,2.014,9.104,2.017,12.594,0
					l39.574-22.854c3.489-2.016,3.508-5.283,0.042-7.297l-7.958-4.703c-3.463-2.014-9.105-2.014-12.595,0.002L703.881,482.464z"/>
			</g>
		</g>
	</g>
	<g>
		<g enable-background="new    ">
			<path fill="#93ACF1" d="M687.236,469.656l7.958,4.702c3.465,2.015,9.103,2.016,12.593,0l39.574-22.853
				c1.756-1.016,2.634-2.347,2.63-3.676l0.007,2.333c0.003,1.329-0.874,2.661-2.631,3.675l-39.572,22.855
				c-3.491,2.013-9.13,2.012-12.594,0l-7.956-4.704c-1.725-1.001-2.586-2.309-2.591-3.622l-0.006-2.333
				C684.653,467.344,685.515,468.655,687.236,469.656z"/>
			<g>
				<path fill="#FFFFFF" d="M687.277,462.361c-3.49,2.015-3.507,5.28-0.041,7.295l7.958,4.702c3.465,2.015,9.103,2.016,12.593,0
					l39.574-22.853c3.49-2.016,3.509-5.283,0.045-7.296l-7.96-4.704c-3.463-2.014-9.106-2.014-12.596,0.001L687.277,462.361z"/>
			</g>
		</g>
	</g>
	<g>
		<g enable-background="new    ">
			<path fill="#93ACF1" d="M670.631,449.552l7.957,4.702c3.466,2.014,9.103,2.018,12.593,0l39.575-22.854
				c1.754-1.015,2.632-2.345,2.629-3.677l0.008,2.336c0.003,1.329-0.875,2.659-2.632,3.673l-39.574,22.855
				c-3.489,2.013-9.128,2.012-12.592,0l-7.959-4.704c-1.723-1-2.583-2.31-2.586-3.621l-0.008-2.334
				C668.047,447.243,668.908,448.552,670.631,449.552z"/>
			<g>
				<path fill="#FFFFFF" d="M670.67,442.256c-3.489,2.016-3.505,5.283-0.039,7.296l7.957,4.702c3.466,2.014,9.103,2.018,12.593,0
					l39.575-22.854c3.489-2.017,3.507-5.283,0.041-7.295l-7.956-4.704c-3.466-2.015-9.106-2.015-12.597,0.001L670.67,442.256z"/>
			</g>
		</g>
	</g>
	<g>
		<g enable-background="new    ">
			<path fill="#93ACF1" d="M654.024,429.447l7.959,4.703c3.464,2.017,9.103,2.018,12.593,0l39.573-22.854
				c1.757-1.014,2.634-2.345,2.632-3.674l0.007,2.333c0.002,1.329-0.876,2.661-2.632,3.674l-39.574,22.855
				c-3.489,2.015-9.129,2.014-12.593,0l-7.956-4.702c-1.724-1.002-2.584-2.313-2.589-3.623l-0.007-2.335
				C651.441,427.138,652.302,428.449,654.024,429.447z"/>
			<g>
				<path fill="#FFFFFF" d="M654.067,422.154c-3.491,2.017-3.508,5.281-0.043,7.293l7.959,4.703c3.464,2.017,9.103,2.018,12.593,0
					l39.573-22.854c3.49-2.015,3.511-5.281,0.045-7.295l-7.958-4.702c-3.465-2.017-9.107-2.017-12.597,0.001L654.067,422.154z"/>
			</g>
		</g>
	</g>
</g>
<g>
	<g enable-background="new    ">
		<path fill="#93ACF1" d="M305.522,484.624l-7.957,4.704c-3.463,2.014-9.103,2.016-12.593,0l-39.573-22.854
			c-1.757-1.015-2.634-2.344-2.631-3.674l-0.006,2.332c-0.002,1.328,0.873,2.661,2.63,3.675l39.575,22.854
			c3.489,2.017,9.127,2.016,12.592,0l7.958-4.701c1.722-1.001,2.584-2.312,2.588-3.623l0.007-2.334
			C308.109,482.315,307.246,483.625,305.522,484.624z"/>
		<g>
			<path fill="#FFFFFF" d="M305.482,477.329c3.491,2.018,3.508,5.282,0.041,7.295l-7.957,4.704c-3.463,2.014-9.103,2.016-12.593,0
				l-39.573-22.854c-3.49-2.014-3.509-5.281-0.043-7.297l7.958-4.702c3.464-2.014,9.105-2.014,12.596,0.002L305.482,477.329z"/>
		</g>
	</g>
</g>
<g>
	<g enable-background="new    ">
		<path fill="#93ACF1" d="M322.127,464.521l-7.958,4.704c-3.463,2.012-9.102,2.015-12.592,0l-39.573-22.854
			c-1.756-1.015-2.634-2.347-2.63-3.676l-0.006,2.332c-0.003,1.329,0.873,2.662,2.63,3.677l39.574,22.854
			c3.49,2.015,9.128,2.014,12.593,0l7.958-4.702c1.723-1.002,2.583-2.311,2.587-3.622l0.008-2.334
			C324.713,462.212,323.851,463.52,322.127,464.521z"/>
		<g>
			<path fill="#FFFFFF" d="M322.089,457.226c3.49,2.017,3.505,5.283,0.038,7.295l-7.958,4.704c-3.463,2.012-9.102,2.015-12.592,0
				l-39.573-22.854c-3.49-2.016-3.509-5.282-0.043-7.297l7.957-4.704c3.465-2.012,9.106-2.012,12.597,0.002L322.089,457.226z"/>
		</g>
	</g>
</g>
<g>
	<g enable-background="new    ">
		<path fill="#93ACF1" d="M338.736,444.417l-7.958,4.704c-3.465,2.014-9.104,2.016-12.593,0l-39.574-22.855
			c-1.757-1.015-2.634-2.344-2.63-3.672l-0.006,2.331c-0.004,1.329,0.874,2.661,2.629,3.676l39.574,22.853
			c3.49,2.018,9.129,2.017,12.593,0l7.957-4.703c1.723-0.998,2.585-2.31,2.59-3.622l0.006-2.332
			C341.319,442.107,340.456,443.417,338.736,444.417z"/>
		<g>
			<path fill="#FFFFFF" d="M338.693,437.125c3.49,2.014,3.506,5.279,0.042,7.292l-7.958,4.704c-3.465,2.014-9.104,2.016-12.593,0
				l-39.574-22.855c-3.491-2.014-3.509-5.281-0.044-7.294l7.958-4.706c3.464-2.012,9.106-2.012,12.596,0.005L338.693,437.125z"/>
		</g>
	</g>
</g>
<g>
	<g enable-background="new    ">
		<path fill="#93ACF1" d="M355.34,424.313l-7.959,4.704c-3.464,2.014-9.103,2.015-12.592,0l-39.574-22.855
			c-1.756-1.014-2.633-2.345-2.631-3.672l-0.006,2.332c-0.003,1.328,0.874,2.658,2.63,3.674l39.574,22.854
			c3.491,2.017,9.128,2.015,12.592,0l7.958-4.702c1.723-0.999,2.585-2.311,2.589-3.622l0.005-2.334
			C357.924,422.002,357.062,423.313,355.34,424.313z"/>
		<g>
			<path fill="#FFFFFF" d="M355.299,417.019c3.489,2.016,3.506,5.281,0.041,7.294l-7.959,4.704c-3.464,2.014-9.103,2.015-12.592,0
				l-39.574-22.855c-3.489-2.014-3.508-5.282-0.043-7.295l7.958-4.703c3.466-2.014,9.106-2.014,12.596,0.001L355.299,417.019z"/>
		</g>
	</g>
</g>
<g>
	<g>
		<path fill="#93ACF1" d="M417.857,345.891c-1.778,0-3.554-0.459-5.136-1.384l-23.988-14.012l0.396-0.681l23.989,14.014
			c2.888,1.688,6.488,1.706,9.392,0.048l84.542-47.713c2.958-1.687,4.729-4.727,4.736-8.134c0.011-3.405-1.745-6.455-4.697-8.158
			l-10.757-6.375c-3.188-1.839-5.091-5.139-5.086-8.822c0.005-3.685,1.914-6.978,5.107-8.814l50.554-29.046
			c3.073-1.765,6.771-1.818,9.893-0.14l15.717,8.45l-0.373,0.692l-15.718-8.45c-2.879-1.548-6.292-1.5-9.127,0.128l-50.553,29.047
			c-2.949,1.692-4.712,4.734-4.714,8.132c-0.006,3.4,1.751,6.445,4.696,8.144l10.76,6.376c3.191,1.842,5.093,5.148,5.084,8.838
			c-0.009,3.691-1.928,6.987-5.135,8.814l-84.543,47.715C421.34,345.449,419.598,345.891,417.857,345.891z"/>
	</g>
	<g>
		<g>
			<g enable-background="new    ">
				<path fill="#2A49A7" d="M420.21,331.633L390.204,349c-1.345,0.781-3.55,0.781-4.902,0l-31.322-18.077
					c-0.681-0.394-1.022-0.913-1.02-1.431l-0.002,0.424c-0.001,0.519,0.339,1.038,1.021,1.43l31.322,18.077
					c1.353,0.78,3.558,0.78,4.901,0l30.009-17.364c0.665-0.389,1.002-0.899,1.003-1.41v-0.424
					C421.212,330.737,420.878,331.246,420.21,331.633z"/>
				<g>
					<path fill="#FFFFFF" d="M420.193,328.793c1.353,0.78,1.361,2.061,0.018,2.84L390.204,349c-1.345,0.781-3.55,0.781-4.902,0
						l-31.322-18.077c-1.354-0.783-1.36-2.061-0.017-2.84l30.006-17.367c1.346-0.781,3.553-0.781,4.904,0L420.193,328.793z"/>
				</g>
			</g>
		</g>
		<g>
			<path fill="#2A49A7" d="M411.511,327.038v3.208c0.001,0.393-0.253,0.783-0.768,1.078l-21.546,12.436
				c-1.021,0.589-2.688,0.586-3.706-0.009l-22.069-12.82c-0.484-0.284-0.738-0.651-0.758-1.022c-0.004,0-0.004-3.275-0.004-3.275
				L411.511,327.038z"/>
			<g>
				<path fill="#93ACF1" d="M410.851,328.297l-21.543,12.437c-0.525,0.3-1.22,0.468-1.954,0.468c-0.746,0-1.444-0.171-1.974-0.479
					l-22.068-12.824c-0.284-0.165-0.504-0.362-0.651-0.581v-0.685c0,0.393,0.253,0.781,0.762,1.079l22.069,12.823
					c0.51,0.298,1.187,0.447,1.862,0.447c0.668,0,1.335-0.146,1.844-0.438l21.546-12.437c0.51-0.293,0.766-0.683,0.768-1.071v0.677
					C411.363,327.933,411.141,328.131,410.851,328.297z"/>
			</g>
			<path fill="#3C6BEB" d="M385.492,340.536c1.018,0.594,2.685,0.597,3.706,0.01l21.546-12.437c1.021-0.589,1.022-1.558,0.005-2.15
				l-22.067-12.825c-1.018-0.594-2.687-0.596-3.708-0.007l-21.545,12.434c-1.022,0.591-1.024,1.558-0.006,2.152L385.492,340.536z"/>
		</g>
	</g>
	<g>
		<g>
			<g enable-background="new    ">
				<path fill="#2A49A7" d="M636.075,239.202l-30.009,17.368c-1.342,0.779-3.549,0.779-4.901,0l-31.323-18.078
					c-0.681-0.393-1.018-0.912-1.018-1.429v0.422c-0.003,0.52,0.337,1.038,1.018,1.431l31.323,18.078
					c1.351,0.782,3.557,0.782,4.901,0l30.007-17.366c0.669-0.387,1.002-0.898,1.003-1.41l0.001-0.424
					C637.076,238.305,636.742,238.816,636.075,239.202z"/>
				<g>
					<path fill="#FFFFFF" d="M636.059,236.364c1.351,0.78,1.358,2.058,0.016,2.841l-30.009,17.365c-1.342,0.779-3.549,0.779-4.901,0
						l-31.323-18.078c-1.352-0.781-1.359-2.058-0.016-2.841l30.008-17.365c1.343-0.781,3.55-0.781,4.902,0L636.059,236.364z"/>
				</g>
			</g>
		</g>
		<g>
			<path fill="#2A49A7" d="M627.375,229.895v7.921c0,0.392-0.255,0.782-0.769,1.08l-21.545,12.434
				c-1.02,0.589-2.69,0.586-3.708-0.008l-22.067-12.824c-0.486-0.283-0.737-0.65-0.76-1.021c-0.001-0.001-0.001-7.987-0.001-7.987
				L627.375,229.895z"/>
			<g>
				<path fill="#93ACF1" d="M626.717,231.153l-21.546,12.434c-0.524,0.303-1.218,0.47-1.953,0.47c-0.746,0-1.447-0.17-1.973-0.478
					l-22.068-12.822c-0.287-0.167-0.506-0.365-0.651-0.582v-0.684c-0.002,0.39,0.252,0.78,0.761,1.076l22.067,12.823
					c0.513,0.298,1.187,0.448,1.864,0.448c0.667,0,1.335-0.147,1.844-0.44l21.545-12.435c0.51-0.293,0.766-0.68,0.769-1.07v0.674
					C627.228,230.788,627.005,230.987,626.717,231.153z"/>
			</g>
			<path fill="#3C6BEB" d="M601.354,243.392c1.018,0.594,2.688,0.598,3.708,0.008l21.545-12.435c1.021-0.589,1.026-1.557,0.005-2.15
				l-22.067-12.823c-1.019-0.593-2.686-0.597-3.706-0.007l-21.547,12.435c-1.021,0.589-1.022,1.557-0.005,2.15L601.354,243.392z"/>
		</g>
	</g>
</g>
<g>
	<g>
		<path fill="#CDDAEC" d="M600.634,150.779c0.002-3.455-0.137-9.888-2.786-9.955c-2.648-0.066-4.687,2.662-4.51,9.58
			c0.097,3.755-0.187,9.091,0.485,12.157c0.565,2.582,1.993,3.225,3.031,3.264C599.123,165.909,600.629,155.366,600.634,150.779z"/>
		<path fill="#93ACF1" d="M595.066,174.237c0,0,0.451,1.771-0.378,5c-0.827,3.229-1.504,4.353-3.214,4.896
			c-1.71,0.542-2.049-0.954-1.666-2.286c0.378-1.333,0.358-1.677,0.358-1.677s-0.752,1.832-1.396,1.794
			c-0.646-0.037-0.021-1.81,1.134-3.75c1.155-1.941,1.882-2.935,1.882-2.935L595.066,174.237z"/>
		<path fill="#CDDAEC" d="M599.442,157.419c0,0-1.61,16.133-4.163,20.507c-0.413,0.705-3.73,0.499-4.671-1.134
			c0.097-0.812,0.902-5.902,2.124-11.829c1.223-5.926,1.902-8.944,1.902-8.944S599.295,153.729,599.442,157.419z"/>
	</g>
	<path opacity="0.2" fill="#2848A6" d="M615.744,237.139c-6.821,3.929-17.921,3.896-24.795-0.071
		c-6.87-3.968-6.914-10.369-0.092-14.296c6.82-3.928,17.921-3.896,24.793,0.072C622.523,226.811,622.565,233.211,615.744,237.139z"
		/>
	<g>
		<path fill="#CDDAEC" d="M615.587,230.214c0,0,1.918,0.281,2.326,2.151c0.404,1.873-7.831,7.176-12.229,6.146
			c-4.399-1.03,3.336-6.564,5.771-7.362C613.89,230.352,615.587,230.214,615.587,230.214z"/>
		<path fill="#CDDAEC" d="M600.453,221.204c0,0,1.922,0.281,2.326,2.152c0.406,1.873-7.828,7.175-12.229,6.146
			c-4.399-1.029,3.336-6.563,5.773-7.362C598.755,221.341,600.453,221.204,600.453,221.204z"/>
		<path fill="#93ACF1" d="M614.966,179.816l-0.111,29.553c0,0,1.396,19.686,1.396,20.983c0,2.977-4.925,3.343-5.108,2.088
			c-0.183-1.258-4.309-25.349-4.309-25.349l-2.421-19.261l-1.621,15.124c0,0-1.752,16.352-1.883,18.676
			c-0.131,2.325-4.901,4.035-4.901,2.072c0-1.961-1.438-48.018-1.438-48.018L614.966,179.816z"/>
		<path fill="#E8ECFD" d="M613.599,146.131c0,0-13.152-6.903-16.494-5.219c-3.34,1.686-3.245,3.851-3.435,12.333
			c-0.188,8.479,0.942,22.99,0.942,22.99s6.785,5.183,12.721,5.183c5.937,0,7.633-1.602,7.633-1.602
			S618.626,148.533,613.599,146.131z"/>
		<path fill="#CDDAEC" d="M617.196,156.039c-0.41-3.43-1.318-9.798-3.959-9.548c-2.636,0.251-4.332,3.203-3.328,10.051
			c0.545,3.718,0.906,9.048,1.939,12.012c0.873,2.495,2.366,2.963,3.401,2.876C617.51,171.241,617.739,160.595,617.196,156.039z"/>
		<path fill="#CDDAEC" d="M615.338,171.439c0,0-7.812,2.6-12.833,1.935c-0.81-0.108-1.9-3.247-0.759-4.747
			c0.785-0.223,5.792-1.448,11.729-2.61c2.004-0.216,3.812-0.801,3.812-0.801S617.125,170.935,615.338,171.439z"/>
		<path fill="#93ACF1" d="M607.756,137.414v6.267c0,0-1.083,2.308-3.72,1.791c-2.639-0.519-3.111-3.627-2.734-5.276
			C601.68,138.546,607.756,137.414,607.756,137.414z"/>
		<path fill="#93ACF1" d="M596.027,130.517c0,0-1.069,10.239,4.586,11.244c5.653,1.005,8.416-3.706,8.605-8.794
			C609.784,126.496,597.848,120.34,596.027,130.517z"/>
		<path fill="#254284" d="M607.756,139.443c0,0-0.992-5.251-2.237-6.854c-1.249-1.602-1.249-2.073-1.249-2.073
			s-3.109,2.355-5.982,1.696c-2.874-0.659-3.802-2.543-3.331-4.474c0.47-1.933,5.343-4.29,7.635-4.29
			c2.291,0,7.853,2.073,7.853,8.623C610.773,136.453,607.756,139.443,607.756,139.443z"/>
		<path fill="#93ACF1" d="M605.952,134.474c0,0,1.001-2.612,2.01-0.97c1.008,1.643-0.222,3.043-1.004,3.828
			C606.171,138.117,604.82,136.296,605.952,134.474z"/>
		<path fill="#93ACF1" d="M603.457,172.479c0,0,0.512-1.037-0.063-3.48c-0.575-2.444-1.132-3.426-2.66-4.362
			c-1.529-0.937-1.924-0.045-1.652,0.976c0.275,1.022,0.237,1.246,0.237,1.246s-0.57-0.804-0.97-0.671
			c-0.399,0.131-0.325,0.206,0.621,1.896c0.947,1.69,0.903,1.89,2.191,3.637C602.449,173.468,603.457,172.479,603.457,172.479z"/>
	</g>
</g>
<g>
	<g>
		<g enable-background="new    ">
			<path fill="#2A49A7" d="M455.514,250.942l-30.009,17.366c-1.344,0.781-3.551,0.781-4.902,0l-31.323-18.078
				c-0.681-0.394-1.019-0.911-1.018-1.429l-0.001,0.423c-0.002,0.52,0.338,1.037,1.019,1.43l31.322,18.079
				c1.352,0.78,3.56,0.78,4.903,0l30.007-17.368c0.666-0.388,1-0.898,1.001-1.41l0.001-0.423
				C456.513,250.043,456.18,250.556,455.514,250.942z"/>
			<g>
				<path fill="#FFFFFF" d="M455.497,248.104c1.352,0.781,1.36,2.059,0.018,2.839l-30.009,17.366c-1.344,0.781-3.551,0.781-4.902,0
					l-31.323-18.078c-1.353-0.781-1.36-2.058-0.016-2.84l30.006-17.365c1.344-0.781,3.551-0.781,4.903,0L455.497,248.104z"/>
			</g>
		</g>
	</g>
	<g>
		<path fill="#2A49A7" d="M446.812,246.347v3.209c0,0.391-0.253,0.781-0.767,1.078l-21.544,12.435
			c-1.021,0.588-2.69,0.586-3.709-0.009l-22.069-12.822c-0.482-0.282-0.736-0.649-0.758-1.021c-0.002-0.001-0.002-3.276-0.002-3.276
			L446.812,246.347z"/>
		<g>
			<path fill="#93ACF1" d="M446.155,247.605l-21.546,12.434c-0.523,0.304-1.219,0.47-1.953,0.47c-0.744,0-1.446-0.17-1.973-0.476
				l-22.068-12.823c-0.286-0.168-0.506-0.364-0.651-0.582v-0.685c-0.002,0.39,0.253,0.78,0.76,1.077l22.069,12.822
				c0.511,0.299,1.186,0.448,1.863,0.448c0.668,0,1.336-0.146,1.846-0.441l21.544-12.434c0.511-0.294,0.765-0.681,0.767-1.07v0.674
				C446.666,247.24,446.443,247.439,446.155,247.605z"/>
		</g>
		<path fill="#3C6BEB" d="M420.792,259.843c1.019,0.595,2.688,0.599,3.709,0.007l21.544-12.434c1.021-0.589,1.023-1.557,0.005-2.152
			l-22.067-12.822c-1.019-0.593-2.688-0.599-3.706-0.008l-21.548,12.436c-1.021,0.588-1.023,1.557-0.006,2.15L420.792,259.843z"/>
	</g>
</g>
<g>
	
		<rect x="541.899" y="332.457" transform="matrix(0.8528 0.5223 -0.5223 0.8528 257.5601 -247.1573)" fill="#678EEA" width="50.58" height="1.651"/>
</g>
<g>
	<g>
		<g enable-background="new    ">
			<path fill="#2A49A7" d="M626.442,354.262l-30.007,17.364c-1.344,0.782-3.552,0.782-4.904,0l-31.32-18.077
				c-0.682-0.393-1.021-0.91-1.021-1.429l-0.001,0.425c-0.001,0.517,0.338,1.036,1.02,1.429l31.321,18.078
				c1.354,0.779,3.56,0.779,4.904,0l30.007-17.365c0.666-0.39,1.001-0.9,1.004-1.411l0.001-0.425
				C627.445,353.363,627.108,353.874,626.442,354.262z"/>
			<g>
				<path fill="#FFFFFF" d="M626.425,351.423c1.353,0.778,1.36,2.059,0.017,2.839l-30.007,17.364c-1.344,0.782-3.552,0.782-4.904,0
					l-31.32-18.077c-1.354-0.78-1.36-2.058-0.017-2.838l30.007-17.366c1.343-0.781,3.549-0.781,4.902,0L626.425,351.423z"/>
			</g>
		</g>
	</g>
	<g>
		<path fill="#2A49A7" d="M617.743,344.953v7.922c0.001,0.392-0.256,0.781-0.769,1.077l-21.545,12.436
			c-1.021,0.589-2.689,0.585-3.709-0.009l-22.065-12.823c-0.486-0.282-0.739-0.649-0.763-1.021
			c-0.001-0.002-0.001-7.987-0.001-7.987L617.743,344.953z"/>
		<g>
			<path fill="#93ACF1" d="M617.083,346.213l-21.546,12.435c-0.523,0.301-1.218,0.468-1.954,0.468c-0.743,0-1.442-0.17-1.973-0.479
				l-22.067-12.82c-0.284-0.167-0.507-0.366-0.652-0.583v-0.683c-0.001,0.39,0.253,0.778,0.764,1.076l22.065,12.824
				c0.513,0.297,1.189,0.446,1.863,0.446c0.669,0,1.338-0.147,1.846-0.438l21.545-12.436c0.511-0.296,0.765-0.683,0.769-1.071v0.676
				C617.593,345.848,617.373,346.044,617.083,346.213z"/>
		</g>
		<path fill="#3C6BEB" d="M591.72,358.452c1.02,0.593,2.688,0.595,3.709,0.008l21.545-12.436c1.023-0.59,1.024-1.559,0.007-2.151
			l-22.069-12.823c-1.019-0.595-2.686-0.598-3.707-0.007l-21.547,12.434c-1.021,0.589-1.021,1.557-0.003,2.151L591.72,358.452z"/>
	</g>
</g>
<g>
	<g>
		<path fill="#345CB8" d="M427.274,164.711c-0.004-3.455,0.135-9.888,2.784-9.954c2.649-0.067,4.686,2.661,4.511,9.578
			c-0.096,3.756,0.185,9.091-0.487,12.157c-0.565,2.582-1.993,3.225-3.03,3.264C428.784,179.841,427.28,169.299,427.274,164.711z"/>
		<path fill="#93ACF1" d="M432.841,188.168c0,0-0.454,1.772,0.376,5.002c0.827,3.229,1.507,4.353,3.213,4.895
			c1.71,0.543,2.052-0.953,1.671-2.285c-0.383-1.333-0.361-1.678-0.361-1.678s0.751,1.832,1.396,1.794
			c0.646-0.037,0.022-1.81-1.134-3.75c-1.156-1.941-1.879-2.936-1.879-2.936L432.841,188.168z"/>
		<path fill="#345CB8" d="M428.464,171.351c0,0,1.609,16.133,4.163,20.506c0.413,0.705,3.729,0.498,4.672-1.134
			c-0.1-0.811-0.902-5.901-2.126-11.829c-1.22-5.925-1.901-8.944-1.901-8.944S428.61,167.661,428.464,171.351z"/>
	</g>
	<path opacity="0.2" fill="#2848A6" d="M409.161,252.934c6.766,3.889,17.783,3.845,24.606-0.095
		c6.827-3.94,6.873-10.285,0.106-14.173c-6.765-3.888-17.781-3.845-24.606,0.095C402.444,242.701,402.395,249.046,409.161,252.934z"
		/>
	<g>
		<path fill="#2A49A7" d="M412.319,244.146c0,0-1.919,0.283-2.325,2.153c-0.406,1.872,7.829,7.174,12.229,6.145
			c4.396-1.029-3.339-6.563-5.771-7.361C414.015,244.284,412.319,244.146,412.319,244.146z"/>
		<path fill="#2A49A7" d="M427.453,235.135c0,0-1.92,0.283-2.324,2.153c-0.407,1.873,7.829,7.175,12.229,6.146
			c4.396-1.031-3.339-6.564-5.771-7.362C429.149,235.274,427.453,235.135,427.453,235.135z"/>
		<linearGradient id="SVGID_1_" gradientUnits="userSpaceOnUse" x1="423.0952" y1="195.4536" x2="421.6552" y2="238.6521">
			<stop  offset="0" style="stop-color:#CDD9ED"/>
			<stop  offset="1" style="stop-color:#93ACF1"/>
		</linearGradient>
		<path fill="url(#SVGID_1_)" d="M412.941,193.749l0.11,29.553c0,0-1.397,19.688-1.397,20.983c0,2.978,4.927,3.343,5.109,2.085
			c0.185-1.257,4.308-25.347,4.308-25.347l2.422-19.262l1.62,15.124c0,0,1.754,16.353,1.886,18.676
			c0.132,2.326,4.899,4.037,4.899,2.075c0-1.963,1.437-48.02,1.437-48.02L412.941,193.749z"/>
		<path fill="#3C6BEB" d="M414.308,160.062c0,0,13.153-6.9,16.493-5.217c3.341,1.684,3.246,3.852,3.433,12.331
			c0.189,8.481-0.941,22.992-0.941,22.992s-6.782,5.182-12.719,5.182c-5.938,0-7.633-1.602-7.633-1.602
			S409.281,162.465,414.308,160.062z"/>
		<path fill="#345CB8" d="M410.711,169.972c0.411-3.43,1.318-9.8,3.957-9.548s4.333,3.204,3.328,10.05
			c-0.545,3.718-0.905,9.047-1.94,12.012c-0.869,2.495-2.364,2.962-3.397,2.876C410.396,185.173,410.166,174.527,410.711,169.972z"
			/>
		<path fill="#93ACF1" d="M413.425,193.929c0,0-0.66,1.704-0.227,5.011c0.437,3.305,0.974,4.5,2.605,5.245s2.148-0.702,1.931-2.069
			c-0.219-1.369-0.156-1.709-0.156-1.709s0.566,0.934,1.025,0.583c0.459-0.349,0.384-0.427-0.53-2.494
			c-0.914-2.065-1.516-3.139-1.516-3.139L413.425,193.929z"/>
		<path fill="#345CB8" d="M411.098,176.707c0,0-0.338,16.209,1.672,20.858c0.326,0.749,3.644,0.941,4.776-0.566
			c0-0.816-0.188-5.967-0.693-11.998c-0.501-6.031-0.815-9.108-0.815-9.108S411.683,173.062,411.098,176.707z"/>
		<path fill="#93ACF1" d="M420.148,151.347v6.266c0,0,1.084,2.309,3.723,1.792c2.64-0.519,3.11-3.628,2.731-5.278
			C426.227,152.478,420.148,151.347,420.148,151.347z"/>
		<path fill="#93ACF1" d="M431.88,144.449c0,0,1.067,10.239-4.585,11.244c-5.654,1.004-8.418-3.707-8.607-8.795
			C418.124,140.429,430.058,134.272,431.88,144.449z"/>
		<path fill="#2A49A7" d="M420.148,153.375c0,0,0.993-5.251,2.24-6.854c1.247-1.601,1.247-2.073,1.247-2.073s3.11,2.356,5.983,1.696
			c2.875-0.659,3.803-2.543,3.331-4.475c-0.472-1.933-5.344-4.289-7.637-4.289c-2.291,0-7.85,2.074-7.85,8.622
			C417.134,150.386,420.148,153.375,420.148,153.375z"/>
		<path fill="#93ACF1" d="M421.955,148.406c0,0-1.001-2.611-2.008-0.969c-1.012,1.642,0.218,3.043,1.004,3.828
			C421.735,152.05,423.085,150.228,421.955,148.406z"/>
	</g>
</g>
<g>
	<path opacity="0.2" fill="#2848A6" d="M583.438,348.712c5.284,3.05,13.88,3.036,19.198-0.035c5.316-3.069,5.342-8.032,0.058-11.083
		s-13.876-3.036-19.195,0.036C578.18,340.698,578.153,345.661,583.438,348.712z"/>
	<path fill="#93ACF1" d="M589.217,232.651c0,0-2.363,1.178-2.363,6.325c0,5.147,0.515,8.873,2.646,9.621
		C591.634,249.346,589.217,232.651,589.217,232.651z"/>
	<path fill="#93ACF1" d="M597.196,334.245c0.125-4.824-0.673-14.151-0.673-14.151l-0.368-10.001l-1.471-19.857
		c0,0-0.053,0.448-0.142,1.203c-0.063-0.673-0.151-1.347-0.263-2.015c-0.336-2.021-0.923-3.981-1.686-5.88h11.328
		c0.053,1.607-0.14,3.102-0.632,4.265c-1.614,3.823-2.062,12.724-2.062,17.137c0,4.411,1.194,7.549,1.271,11.299
		c0.071,3.752-0.608,8.408-1.123,10.982c-0.515,2.575-0.012,7.726,0.111,9.231c0.12,1.505-13.054,8.348-8.079,2.182
		C593.622,338.375,597.196,334.245,597.196,334.245z"/>
	<g>
		<path fill="#2A49A7" d="M593.333,338.639c0,0-3.357,0.241-2.229,1.565c1.129,1.323,2.528,2.793,4.438,2.941
			c1.912,0.147,3.666-1.987,5.033-2.723c1.365-0.734,2.026-1.322,1.807-2.425c-0.222-1.104,0.042-3.123-2.427-2.134
			c-1.82,0.73-1.667,2.895-2.206,3.164C596.215,339.794,590.873,341.552,593.333,338.639z"/>
		<path fill="#2A49A7" d="M602.253,339.084c0,0-0.655,0.312-0.889,2.001c-0.232,1.692,0,3.311,0,3.311h-1.629v-4.926
			L602.253,339.084z"/>
	</g>
	<path fill="#93ACF1" d="M586.447,343.04c0.662,0.073,3.017-4.78,3.017-4.78l-0.882-16.988c0,0-0.416-8.359-1.031-10.812
		c-6.545-21.18-0.146-35.595,0.367-39.197c0.518-3.606-1.838-5.885-2.424-9.782c-0.591-3.898,3.088-8.458,3.088-8.458
		s8.016-5.149,13.604-4.339c5.591,0.808,1.177,11.179,0.074,13.532c-1.103,2.353-2.574,7.5-1.911,10.957
		c2.868,3.457,4.486,10.812,2.871,14.635c-1.087,2.573-1.646,7.439-1.894,11.693h-5.354v0.735h-0.622l-0.739-10.002
		c0,0-1.163,15.764-1.09,18.045c0.073,2.279,1.176,8.49,1.176,11.948c0,3.455-0.749,7.661-0.819,9.939
		c-0.076,2.281-0.296,6.326-0.296,6.326l0.325,5.883c0,0-2.165-0.441-2.312,0.148c-0.147,0.588-1.69,3.529-1.69,3.529h-2.574
		c0,0-1.911-2.133-2.707-2.206C583.828,343.774,585.785,342.966,586.447,343.04z"/>
	<path fill="#93ACF1" d="M604.613,250.936c0,0-0.171-2.186-2.189-1.763c-2.019,0.423-3.714,3.329-3.688,8.912
		c0.025,5.585,0.417,11,0.675,11.427c0.259,0.427,3.172,5.672,3.99,0.313C604.221,264.466,605.605,255.222,604.613,250.936z"/>
	<path fill="#CDDAEC" d="M601.067,281.367c0,0,0.313,1.207-0.25,3.409c-0.562,2.204-1.021,2.97-2.185,3.342
		c-1.166,0.371-1.399-0.648-1.141-1.556c0.26-0.908,0.242-1.145,0.242-1.145s-0.459,0.586-0.741,0.312
		c-0.281-0.272-0.223-0.32,0.563-1.646c0.784-1.324,1.277-2,1.277-2L601.067,281.367z"/>
	<path fill="#93ACF1" d="M598.999,270.085l-0.9,13.477c0,0,0.535,1.565,2.47,0.132c1.934-1.434,2.861-14.779,2.861-14.779
		S599.929,265.021,598.999,270.085z"/>
	
		<linearGradient id="SVGID_2_" gradientUnits="userSpaceOnUse" x1="669.6968" y1="264.3052" x2="689.2241" y2="264.3052" gradientTransform="matrix(1 0 0 1 -84.2676 0)">
		<stop  offset="0" style="stop-color:#CDD9ED"/>
		<stop  offset="1" style="stop-color:#B0C3EF"/>
	</linearGradient>
	<path fill="url(#SVGID_2_)" d="M602.185,248.684c-5.588-0.81-13.604,4.339-13.604,4.339s-3.679,4.559-3.088,8.458
		c0.586,3.896,2.941,6.176,2.424,9.782c-0.197,1.388-1.268,4.381-2.138,8.75h17.612c-0.583-2.631-1.67-5.185-3.044-6.84
		c-0.663-3.457,0.809-8.604,1.911-10.957C603.362,259.863,607.776,249.492,602.185,248.684z"/>
	
		<linearGradient id="SVGID_3_" gradientUnits="userSpaceOnUse" x1="677.7505" y1="276.4136" x2="679.0596" y2="310.7108" gradientTransform="matrix(1 0 0 1 -84.2676 0)">
		<stop  offset="0" style="stop-color:#3C6BEB"/>
		<stop  offset="1" style="stop-color:#2A49A7"/>
	</linearGradient>
	<path fill="url(#SVGID_3_)" d="M587.008,274.864c0,0,0.762,2.647,4.808,2.429c4.045-0.221,8.532-4.12,8.532-4.12
		s3.91,3.824,3.896,10.151c-0.007,4.595-3.5,15.708-2.499,22.797c-2.206,2.942-6.545,5.147-10.223,5.295
		c-3.677,0.147-5.812-2.941-5.812-2.941s-2.646-11.031-2.057-20.37C584.241,278.763,586.478,276.797,587.008,274.864z"/>
	<g>
		<path fill="#2A49A7" d="M586.665,342.944c0,0-3.358,0.242-2.228,1.565c1.127,1.324,2.526,2.796,4.438,2.941
			c1.911,0.146,3.666-1.984,5.032-2.72c1.367-0.736,2.03-1.324,1.809-2.428c-0.222-1.102-0.516-2.574-2.429-2.132
			c-1.91,0.439-1.666,2.891-2.206,3.162C589.545,344.1,584.205,345.857,586.665,342.944z"/>
		<path fill="#2A49A7" d="M595.583,343.39c0,0-0.655,0.312-0.887,2.001c-0.232,1.693,0,3.312,0,3.312h-1.632v-4.929L595.583,343.39z
			"/>
	</g>
	<g>
		<g>
			
				<linearGradient id="SVGID_4_" gradientUnits="userSpaceOnUse" x1="657.6948" y1="264.1221" x2="673.1572" y2="263.0421" gradientTransform="matrix(1 0 0 1 -84.2676 0)">
				<stop  offset="0" style="stop-color:#CDD9ED"/>
				<stop  offset="1" style="stop-color:#B0C3EF"/>
			</linearGradient>
			<path fill="url(#SVGID_4_)" d="M591.07,255.354c0,0,0.609-2.105-1.431-2.42c-2.037-0.313-4.647,1.811-6.584,7.048
				c-1.938,5.237-3.476,10.444-3.382,10.935c0.091,0.492-0.007,4.733,3.626,1.695C587.457,269.133,590.494,259.712,591.07,255.354z"
				/>
			<path fill="#93ACF1" d="M573.665,261.878c0,0-0.895-0.969-1.476-3.301s-0.535-3.276,0.363-4.206
				c0.899-0.931,1.628-0.099,1.841,0.877c0.214,0.974,0.347,1.188,0.347,1.188s0.134-0.777,0.536-0.663
				c0.399,0.112,0.368,0.186,0.299,1.813c-0.067,1.627-0.185,2.506-0.185,2.506L573.665,261.878z"/>
			
				<linearGradient id="SVGID_5_" gradientUnits="userSpaceOnUse" x1="657.8618" y1="266.541" x2="673.3248" y2="265.4611" gradientTransform="matrix(1 0 0 1 -84.2676 0)">
				<stop  offset="0" style="stop-color:#CDD9ED"/>
				<stop  offset="1" style="stop-color:#B0C3EF"/>
			</linearGradient>
			<path fill="url(#SVGID_5_)" d="M583.34,270.251l-8.102-10.81c0,0-1.427-0.836-1.958,1.511
				c-0.533,2.348,6.984,12.296,6.984,12.296S583.987,271.75,583.34,270.251z"/>
		</g>
	</g>
	<path fill="#2A49A7" d="M587.699,233.68c0,0,2.868-2.5,6.69-2.426c3.826,0.074,8.092,1.912,8.458,9.045
		c0.369,7.133,0.141,19.874,0.141,19.874s-5.809,3.327-9.045,2.729c-3.237-0.597-5.327-2.366-5.327-2.366
		S589.243,237.947,587.699,233.68z"/>
</g>
<g>
	<path opacity="0.2" fill="#2848A6" d="M394.518,331.158c-5.285,3.051-13.879,3.033-19.195-0.034
		c-5.317-3.071-5.346-8.032-0.063-11.083c5.286-3.053,13.881-3.036,19.198,0.036C399.777,323.144,399.802,328.108,394.518,331.158z"
		/>
	<path fill="#93ACF1" d="M388.738,215.097c0,0,2.365,1.177,2.365,6.325c0,5.147-0.516,8.874-2.647,9.622
		C386.323,231.792,388.738,215.097,388.738,215.097z"/>
	<path fill="#93ACF1" d="M380.762,316.691c-0.128-4.824,0.671-14.151,0.671-14.151l0.366-10.003l1.473-19.855
		c0,0,0.053,0.444,0.14,1.202c0.066-0.672,0.153-1.345,0.265-2.015c0.335-2.019,0.923-3.982,1.687-5.881h-11.329
		c-0.053,1.61,0.14,3.103,0.631,4.268c1.614,3.823,2.063,12.722,2.063,17.135c0,4.412-1.196,7.55-1.269,11.3
		c-0.074,3.752,0.606,8.408,1.121,10.983c0.514,2.575,0.009,7.725-0.111,9.229c-0.121,1.504,13.055,8.347,8.079,2.182
		C384.333,320.821,380.762,316.691,380.762,316.691z"/>
	<g>
		<path fill="#2A49A7" d="M384.622,321.084c0,0,3.358,0.24,2.229,1.564s-2.526,2.796-4.438,2.941
			c-1.913,0.147-3.667-1.985-5.033-2.721c-1.365-0.734-2.027-1.323-1.808-2.427c0.222-1.103-0.042-3.123,2.428-2.133
			c1.821,0.731,1.669,2.895,2.206,3.164C381.741,322.241,387.083,323.998,384.622,321.084z"/>
		<path fill="#2A49A7" d="M375.703,321.531c0,0,0.655,0.312,0.887,2c0.232,1.693,0,3.311,0,3.311h1.631v-4.926L375.703,321.531z"/>
	</g>
	<path fill="#93ACF1" d="M391.508,325.485c-0.661,0.071-3.016-4.781-3.016-4.781l0.883-16.987c0,0,0.415-8.36,1.03-10.813
		c6.545-21.18,0.146-35.594-0.369-39.196c-0.513-3.604,1.84-5.885,2.429-9.783c0.589-3.897-3.09-8.457-3.09-8.457
		s-8.017-5.148-13.605-4.339c-5.59,0.81-1.177,11.179-0.074,13.531c1.104,2.355,2.575,7.503,1.914,10.959
		c-2.871,3.457-4.486,10.811-2.872,14.636c1.087,2.573,1.645,7.438,1.893,11.693h5.353v0.734h0.621l0.742-10.001
		c0,0,1.163,15.765,1.088,18.043c-0.072,2.28-1.173,8.491-1.173,11.948c0,3.455,0.746,7.661,0.818,9.942
		c0.074,2.28,0.295,6.325,0.295,6.325l-0.325,5.881c0,0,2.164-0.439,2.311,0.15c0.147,0.585,1.692,3.527,1.692,3.527h2.573
		c0,0,1.911-2.13,2.708-2.205C394.128,326.22,392.169,325.412,391.508,325.485z"/>
	<path fill="#93ACF1" d="M373.345,233.382c0,0,0.17-2.185,2.187-1.762c2.021,0.422,3.713,3.327,3.688,8.913
		c-0.021,5.583-0.415,10.999-0.673,11.427c-0.258,0.427-3.174,5.671-3.992,0.313C373.734,246.912,372.353,237.666,373.345,233.382z"
		/>
	<path fill="#CDDAEC" d="M376.888,263.815c0,0-0.311,1.205,0.251,3.408c0.561,2.201,1.021,2.969,2.186,3.338
		c1.166,0.374,1.398-0.646,1.14-1.553c-0.259-0.911-0.244-1.146-0.244-1.146s0.46,0.586,0.742,0.313
		c0.282-0.274,0.224-0.32-0.562-1.645c-0.785-1.324-1.277-2.003-1.277-2.003L376.888,263.815z"/>
	<path fill="#93ACF1" d="M378.956,252.531l0.903,13.477c0,0-0.537,1.563-2.471,0.131c-1.934-1.434-2.862-14.777-2.862-14.777
		S378.025,247.468,378.956,252.531z"/>
	
		<linearGradient id="SVGID_6_" gradientUnits="userSpaceOnUse" x1="-11922.3984" y1="246.7505" x2="-11902.8682" y2="246.7505" gradientTransform="matrix(-1 0 0 1 -11529.8691 0)">
		<stop  offset="0" style="stop-color:#CDD9ED"/>
		<stop  offset="1" style="stop-color:#B0C3EF"/>
	</linearGradient>
	<path fill="url(#SVGID_6_)" d="M375.77,231.129c5.589-0.809,13.605,4.339,13.605,4.339s3.679,4.56,3.09,8.457
		c-0.589,3.898-2.941,6.179-2.429,9.783c0.198,1.386,1.272,4.382,2.14,8.75h-17.612c0.582-2.629,1.67-5.183,3.046-6.838
		c0.661-3.456-0.811-8.604-1.914-10.959C374.593,242.308,370.18,231.938,375.77,231.129z"/>
	
		<linearGradient id="SVGID_7_" gradientUnits="userSpaceOnUse" x1="-11914.3418" y1="258.8594" x2="-11913.0332" y2="293.1549" gradientTransform="matrix(-1 0 0 1 -11529.8691 0)">
		<stop  offset="0" style="stop-color:#3C6BEB"/>
		<stop  offset="1" style="stop-color:#2A49A7"/>
	</linearGradient>
	<path fill="url(#SVGID_7_)" d="M390.949,257.309c0,0-0.764,2.649-4.811,2.428c-4.044-0.222-8.528-4.118-8.528-4.118
		s-3.911,3.824-3.899,10.148c0.009,4.599,3.502,15.709,2.501,22.799c2.206,2.941,6.546,5.146,10.223,5.293
		c3.677,0.148,5.81-2.94,5.81-2.94s2.648-11.031,2.061-20.371C393.714,261.208,391.478,259.243,390.949,257.309z"/>
	<g>
		<path fill="#2A49A7" d="M391.292,325.391c0,0,3.358,0.239,2.229,1.564c-1.129,1.324-2.526,2.796-4.44,2.941
			c-1.91,0.148-3.663-1.984-5.03-2.72c-1.365-0.735-2.028-1.325-1.808-2.428c0.22-1.104,0.516-2.574,2.427-2.134
			c1.912,0.441,1.668,2.894,2.205,3.162C388.41,326.545,393.751,328.303,391.292,325.391z"/>
		<path fill="#2A49A7" d="M382.373,325.835c0,0,0.655,0.312,0.889,2.001c0.231,1.693,0,3.312,0,3.312h1.629v-4.928L382.373,325.835z
			"/>
	</g>
	<path fill="#2A49A7" d="M390.257,216.127c0,0-2.868-2.501-6.691-2.428c-3.825,0.075-8.091,1.914-8.458,9.047
		c-0.369,7.133,1.251,9.781,1.251,9.781s5.811,3.326,9.046,2.729c3.235-0.597,5.325-2.364,5.325-2.364
		S388.713,220.393,390.257,216.127z"/>
	<g>
		<g>
			
				<linearGradient id="SVGID_8_" gradientUnits="userSpaceOnUse" x1="-11934.3975" y1="246.5684" x2="-11918.9365" y2="245.4886" gradientTransform="matrix(-1 0 0 1 -11529.8691 0)">
				<stop  offset="0" style="stop-color:#CDD9ED"/>
				<stop  offset="1" style="stop-color:#B0C3EF"/>
			</linearGradient>
			<path fill="url(#SVGID_8_)" d="M386.888,237.799c0,0-0.611-2.106,1.43-2.418c2.038-0.315,4.645,1.809,6.584,7.047
				c1.938,5.237,3.475,10.444,3.381,10.935c-0.09,0.49,0.007,4.734-3.627,1.695C390.5,251.579,387.464,242.159,386.888,237.799z"/>
			<path fill="#93ACF1" d="M404.291,244.324c0,0,0.895-0.968,1.475-3.3c0.581-2.333,0.537-3.278-0.361-4.208
				c-0.899-0.929-1.628-0.097-1.841,0.878c-0.214,0.975-0.346,1.188-0.346,1.188s-0.136-0.776-0.535-0.664
				c-0.399,0.114-0.37,0.188-0.302,1.815c0.067,1.627,0.188,2.504,0.188,2.504L404.291,244.324z"/>
			
				<linearGradient id="SVGID_9_" gradientUnits="userSpaceOnUse" x1="-11934.2305" y1="248.9858" x2="-11918.7705" y2="247.9061" gradientTransform="matrix(-1 0 0 1 -11529.8691 0)">
				<stop  offset="0" style="stop-color:#CDD9ED"/>
				<stop  offset="1" style="stop-color:#B0C3EF"/>
			</linearGradient>
			<path fill="url(#SVGID_9_)" d="M394.617,252.698l8.1-10.812c0,0,1.428-0.835,1.958,1.511c0.533,2.349-6.983,12.295-6.983,12.295
				S393.971,254.196,394.617,252.698z"/>
		</g>
	</g>
</g>
<g>
	<g>
		<path fill="#93ACF1" d="M574.729,249.897v52.231c0.003,1.179-0.767,2.357-2.309,3.246L507.54,342.82
			c-3.075,1.773-8.099,1.763-11.165-0.024l-66.448-38.61c-1.461-0.852-2.223-1.959-2.288-3.078
			c-0.007-0.002-0.007-52.43-0.007-52.43L574.729,249.897z"/>
		<path fill="#CDDAEC" d="M574.729,249.131v52.231c0.003,1.178-0.767,2.356-2.309,3.248l-64.881,37.442
			c-3.075,1.775-8.099,1.766-11.165-0.024l-66.448-38.61c-1.461-0.852-2.223-1.959-2.288-3.077
			c-0.007-0.002-0.007-52.43-0.007-52.43L574.729,249.131z"/>
		<g>
			<path fill="#FFFFFF" d="M572.748,252.922l-64.88,37.443c-1.577,0.909-3.666,1.41-5.883,1.41c-2.241,0-4.351-0.509-5.941-1.437
				l-66.449-38.609c-0.857-0.501-1.519-1.097-1.963-1.753v-2.058c-0.002,1.173,0.764,2.349,2.295,3.244l66.448,38.609
				c1.542,0.898,3.578,1.349,5.61,1.349c2.014,0,4.024-0.439,5.555-1.324l64.881-37.442c1.529-0.884,2.299-2.052,2.309-3.223v2.034
				C574.281,251.824,573.614,252.422,572.748,252.922z"/>
		</g>
		<path fill="#E8ECFD" d="M496.375,289.772c3.066,1.79,8.09,1.801,11.165,0.024l64.881-37.442c3.071-1.776,3.079-4.691,0.013-6.478
			l-66.449-38.611c-3.066-1.788-8.089-1.799-11.163-0.024l-64.881,37.443c-3.073,1.774-3.08,4.69-0.014,6.479L496.375,289.772z"/>
		<path fill="#93ACF1" d="M497.789,277.647c2.164,1.263,5.711,1.271,7.882,0.019l45.809-26.44c2.171-1.251,2.177-3.311,0.014-4.574
			l-46.922-27.261c-2.164-1.263-5.711-1.271-7.882-0.018l-45.81,26.439c-2.171,1.253-2.176,3.311-0.01,4.574L497.789,277.647z"/>
	</g>
	<g>
		<g>
			<g enable-background="new    ">
				<g>
					<path fill="#93ACF1" d="M512.972,218.706c6.548,3.779,6.585,9.915,0.076,13.696c-6.5,3.78-17.095,3.778-23.64-0.003
						c-6.548-3.778-6.586-9.914-0.082-13.693C495.833,214.922,506.427,214.925,512.972,218.706z"/>
				</g>
				<path fill="#E8ECFD" d="M521.31,228.824c-0.02-1.11-0.161-2.077-0.404-2.824c-0.244-0.754-0.315-0.979-0.717-1.803
					c-0.208-0.43-0.559-0.967-0.824-1.366c-0.172-0.264-0.839-1.211-2.134-2.354c-0.486-0.428-1.193-0.931-1.722-1.305
					c-0.278-0.198-0.678-0.419-0.968-0.597c-0.102-0.062-1.044-0.619-2.457-1.21c-1.134-0.476-2.127-0.771-2.605-0.911
					c-2.444-0.726-4.756-0.946-5.515-1.019c-0.659-0.064-3.012-0.248-5.688,0.001c-2.046,0.19-3.933,0.543-5.607,1.05
					c-3.667,1.11-6.469,2.72-8.563,4.923c-0.674,0.707-1.613,1.881-2.275,3.46c-0.376,0.899-0.537,1.68-0.543,1.712
					c-0.19,0.936-0.2,1.164-0.238,2.124l-0.002,0.803c0.014,1.171,0.145,2.26,0.729,3.762c0.247,0.632,0.833,1.892,1.997,3.23
					c1.563,1.797,3.301,2.821,4.043,3.258c2.414,1.422,5.084,2.127,5.11,2.134c1.472,0.385,1.97,0.514,2.687,0.629
					c0.416,0.067,0.965,0.172,1.384,0.219c1.854,0.208,1.854,0.208,2.813,0.252c3.122,0.14,5.756-0.235,7.05-0.472
					c2.678-0.491,4.617-1.243,5.532-1.646c0.685-0.302,1.59-0.729,2.229-1.119c0.516-0.313,1.187-0.757,1.682-1.104
					c0.257-0.181,0.582-0.443,0.817-0.652c0.677-0.604,1.05-0.935,1.812-1.863c0.507-0.616,1.015-1.474,1.142-1.728
					c0.407-0.811,0.671-1.375,0.93-2.38c0.076-0.292,0.16-0.685,0.196-0.984c0.029-0.231,0.053-0.506,0.073-0.776
					c0.019-0.215,0.034-0.428,0.035-0.642L521.31,228.824z M489.327,218.706c6.507-3.783,17.101-3.78,23.646,0
					c6.548,3.779,6.585,9.915,0.076,13.696c-6.5,3.78-17.095,3.779-23.64-0.003C482.861,228.621,482.823,222.484,489.327,218.706z"
					/>
			</g>
		</g>
		<g>
			<g enable-background="new    ">
				<g>
					<path fill="#3C6BEB" d="M520.066,208.127c1.146,0.962,2.292,1.923,3.441,2.883c7.376,6.18,6.345,14.706-3.106,20.198
						c-10.661,6.196-28.008,6.201-38.741,0.004c-9.583-5.533-10.649-14.137-3.176-20.327c0.068,0.005,0.12-0.101,0.172-0.143
						c0.104-0.085,0.243-0.202,0.346-0.287c0.405-0.334,0.806-0.668,1.212-1.002c0.103-0.086,0.242-0.201,0.346-0.287
						c0.051-0.042,0.12-0.1,0.171-0.143c0.104-0.085,0.243-0.2,0.346-0.287c0.054-0.042,0.121-0.1,0.174-0.142
						c0.104-0.087,0.243-0.201,0.346-0.287c0.051-0.043,0.121-0.101,0.173-0.144c0.051-0.043,0.12-0.1,0.172-0.143
						c-6.328,5.242-5.424,12.532,2.69,17.213c9.081,5.247,23.781,5.243,32.806-0.003C525.437,220.583,526.31,213.36,520.066,208.127
						z"/>
				</g>
				<g>
					<path fill="#3C6BEB" d="M520.078,199.513c1.147,0.96,2.296,1.92,3.442,2.88c7.394,6.183,6.367,14.716-3.091,20.213
						c-10.664,6.198-28.015,6.201-38.749,0.003c-9.592-5.537-10.652-14.149-3.163-20.341c0.105-0.086,0.242-0.201,0.348-0.286
						c0.052-0.043,0.121-0.101,0.172-0.144c0.104-0.087,0.241-0.201,0.347-0.286c0.053-0.043,0.122-0.1,0.173-0.143
						c0.104-0.086,0.242-0.2,0.347-0.287c0.052-0.042,0.119-0.1,0.172-0.143c0.104-0.086,0.243-0.2,0.348-0.285
						c0.102-0.086,0.24-0.2,0.343-0.286c0.106-0.086,0.243-0.201,0.348-0.287c0.103-0.086,0.243-0.2,0.345-0.286
						c0.052-0.042,0.122-0.1,0.174-0.143c0.103-0.086,0.243-0.2,0.346-0.287c-6.34,5.243-5.442,12.539,2.679,17.224
						c9.08,5.247,23.779,5.244,32.805-0.004C525.466,211.977,526.336,204.748,520.078,199.513z"/>
				</g>
				<g>
					<path fill="#2A49A7" d="M523.684,220.326c-1.165,0.992-2.329,1.983-3.491,2.974c-0.801,0.681-1.718,1.328-2.757,1.932
						c-9.024,5.246-23.725,5.25-32.806,0.003c-1.102-0.635-2.071-1.319-2.906-2.038c-1.158-0.998-2.315-1.997-3.473-2.995
						c0.985,0.851,2.129,1.657,3.429,2.408c10.734,6.197,28.085,6.194,38.749-0.003
						C521.657,221.894,522.741,221.129,523.684,220.326z"/>
				</g>
				<g>
					<path fill="#3C6BEB" d="M520.247,190.956c1.144,0.975,2.29,1.949,3.433,2.924c7.251,6.176,6.182,14.642-3.222,20.107
						c-10.667,6.199-28.02,6.203-38.755,0.003c-9.537-5.505-10.642-14.05-3.297-20.235c1.155-0.963,2.302-1.937,3.451-2.904
						c-6.229,5.243-5.292,12.494,2.791,17.16c9.102,5.256,23.824,5.252,32.866-0.003
						C525.487,203.374,526.394,196.191,520.247,190.956z"/>
				</g>
				<g>
					<path fill="#2A49A7" d="M523.745,211.678c-1.166,0.999-2.333,1.998-3.502,2.996c-0.804,0.688-1.732,1.343-2.782,1.953
						c-9.025,5.248-23.725,5.251-32.805,0.004c-1.114-0.642-2.091-1.333-2.934-2.062c-1.161-1.005-2.322-2.01-3.484-3.016
						c0.994,0.86,2.149,1.678,3.465,2.436c10.735,6.2,28.088,6.196,38.755-0.003C521.697,213.266,522.794,212.492,523.745,211.678z"
						/>
				</g>
				<g>
					<path fill="#2A49A7" d="M523.806,203.036c-1.158,0.996-2.316,1.992-3.477,2.988c-0.813,0.699-1.75,1.364-2.815,1.982
						c-9.042,5.256-23.765,5.26-32.866,0.003c-1.125-0.65-2.115-1.351-2.963-2.09c-0.066-0.022-0.122-0.105-0.175-0.15
						c-0.051-0.045-0.119-0.105-0.171-0.15c-0.104-0.09-0.243-0.21-0.346-0.301c-0.104-0.091-0.245-0.21-0.347-0.301
						c-0.052-0.045-0.122-0.104-0.173-0.15c-0.104-0.09-0.241-0.21-0.347-0.301c-0.052-0.045-0.122-0.105-0.172-0.151
						c-0.104-0.09-0.241-0.21-0.347-0.301c-0.052-0.044-0.12-0.104-0.172-0.149c-0.104-0.09-0.242-0.211-0.348-0.301
						c-0.051-0.046-0.119-0.106-0.172-0.151c-0.104-0.09-0.241-0.211-0.348-0.301c-0.051-0.046-0.119-0.106-0.172-0.151
						c-0.052-0.045-0.119-0.104-0.171-0.15c1.001,0.872,2.167,1.698,3.497,2.466c10.738,6.201,28.092,6.197,38.76-0.003
						C521.74,204.643,522.848,203.86,523.806,203.036z"/>
				</g>
				<g>
					<path fill="#3C6BEB" d="M520.119,182.267c1.15,0.959,2.3,1.919,3.448,2.879c7.406,6.186,6.384,14.726-3.083,20.227
						c-10.668,6.2-28.021,6.205-38.76,0.003c-9.597-5.54-10.658-14.161-3.155-20.355c0.104-0.086,0.242-0.2,0.348-0.286
						c0.052-0.042,0.12-0.1,0.172-0.144c0.104-0.085,0.243-0.199,0.348-0.285c0.052-0.043,0.12-0.1,0.172-0.143
						c0.106-0.085,0.244-0.201,0.348-0.286c0.05-0.043,0.12-0.1,0.172-0.143c0.105-0.086,0.243-0.201,0.347-0.287
						c0.104-0.085,0.243-0.2,0.347-0.285c0.104-0.086,0.241-0.201,0.348-0.287c0.102-0.086,0.241-0.2,0.347-0.286
						c0.103-0.085,0.241-0.2,0.346-0.286c0.052-0.043,0.121-0.1,0.174-0.143c-6.349,5.243-5.454,12.543,2.668,17.229
						c9.083,5.246,23.783,5.243,32.807-0.004C525.52,194.733,526.384,187.5,520.119,182.267z"/>
				</g>
				<g>
					<path fill="#3C6BEB" d="M519.835,173.553c1.109,0.881,2.218,1.763,3.325,2.646c7.775,6.187,6.877,14.888-2.712,20.46
						c-10.634,6.181-27.937,6.185-38.642,0.004c-9.721-5.613-10.655-14.392-2.78-20.587c0.1-0.08,0.233-0.184,0.335-0.263
						c0.05-0.04,0.118-0.092,0.167-0.132c0.101-0.078,0.233-0.184,0.334-0.262c0.102-0.08,0.234-0.184,0.333-0.262
						c0.102-0.08,0.235-0.184,0.335-0.263c0.05-0.04,0.116-0.093,0.167-0.131c0.557-0.438,1.114-0.875,1.669-1.313
						c-6.684,5.258-5.89,12.718,2.36,17.479c9.082,5.246,23.781,5.242,32.807-0.003
						C525.671,186.196,526.435,178.805,519.835,173.553z"/>
				</g>
				<g>
					<path fill="#2A49A7" d="M524.035,194.087c-1.159,1.039-2.321,2.076-3.479,3.116c-0.864,0.773-1.879,1.505-3.046,2.183
						c-9.023,5.247-23.724,5.25-32.807,0.004c-1.229-0.709-2.292-1.479-3.192-2.292c-1.153-1.046-2.31-2.09-3.464-3.137
						c1.059,0.959,2.313,1.866,3.761,2.702c10.705,6.181,28.008,6.177,38.642-0.004
						C521.825,195.861,523.018,194.999,524.035,194.087z"/>
				</g>
				<g>
					<path fill="#3C6BEB" d="M520.396,165.875c10.734,6.196,10.782,16.244,0.126,22.436c-10.662,6.197-28.008,6.201-38.739,0.004
						c-10.734-6.196-10.783-16.244-0.119-22.44C492.32,159.682,509.664,159.678,520.396,165.875z"/>
				</g>
				<g>
					<path fill="#2A49A7" d="M523.755,186.05c-1.16,0.986-2.323,1.973-3.485,2.959c-0.793,0.674-1.706,1.315-2.736,1.915
						c-9.025,5.246-23.725,5.25-32.807,0.003c-1.093-0.631-2.055-1.309-2.887-2.023c-0.104-0.089-0.243-0.208-0.347-0.297
						c-0.051-0.045-0.121-0.104-0.173-0.148c-0.105-0.09-0.244-0.209-0.347-0.298c-0.051-0.044-0.121-0.104-0.175-0.149
						c-0.102-0.089-0.24-0.208-0.347-0.297c-0.05-0.045-0.121-0.105-0.173-0.15c-0.104-0.088-0.241-0.208-0.347-0.297
						c-0.521-0.447-1.04-0.894-1.562-1.341c0.984,0.844,2.118,1.645,3.411,2.39c10.731,6.197,28.077,6.192,38.739-0.004
						C521.74,187.604,522.817,186.846,523.755,186.05z"/>
				</g>
			</g>
		</g>
		<g>
			<g enable-background="new    ">
				<g>
					<path fill="#93ACF1" d="M520.437,171.781c10.696,6.171,10.758,16.193,0.127,22.368c-10.617,6.173-27.92,6.17-38.608-0.003
						c-10.694-6.172-10.757-16.194-0.132-22.364C492.447,165.605,509.75,165.608,520.437,171.781z"/>
				</g>
				<path fill="#CDDAEC" d="M534.056,188.31c-0.029-1.815-0.263-3.395-0.657-4.614c-0.399-1.23-0.52-1.601-1.173-2.944
					c-0.342-0.704-0.914-1.58-1.346-2.232c-0.284-0.43-1.375-1.978-3.488-3.843c-0.793-0.701-1.945-1.521-2.811-2.133
					c-0.452-0.322-1.105-0.684-1.579-0.976c-0.167-0.101-1.71-1.01-4.011-1.974c-1.856-0.778-3.479-1.258-4.257-1.489
					c-3.991-1.186-7.77-1.545-9.009-1.665c-1.074-0.101-4.917-0.405-9.286,0.003c-3.341,0.311-6.424,0.888-9.158,1.716
					c-5.989,1.812-10.563,4.441-13.985,8.04c-1.097,1.155-2.634,3.073-3.713,5.651c-0.615,1.468-0.879,2.743-0.889,2.797
					c-0.313,1.527-0.325,1.899-0.387,3.467l-0.006,1.313c0.022,1.912,0.232,3.69,1.191,6.146c0.4,1.032,1.357,3.089,3.259,5.273
					c2.554,2.936,5.394,4.609,6.605,5.324c3.941,2.321,8.3,3.473,8.345,3.484c2.405,0.628,3.217,0.839,4.388,1.026
					c0.679,0.108,1.579,0.283,2.259,0.36c3.028,0.339,3.028,0.339,4.597,0.411c5.095,0.229,9.397-0.386,11.51-0.773
					c4.375-0.801,7.541-2.027,9.038-2.687c1.12-0.492,2.596-1.191,3.641-1.825c0.843-0.513,1.938-1.239,2.745-1.806
					c0.421-0.294,0.953-0.722,1.336-1.064c1.104-0.984,1.713-1.527,2.959-3.042c0.826-1.005,1.658-2.408,1.867-2.822
					c0.661-1.325,1.092-2.248,1.517-3.887c0.122-0.477,0.259-1.118,0.321-1.606c0.046-0.378,0.086-0.826,0.115-1.271
					c0.034-0.349,0.057-0.697,0.06-1.047L534.056,188.31z M481.824,171.782c10.625-6.177,27.926-6.174,38.613,0
					c10.696,6.171,10.758,16.192,0.127,22.368c-10.617,6.174-27.92,6.17-38.608-0.003
					C471.261,187.974,471.199,177.953,481.824,171.782z"/>
			</g>
		</g>
		<g>
			<path fill="#3C6BEB" d="M528.435,182.063l0.038-5.282l-2.126-0.005c-1.34-1.852-3.316-3.589-5.928-5.098
				c-10.694-6.173-27.974-6.205-38.601-0.07c-2.577,1.489-4.521,3.205-5.843,5.039l-2.089-0.006l0.001,6.079
				c0.045,4.083,2.728,8.1,8.052,11.173c10.693,6.174,27.974,6.205,38.6,0.071C526.192,190.699,528.821,186.349,528.435,182.063z"/>
			<path fill="#93ACF1" d="M520.54,187.958c-10.626,6.135-27.906,6.104-38.6-0.07c-10.69-6.172-10.745-16.15-0.121-22.285
				c10.627-6.135,27.906-6.104,38.601,0.07C531.11,171.847,531.165,181.824,520.54,187.958z"/>
		</g>
		<path fill="#2A49A7" d="M513.007,178.635c-6.032,3.483-15.844,3.466-21.914-0.039c-6.069-3.505-6.1-9.17-0.067-12.653
			c6.031-3.481,15.844-3.465,21.913,0.04C519.009,169.488,519.04,175.153,513.007,178.635z"/>
		<g>
			<g>
				<g enable-background="new    ">
					<g>
						<path fill="#3C6BEB" d="M492.915,125.2l7.132,44.284c0.005,0.04,0.007,0.081,0.004,0.122c-0.038,0.457-0.68,0.778-1.43,0.71
							c-0.303-0.025-0.576-0.108-0.793-0.229c-0.28-0.155-0.468-0.371-0.504-0.603l-7.133-44.284
							c0.04,0.233,0.226,0.449,0.506,0.604c0.216,0.12,0.49,0.203,0.792,0.23c0.752,0.066,1.391-0.255,1.433-0.712
							C492.923,125.281,492.922,125.241,492.915,125.2z"/>
					</g>
					<g>
						<path fill="#3C6BEB" d="M492.411,124.598c0.329,0.181,0.529,0.447,0.511,0.724c-0.042,0.457-0.681,0.778-1.433,0.712
							c-0.302-0.027-0.576-0.11-0.792-0.23c-0.328-0.182-0.53-0.448-0.51-0.725c0.04-0.458,0.68-0.779,1.43-0.712
							C491.918,124.394,492.194,124.477,492.411,124.598z"/>
					</g>
				</g>
			</g>
			<g>
				<g enable-background="new    ">
					<g>
						<path fill="#3C6BEB" d="M514.272,129.074l-8.546,44.252c-0.009,0.041-0.021,0.083-0.038,0.123
							c-0.201,0.456-0.952,0.768-1.68,0.692c-0.292-0.029-0.534-0.115-0.712-0.237c-0.224-0.159-0.334-0.375-0.289-0.606
							l8.546-44.254c-0.044,0.232,0.064,0.449,0.29,0.608c0.177,0.123,0.419,0.209,0.711,0.237c0.727,0.077,1.479-0.236,1.681-0.693
							C514.252,129.156,514.264,129.114,514.272,129.074z"/>
					</g>
					<g>
						<path fill="#3C6BEB" d="M513.982,128.468c0.263,0.184,0.371,0.452,0.253,0.728c-0.201,0.457-0.954,0.77-1.681,0.693
							c-0.292-0.028-0.534-0.115-0.711-0.237c-0.263-0.187-0.369-0.453-0.253-0.729c0.204-0.455,0.955-0.768,1.681-0.691
							C513.564,128.259,513.808,128.346,513.982,128.468z"/>
					</g>
				</g>
			</g>
			<g>
				<path fill="#2A49A7" d="M500.946,133.492c-3.381,0-6.08-0.69-8.074-2.07c-2.856-1.979-3.106-4.671-3.117-4.785
					c-0.058-0.689,0.457-1.293,1.146-1.35c0.688-0.053,1.284,0.451,1.347,1.132c0.014,0.098,0.227,1.721,2.124,2.996
					c2.266,1.522,7.158,2.71,17.6-0.27c0.666-0.188,1.356,0.197,1.547,0.862c0.189,0.664-0.196,1.357-0.86,1.547
					C508.129,132.847,504.218,133.492,500.946,133.492z"/>
			</g>
		</g>
		<linearGradient id="SVGID_10_" gradientUnits="userSpaceOnUse" x1="501.1792" y1="-78.0439" x2="501.1792" y2="187.9625">
			<stop  offset="0" style="stop-color:#FFFFFF"/>
			<stop  offset="1" style="stop-color:#93ACF1"/>
		</linearGradient>
		<path opacity="0.4" fill="url(#SVGID_10_)" d="M566.694,108.358c0-36.184-29.331-65.515-65.515-65.515
			s-65.515,29.332-65.515,65.515c0,23.768,12.657,44.578,31.596,56.063c6.081,3.935,6.707,12.037,6.618,16.011
			c-1.2,4.799,1.413,9.866,7.834,13.573c10.776,6.222,28.193,6.254,38.904,0.07c5.408-3.123,8.067-7.233,7.99-11.34
			c0.025,0,0.005-0.146-0.02-0.402c-0.009-0.149-0.023-0.298-0.038-0.447c-0.225-2.967-0.417-12.958,6.533-17.456
			C554.039,152.936,566.694,132.125,566.694,108.358z"/>
	</g>
	<defs>
		<filter id="Adobe_OpacityMaskFilter" filterUnits="userSpaceOnUse" x="449.25" y="128.46" width="103.861" height="150.139">
			<feColorMatrix  type="matrix" values="1 0 0 0 0  0 1 0 0 0  0 0 1 0 0  0 0 0 1 0"/>
		</filter>
	</defs>
	<mask maskUnits="userSpaceOnUse" x="449.25" y="128.46" width="103.861" height="150.139" id="SVGID_11_">
		<g filter="url(#Adobe_OpacityMaskFilter)">
			<linearGradient id="SVGID_12_" gradientUnits="userSpaceOnUse" x1="501.1802" y1="295.6157" x2="501.1802" y2="160.9612">
				<stop  offset="0" style="stop-color:#FFFFFF"/>
				<stop  offset="0.0859" style="stop-color:#F7F7F7"/>
				<stop  offset="0.2181" style="stop-color:#E2E2E2"/>
				<stop  offset="0.3802" style="stop-color:#BEBEBE"/>
				<stop  offset="0.566" style="stop-color:#8D8D8D"/>
				<stop  offset="0.7717" style="stop-color:#4E4E4E"/>
				<stop  offset="0.9912" style="stop-color:#030303"/>
				<stop  offset="1" style="stop-color:#000000"/>
			</linearGradient>
			<path fill="url(#SVGID_12_)" d="M553.111,248.942v-89.977v0v-0.019h-0.002c-0.008-0.823-0.544-1.645-1.616-2.272l-46.922-27.262
				c-2.164-1.263-5.711-1.271-7.882-0.018l-45.81,26.438c-1.059,0.612-1.594,1.415-1.622,2.223h-0.007v0.055
				c0,0.004,0,0.009,0,0.013l-0.001,89.972l0,0v0.034h0.005c0.012,0.817,0.548,1.634,1.615,2.256l46.919,27.261
				c2.164,1.263,5.711,1.271,7.882,0.019l45.809-26.437c1.031-0.596,1.556-1.372,1.611-2.156h0.021v-0.128V248.942z"/>
		</g>
	</mask>
	<path opacity="0.5" mask="url(#SVGID_11_)" fill="#3C6BEB" d="M553.111,248.942v-89.977c-0.01-0.842-0.546-1.664-1.618-2.291
		l-46.922-27.262c-2.164-1.263-5.711-1.271-7.882-0.018l-45.81,26.438c-1.059,0.612-1.594,1.415-1.622,2.223
		c-0.007,0.068-0.008,90.04-0.008,90.04c0.017,0.852,0.553,1.668,1.62,2.29l46.919,27.261c2.164,1.263,5.711,1.271,7.882,0.019
		l45.809-26.437c1.031-0.596,1.556-1.372,1.611-2.156c0.021,0,0.021-0.128,0.021-0.128V248.942z"/>
</g>
<g>
	<g>
		<g opacity="0.2">
			<path fill="#2848A6" d="M152.711,506.287c5.715,3.299,5.745,8.701,0.067,12.001l-55.777,32.414c-5.679,3.3-15.002,3.3-20.717,0
				l-56.144-32.414c-5.715-3.3-5.745-8.702-0.067-12.001l55.777-32.414c5.678-3.301,15.002-3.301,20.716,0L152.711,506.287z"/>
		</g>
		<g>
			<g enable-background="new    ">
				<path fill="#2A49A7" d="M152.778,483.244l-55.777,32.415c-5.679,3.3-15.002,3.3-20.717,0l-56.144-32.414
					c-2.875-1.661-4.313-3.854-4.307-6.042l-0.004,1.79c-0.006,2.188,1.43,4.383,4.307,6.042l56.143,32.414
					c5.714,3.3,15.039,3.3,20.716,0l55.779-32.414c2.82-1.639,4.231-3.796,4.238-5.957l0.004-1.791
					C157.011,479.447,155.599,481.606,152.778,483.244z"/>
				<g>
					<path fill="#3C6BEB" d="M152.711,471.245c5.715,3.3,5.745,8.698,0.067,11.999l-55.777,32.415c-5.679,3.3-15.002,3.3-20.717,0
						l-56.144-32.414c-5.715-3.301-5.745-8.7-0.067-12l55.777-32.414c5.678-3.3,15.002-3.3,20.716,0L152.711,471.245z"/>
				</g>
			</g>
		</g>
	</g>
	<g>
		<g>
			<path fill="#93ACF1" d="M163.92,365.5l-80.505-46.48c-2.199-1.27-4.138-1.102-5.277,0.196c1.146-0.635,2.716-0.528,4.449,0.471
				l80.507,46.481c3.5,2.021,6.328,6.912,6.316,10.935l-0.172,60.626c-0.004,1.493-0.401,2.655-1.077,3.425
				c1.169-0.648,1.899-2.066,1.904-4.095l0.173-60.625C170.25,372.411,167.42,367.519,163.92,365.5z"/>
			<path fill="#B7CAF0" d="M163.708,440.682l-80.507-46.48c-3.5-2.021-6.322-6.915-6.311-10.938l0.171-60.626
				c0.005-1.494,0.4-2.656,1.076-3.422c-1.169,0.647-1.897,2.06-1.903,4.092l-0.173,60.624c-0.011,4.022,2.811,8.919,6.312,10.938
				l80.506,46.481c2.199,1.269,4.14,1.097,5.281-0.198C167.012,441.788,165.441,441.684,163.708,440.682z"/>
			<path fill="#FFFFFF" d="M169.41,377.102c0.012-4.022-2.816-8.913-6.316-10.935l-80.507-46.481
				c-1.733-0.999-3.303-1.105-4.449-0.471c-0.675,0.766-1.071,1.928-1.076,3.422l-0.171,60.626
				c-0.012,4.023,2.811,8.917,6.311,10.938l80.507,46.48c1.733,1.002,3.304,1.105,4.453,0.471c0.676-0.77,1.073-1.932,1.077-3.425
				L169.41,377.102z"/>
		</g>
		<g>
			<path fill="#CDDAEC" d="M143.286,412.17l-6.529-18.115c-0.038-0.107-0.09-0.211-0.151-0.306l-6.377-17.698l-6.528-18.117
				c-0.115-0.319-0.342-0.608-0.591-0.752c-0.248-0.144-0.476-0.118-0.591,0.069l-6.528,10.579l-6.377,10.332
				c-0.06,0.026-0.113,0.071-0.15,0.132l-6.529,10.578c-0.17,0.275-0.042,0.812,0.282,1.196c0.327,0.385,0.73,0.473,0.9,0.196
				l5.938-9.62l5.937,16.473c0.031,0.078,0.048,0.12,0.067,0.158c0.045,0.086,0.068,0.127,0.095,0.167
				c0.041,0.065,0.075,0.108,0.111,0.15c0.057,0.066,0.09,0.099,0.123,0.132c0.052,0.047,0.089,0.076,0.128,0.103
				c0.18,0.1,0.217,0.111,0.254,0.12c0.056,0.012,0.09,0.017,0.122,0.016c0.032-0.003,0.059-0.008,0.086-0.016
				c0.158-0.098,0.178-0.117,0.193-0.144c0.003-0.002,5.94-9.621,5.94-9.621l5.938,16.475c0.029,0.077,0.047,0.116,0.066,0.156
				c0.045,0.085,0.069,0.128,0.094,0.165c0.042,0.067,0.076,0.109,0.111,0.152c0.057,0.067,0.09,0.1,0.125,0.133
				c0.051,0.047,0.088,0.075,0.126,0.103c0.181,0.098,0.218,0.111,0.256,0.12c0.056,0.011,0.088,0.017,0.121,0.014
				c0.033-0.002,0.061-0.009,0.087-0.014c0.157-0.099,0.177-0.117,0.193-0.143c0.002-0.002,5.938-9.624,5.938-9.624l5.938,16.476
				c0.118,0.33,0.35,0.614,0.591,0.753c0.104,0.061,0.209,0.094,0.308,0.091C143.329,413.034,143.457,412.644,143.286,412.17z
				 M129.638,402.991l-5.376-14.92l10.754,6.21L129.638,402.991z M116.581,395.454l-5.376-14.921l10.754,6.21L116.581,395.454z
				 M123.11,384.99l-5.428-15.065l10.856,6.27L123.11,384.99z M124.211,386.511l5.427-8.794l5.428,15.061L124.211,386.511z
				 M123.11,359.601l5.428,15.062l-10.856-6.267L123.11,359.601z M116.581,370.18l5.429,15.062l-10.856-6.267L116.581,370.18z"/>
			<g>
				<g>
					<path fill="#CDDAEC" d="M103.437,353.344c0,0-1.474-1.783-1.474-2.824c-0.001-1.05,1.47-1.137,1.47-1.137
						c0.044-0.004,0.067-0.059,0.051-0.121l-0.669-2.232c-0.022-0.063-0.077-0.115-0.122-0.114c0,0-0.624,0.018-1.009-0.204
						c-0.454-0.262-0.908-0.724-1.257-1.32c-0.64-1.104-0.176-2.693-0.176-2.693c0.014-0.048-0.012-0.126-0.057-0.178l-1.611-1.694
						c-0.046-0.045-0.106-0.054-0.129-0.017c0,0-0.812,1.226-1.718,0.702c-0.906-0.521-1.722-2.684-1.722-2.684
						c-0.025-0.063-0.083-0.123-0.13-0.134l-1.609-0.159c-0.045,0-0.071,0.051-0.057,0.115c0,0,0.469,2.124-0.171,2.492
						c-0.346,0.198-0.802,0.135-1.258-0.127c-0.383-0.223-1.006-0.959-1.006-0.959c-0.044-0.052-0.098-0.063-0.121-0.024
						l-0.666,1.462c-0.016,0.047,0.007,0.127,0.051,0.182c0,0,1.475,1.781,1.475,2.823c0,1.041-1.473,1.124-1.473,1.124
						c-0.043,0.003-0.067,0.057-0.05,0.12l0.668,2.232c0.021,0.065,0.08,0.128,0.128,0.139c0,0,1.616,0.397,2.257,1.502
						c0.641,1.104,0.175,2.691,0.175,2.691c-0.013,0.049,0.013,0.13,0.057,0.183l1.611,1.69c0.047,0.048,0.106,0.054,0.13,0.019
						c0,0,0.813-1.223,1.719-0.7c0.906,0.523,1.721,2.685,1.721,2.685c0.023,0.063,0.083,0.125,0.129,0.133l1.61,0.164
						c0.045,0,0.07-0.052,0.056-0.116c0,0-0.467-2.124,0.174-2.49c0.64-0.363,2.258,1.103,2.258,1.103
						c0.048,0.045,0.106,0.05,0.128,0.01l0.667-1.463C103.503,353.478,103.482,353.398,103.437,353.344z M96.742,352.062
						c-2.192-1.266-3.969-4.332-3.969-6.848s1.777-3.528,3.969-2.263c2.192,1.267,3.97,4.332,3.97,6.848
						C100.712,352.313,98.935,353.328,96.742,352.062z"/>
				</g>
				<g>
					<path fill="#CDDAEC" d="M109.541,370.73c0,0-1.071-1.299-1.071-2.054c-0.001-0.764,1.069-0.826,1.069-0.826
						c0.032-0.001,0.047-0.043,0.036-0.088l-0.486-1.623c-0.016-0.047-0.056-0.085-0.087-0.085c0,0-0.456,0.015-0.735-0.147
						c-0.33-0.19-0.661-0.524-0.912-0.959c-0.467-0.803-0.13-1.957-0.13-1.957c0.011-0.035-0.007-0.092-0.04-0.132l-1.171-1.231
						c-0.035-0.032-0.077-0.037-0.094-0.011c0,0-0.591,0.89-1.25,0.509c-0.658-0.378-1.251-1.95-1.251-1.95
						c-0.017-0.046-0.06-0.09-0.095-0.097l-1.169-0.116c-0.033,0-0.051,0.038-0.041,0.084c0,0,0.34,1.544-0.125,1.812
						c-0.253,0.144-0.583,0.1-0.915-0.094c-0.279-0.162-0.731-0.694-0.731-0.694c-0.032-0.038-0.072-0.048-0.088-0.02l-0.484,1.063
						c-0.012,0.033,0.005,0.093,0.037,0.132c0,0,1.073,1.298,1.073,2.054c0,0.754-1.071,0.816-1.071,0.816
						c-0.031,0.001-0.048,0.042-0.036,0.087l0.485,1.623c0.017,0.047,0.058,0.093,0.094,0.101c0,0,1.175,0.29,1.641,1.093
						c0.466,0.803,0.128,1.956,0.128,1.956c-0.011,0.034,0.008,0.096,0.041,0.132l1.17,1.231c0.034,0.034,0.077,0.038,0.095,0.011
						c0,0,0.591-0.887,1.25-0.507c0.659,0.381,1.25,1.95,1.25,1.95c0.018,0.046,0.06,0.09,0.095,0.097l1.17,0.12
						c0.032,0,0.05-0.039,0.041-0.083c0,0-0.338-1.546,0.127-1.812c0.465-0.264,1.64,0.8,1.64,0.8
						c0.036,0.033,0.079,0.036,0.094,0.009l0.486-1.064C109.589,370.827,109.572,370.769,109.541,370.73z M104.674,368.965
						c-1.194-0.69-2.162-2.36-2.162-3.728c0-1.369,0.968-1.922,2.162-1.232c1.193,0.689,2.16,2.357,2.16,3.729
						C106.834,369.103,105.868,369.655,104.674,368.965z"/>
				</g>
				<g>
					<path fill="#CDDAEC" d="M96.625,367.214c0,0-0.722-0.876-0.722-1.384c0-0.514,0.72-0.558,0.72-0.558
						c0.024-0.059-0.304-1.152-0.304-1.152c-0.011-0.03-0.037-0.056-0.059-0.056c0,0-0.306,0.009-0.494-0.1
						c-0.223-0.129-0.444-0.354-0.615-0.645c-0.314-0.542-0.086-1.32-0.086-1.32c0.007-0.023-0.005-0.063-0.028-0.087l-0.788-0.83
						c-0.064-0.008-0.461,0.591-0.905,0.336c-0.444-0.256-0.843-1.313-0.843-1.313c-0.012-0.032-0.04-0.061-0.063-0.067
						l-0.788-0.077c-0.027,0.058,0.202,1.097-0.112,1.277c-0.169,0.098-0.392,0.065-0.616-0.063
						c-0.187-0.108-0.492-0.471-0.492-0.471c-0.059-0.012-0.385,0.705-0.385,0.705c-0.007,0.022,0.004,0.063,0.025,0.088
						c0,0,0.723,0.872,0.723,1.382c0,0.509-0.721,0.551-0.721,0.551c-0.024,0.059,0.303,1.151,0.303,1.151
						c0.01,0.031,0.039,0.062,0.063,0.067c0,0,0.792,0.197,1.105,0.735c0.313,0.542,0.087,1.317,0.087,1.317
						c-0.007,0.023,0.005,0.063,0.027,0.09l0.787,0.831c0.065,0.007,0.462-0.592,0.906-0.336s0.842,1.313,0.842,1.313
						c0.012,0.032,0.041,0.062,0.064,0.064l0.788,0.08c0.028-0.055-0.2-1.095,0.113-1.274s1.105,0.541,1.105,0.541
						c0.063,0.005,0.389-0.712,0.389-0.712C96.657,367.278,96.646,367.24,96.625,367.214z M93.348,364.96
						c-0.292-0.168-0.528-0.577-0.528-0.911c0-0.335,0.237-0.469,0.528-0.302c0.292,0.17,0.527,0.577,0.527,0.913
						C93.875,364.994,93.639,365.127,93.348,364.96z"/>
				</g>
			</g>
			<g>
				<g>
					<polygon fill="#CDDAEC" points="163.341,380.708 137.92,366.032 137.92,364.858 163.341,379.535 					"/>
				</g>
				<g>
					<polygon fill="#CDDAEC" points="162.542,382.949 137.92,368.734 137.92,367.562 162.542,381.776 					"/>
				</g>
				<g>
					<polygon fill="#CDDAEC" points="160.394,384.412 137.92,371.436 137.92,370.264 160.394,383.239 					"/>
				</g>
				<g>
					<polygon fill="#CDDAEC" points="158.962,386.287 137.92,374.141 137.92,372.967 158.962,385.116 					"/>
				</g>
				<g>
					<polygon fill="#CDDAEC" points="157.695,388.258 137.92,376.843 137.92,375.669 157.695,387.084 					"/>
				</g>
				<g>
					<polygon fill="#CDDAEC" points="156.125,390.055 137.92,379.547 137.92,378.373 156.125,388.882 					"/>
				</g>
			</g>
		</g>
		<g>
			<path fill="#3C6BEB" d="M140.808,413.602l-6.528-18.116c-0.039-0.108-0.091-0.21-0.151-0.307l-6.377-17.698l-6.529-18.115
				c-0.114-0.32-0.342-0.608-0.591-0.752c-0.248-0.144-0.475-0.118-0.591,0.069l-6.528,10.578l-6.377,10.332
				c-0.062,0.027-0.113,0.071-0.151,0.134l-6.529,10.576c-0.17,0.275-0.043,0.812,0.283,1.197c0.326,0.384,0.729,0.47,0.899,0.195
				l5.938-9.619l5.937,16.472c0.03,0.079,0.048,0.119,0.067,0.157c0.044,0.086,0.069,0.128,0.094,0.168
				c0.042,0.063,0.076,0.107,0.111,0.151c0.057,0.064,0.09,0.099,0.125,0.131c0.051,0.047,0.088,0.076,0.126,0.104
				c0.181,0.099,0.219,0.111,0.256,0.121c0.055,0.01,0.088,0.015,0.12,0.012c0.033,0,0.061-0.007,0.087-0.012
				c0.158-0.099,0.178-0.12,0.193-0.146c0.002-0.001,5.939-9.621,5.939-9.621l5.938,16.476c0.029,0.078,0.047,0.117,0.067,0.155
				c0.044,0.087,0.068,0.129,0.094,0.169c0.042,0.064,0.076,0.108,0.11,0.149c0.058,0.065,0.091,0.102,0.125,0.133
				c0.051,0.048,0.088,0.075,0.127,0.102c0.181,0.099,0.218,0.112,0.255,0.12c0.055,0.011,0.088,0.017,0.121,0.016
				c0.034,0,0.06-0.009,0.086-0.016c0.159-0.099,0.178-0.116,0.194-0.144c0.002-0.001,5.939-9.621,5.939-9.621l5.937,16.475
				c0.12,0.33,0.352,0.615,0.592,0.754c0.104,0.059,0.209,0.093,0.308,0.09C140.853,414.463,140.979,414.076,140.808,413.602z
				 M127.161,404.421l-5.377-14.918l10.752,6.207L127.161,404.421z M114.104,396.883l-5.376-14.919l10.753,6.209L114.104,396.883z
				 M120.631,386.42l-5.428-15.065l10.856,6.27L120.631,386.42z M121.733,387.943l5.428-8.795l5.427,15.062L121.733,387.943z
				 M120.631,361.032l5.429,15.063l-10.856-6.27L120.631,361.032z M114.104,371.61l5.427,15.062l-10.855-6.268L114.104,371.61z"/>
			<g>
				<g>
					<path fill="#2A49A7" d="M100.959,354.777c0,0-1.473-1.785-1.473-2.826c-0.002-1.049,1.471-1.137,1.471-1.137
						c0.043-0.002,0.066-0.056,0.051-0.122l-0.67-2.231c-0.023-0.063-0.078-0.115-0.122-0.113c0,0-0.624,0.017-1.01-0.206
						c-0.454-0.261-0.908-0.723-1.254-1.318c-0.642-1.104-0.178-2.695-0.178-2.695c0.014-0.045-0.011-0.126-0.056-0.178l-1.61-1.691
						c-0.048-0.048-0.106-0.057-0.131-0.018c0,0-0.812,1.224-1.717,0.701c-0.906-0.521-1.722-2.683-1.722-2.683
						c-0.024-0.064-0.083-0.123-0.131-0.133l-1.609-0.161c-0.045,0-0.07,0.052-0.057,0.115c0,0,0.469,2.126-0.171,2.492
						c-0.347,0.198-0.802,0.136-1.258-0.128c-0.384-0.222-1.006-0.957-1.006-0.957c-0.043-0.053-0.099-0.063-0.122-0.024
						l-0.665,1.462c-0.017,0.045,0.006,0.126,0.051,0.18c0,0,1.474,1.783,1.475,2.824c0.001,1.039-1.472,1.123-1.472,1.123
						c-0.044,0.005-0.066,0.058-0.051,0.121l0.668,2.232c0.023,0.064,0.08,0.127,0.129,0.138c0,0,1.617,0.398,2.258,1.503
						c0.641,1.104,0.176,2.691,0.176,2.691c-0.014,0.048,0.011,0.129,0.057,0.181l1.609,1.692c0.048,0.046,0.106,0.055,0.131,0.02
						c0,0,0.813-1.224,1.719-0.701c0.906,0.521,1.72,2.685,1.72,2.685c0.024,0.065,0.083,0.124,0.131,0.133l1.609,0.163
						c0.044,0,0.071-0.051,0.056-0.116c0,0-0.466-2.124,0.174-2.489c0.64-0.364,2.257,1.103,2.257,1.103
						c0.048,0.045,0.106,0.048,0.127,0.011l0.667-1.464C101.026,354.91,101.003,354.829,100.959,354.777z M94.265,353.493
						c-2.193-1.267-3.97-4.333-3.97-6.848c0-2.518,1.777-3.53,3.97-2.265c2.191,1.269,3.969,4.334,3.969,6.849
						C98.234,353.745,96.457,354.758,94.265,353.493z"/>
				</g>
				<g>
					<path fill="#2A49A7" d="M107.062,372.162c0,0-1.071-1.299-1.071-2.054c-0.001-0.765,1.07-0.827,1.07-0.827
						c0.032-0.002,0.049-0.042,0.037-0.088l-0.488-1.623c-0.015-0.048-0.055-0.085-0.087-0.085c0,0-0.454,0.016-0.734-0.147
						c-0.33-0.19-0.66-0.525-0.912-0.959c-0.467-0.804-0.129-1.957-0.129-1.957c0.009-0.034-0.01-0.094-0.042-0.131l-1.171-1.23
						c-0.034-0.034-0.077-0.04-0.095-0.013c0,0-0.59,0.89-1.249,0.509c-0.658-0.378-1.252-1.95-1.252-1.95
						c-0.019-0.046-0.061-0.09-0.095-0.096l-1.17-0.117c-0.032,0-0.05,0.037-0.041,0.083c0,0,0.34,1.544-0.125,1.813
						c-0.252,0.144-0.583,0.098-0.915-0.093c-0.279-0.16-0.731-0.696-0.731-0.696c-0.032-0.038-0.072-0.046-0.088-0.02l-0.483,1.065
						c-0.013,0.031,0.004,0.091,0.037,0.13c0,0,1.072,1.297,1.072,2.055c0,0.755-1.071,0.817-1.071,0.817
						c-0.032,0.001-0.049,0.04-0.037,0.086l0.485,1.624c0.018,0.046,0.06,0.092,0.093,0.101c0,0,1.177,0.289,1.643,1.092
						c0.465,0.804,0.127,1.956,0.127,1.956c-0.01,0.035,0.008,0.094,0.041,0.131l1.17,1.232c0.035,0.032,0.077,0.038,0.095,0.012
						c0,0,0.592-0.887,1.25-0.509c0.659,0.382,1.25,1.952,1.25,1.952c0.018,0.047,0.061,0.09,0.095,0.096l1.17,0.12
						c0.033,0,0.052-0.039,0.041-0.083c0,0-0.338-1.547,0.127-1.812c0.464-0.267,1.641,0.801,1.641,0.801
						c0.036,0.032,0.077,0.036,0.094,0.009l0.484-1.064C107.111,372.257,107.095,372.199,107.062,372.162z M102.196,370.395
						c-1.194-0.689-2.161-2.356-2.161-3.728c0-1.369,0.967-1.92,2.161-1.231c1.193,0.69,2.161,2.357,2.161,3.729
						C104.357,370.533,103.389,371.086,102.196,370.395z"/>
				</g>
				<g>
					<path fill="#2A49A7" d="M94.147,368.645c0,0-0.721-0.876-0.721-1.385c-0.001-0.513,0.72-0.558,0.72-0.558
						c0.025-0.057-0.303-1.15-0.303-1.15c-0.011-0.033-0.038-0.058-0.06-0.058c0,0-0.306,0.01-0.494-0.101
						c-0.223-0.126-0.445-0.352-0.615-0.645c-0.313-0.54-0.085-1.318-0.085-1.318c0.005-0.022-0.006-0.062-0.029-0.087l-0.789-0.829
						c-0.064-0.009-0.459,0.59-0.904,0.335c-0.444-0.254-0.844-1.313-0.844-1.313c-0.011-0.033-0.041-0.062-0.063-0.064l-0.788-0.08
						c-0.028,0.056,0.202,1.097-0.111,1.275c-0.17,0.099-0.394,0.068-0.617-0.063c-0.188-0.108-0.491-0.469-0.491-0.469
						c-0.06-0.012-0.386,0.706-0.386,0.706c-0.008,0.021,0.002,0.061,0.025,0.086c0,0,0.721,0.874,0.722,1.381
						c0,0.512-0.72,0.553-0.72,0.553c-0.025,0.058,0.303,1.151,0.303,1.151c0.01,0.032,0.04,0.062,0.063,0.067
						c0,0,0.791,0.197,1.104,0.736c0.314,0.54,0.087,1.317,0.087,1.317c-0.007,0.022,0.006,0.063,0.027,0.089l0.789,0.829
						c0.063,0.008,0.461-0.591,0.905-0.334c0.442,0.254,0.842,1.313,0.842,1.313c0.011,0.032,0.04,0.062,0.064,0.067l0.787,0.076
						c0.028-0.056-0.201-1.095,0.112-1.273c0.313-0.177,1.106,0.541,1.106,0.541c0.063,0.003,0.39-0.712,0.39-0.712
						C94.179,368.708,94.168,368.669,94.147,368.645z M90.87,366.39c-0.292-0.166-0.528-0.575-0.528-0.908
						c0-0.336,0.236-0.472,0.528-0.302c0.291,0.169,0.527,0.575,0.527,0.911C91.397,366.424,91.161,366.559,90.87,366.39z"/>
				</g>
			</g>
			<g>
				<g>
					<polygon fill="#93ACF1" points="160.862,382.139 135.442,367.463 135.442,366.289 160.862,380.965 					"/>
				</g>
				<g>
					<polygon fill="#93ACF1" points="160.063,384.38 135.442,370.164 135.442,368.991 160.063,383.208 					"/>
				</g>
				<g>
					<polygon fill="#93ACF1" points="157.916,385.843 135.442,372.867 135.442,371.696 157.916,384.67 					"/>
				</g>
				<g>
					<polygon fill="#93ACF1" points="156.484,387.717 135.442,375.571 135.442,374.398 156.484,386.545 					"/>
				</g>
				<g>
					<polygon fill="#93ACF1" points="155.217,389.69 135.442,378.274 135.442,377.102 155.217,388.516 					"/>
				</g>
				<g>
					<polygon fill="#93ACF1" points="153.647,391.485 135.442,380.977 135.442,379.802 153.647,390.315 					"/>
				</g>
			</g>
		</g>
	</g>
	<g>
		<path opacity="0.6" fill="#2A49A7" d="M98.437,483.331c-6.92,3.995-18.176,3.973-25.14-0.047
			c-6.963-4.019-6.998-10.519-0.078-14.514c6.919-3.996,18.176-3.975,25.14,0.045C105.322,472.836,105.357,479.333,98.437,483.331z"
			/>
		<g>
			<path fill="#254296" d="M87.677,480.675c0,0-0.925,1.592,0.225,2.998c1.152,1.405,9.952-1.581,11.784-5.455
				c1.833-3.873-6.845-1.397-8.875-0.061S87.677,480.675,87.677,480.675z"/>
			<path fill="#254296" d="M75.901,473.68c0,0-0.925,1.592,0.227,3c1.151,1.405,9.951-1.582,11.782-5.457
				c1.833-3.873-6.845-1.396-8.874-0.059C77.005,472.501,75.901,473.68,75.901,473.68z"/>
			<path fill="#CDDAEC" d="M94.469,431.585l-0.105,28.04c0,0-1.208,18.546-1.208,19.776c0,2.824-4.674,3.172-4.848,1.98
				c-0.174-1.194-1.554-23.919-1.554-23.919l-2.299-18.274l-0.92,14.52c0,0-2.279,15.343-2.405,17.548
				c-0.124,2.208-4.648,3.829-4.648,1.968c0-1.862-1.363-45.561-1.363-45.561L94.469,431.585z"/>
			<linearGradient id="SVGID_13_" gradientUnits="userSpaceOnUse" x1="84.1846" y1="395.0396" x2="85.9331" y2="431.1232">
				<stop  offset="0" style="stop-color:#3C6BEB"/>
				<stop  offset="1" style="stop-color:#2A49A7"/>
			</linearGradient>
			<path fill="url(#SVGID_13_)" d="M93.172,399.624c0,0-12.479-6.55-15.65-4.951c-3.169,1.599-3.08,3.654-3.259,11.701
				c-0.179,8.046,0.895,21.813,0.895,21.813s6.436,4.917,12.069,4.917c5.632,0,7.242-1.519,7.242-1.519
				S97.941,401.903,93.172,399.624z"/>
			<path fill="#93ACF1" d="M107.603,413.763c0,0,1.336-1.104,2.507-4.043c1.173-2.939,1.281-4.179,0.274-5.55
				c-1.007-1.372-2.104-0.415-2.557,0.818c-0.452,1.235-0.662,1.487-0.662,1.487s-0.038-1.036-0.58-0.961
				c-0.542,0.078-0.516,0.181-0.715,2.313c-0.2,2.134-0.201,3.3-0.201,3.3L107.603,413.763z"/>
			
				<linearGradient id="SVGID_14_" gradientUnits="userSpaceOnUse" x1="-15469.6074" y1="-4618.8579" x2="-15475.8682" y2="-4646.9971" gradientTransform="matrix(-0.4815 -0.8764 0.8764 -0.4815 -3292.8704 -15370.2676)">
				<stop  offset="0" style="stop-color:#3C6BEB"/>
				<stop  offset="1" style="stop-color:#2A49A7"/>
			</linearGradient>
			<path fill="url(#SVGID_14_)" d="M100.311,421.8c0,0,6.229-5.129,8.51-9.355c0.367-0.683-1.438-3.27-3.226-3.225
				c-0.609,0.479-9.267,8.945-9.267,8.945S97.25,423.504,100.311,421.8z"/>
			<g>
				
					<linearGradient id="SVGID_15_" gradientUnits="userSpaceOnUse" x1="-1999.7163" y1="1837.0269" x2="-2007.2673" y2="1803.0868" gradientTransform="matrix(0.9647 -0.2632 0.2632 0.9647 1552.2699 -1867.3151)">
					<stop  offset="0" style="stop-color:#3C6BEB"/>
					<stop  offset="1" style="stop-color:#2A49A7"/>
				</linearGradient>
				<path fill="url(#SVGID_15_)" d="M91.468,409.687c-1.008-3.119-2.755-8.967-0.382-9.8c2.374-0.828,5.008,1.041,6.861,7.341
					c1.005,3.42,2.811,8.155,3.098,11.12c0.241,2.497-0.861,3.492-1.787,3.827C97.234,422.912,92.808,413.83,91.468,409.687z"/>
			</g>
			<path fill="#93ACF1" d="M81.943,389.363v5.946c0,0,2.111,2.664,5.271,1.521c0.561-1.108,0.694-4.674,0.336-6.237
				C87.193,389.028,81.943,389.363,81.943,389.363z"/>
			<path fill="#93ACF1" d="M93.074,384.291c0,0,1.014,9.715-4.351,10.67c-5.363,0.952-7.986-3.516-8.165-8.346
				C80.021,380.476,91.345,374.637,93.074,384.291z"/>
		</g>
		<path fill="#2A49A7" d="M88.895,391.367c0,0-2.43,3.185-5.195,3.185s-4.106-6.704-4.106-8.632s1.843-8.209,8.798-7.122
			c6.954,1.091,6.787,3.938,5.111,5.866S88.225,387.932,88.895,391.367z"/>
		<path fill="#93ACF1" d="M90.174,388.605c0,0-0.95-2.478-1.907-0.919c-0.958,1.558,0.208,2.886,0.955,3.632
			C89.967,392.064,91.249,390.333,90.174,388.605z"/>
	</g>
</g>
<g>
	<g>
		<g opacity="0.2">
			<path fill="#2848A6" d="M462.231,414.709c-3.514,2.028-3.53,5.348-0.039,7.377l34.301,19.936c3.493,2.029,9.225,2.029,12.739,0
				l34.526-19.936c3.516-2.029,3.533-5.349,0.042-7.377l-34.302-19.936c-3.492-2.028-9.226-2.028-12.739,0L462.231,414.709z"/>
		</g>
		<g>
			<g enable-background="new    ">
				<path fill="#93ACF1" d="M462.192,400.538l34.301,19.934c3.493,2.027,9.225,2.027,12.739,0l34.526-19.934
					c1.769-1.021,2.652-2.37,2.65-3.718l0.001,1.103c0.004,1.349-0.879,2.695-2.65,3.717l-34.525,19.933
					c-3.512,2.029-9.246,2.029-12.737,0l-34.302-19.933c-1.736-1.01-2.604-2.336-2.608-3.666l-0.001-1.102
					C459.587,398.201,460.457,399.528,462.192,400.538z"/>
				<g>
					<path fill="#E8ECFD" d="M462.231,393.157c-3.514,2.031-3.53,5.352-0.039,7.381l34.301,19.934c3.493,2.027,9.225,2.027,12.739,0
						l34.526-19.934c3.516-2.029,3.533-5.35,0.042-7.379l-34.302-19.935c-3.492-2.029-9.226-2.029-12.739,0L462.231,393.157z"/>
				</g>
			</g>
		</g>
	</g>
	<path fill="#2A49A7" d="M496.759,373.224c3.514-2.029,9.247-2.029,12.739,0l34.302,19.933c3.491,2.031,3.474,5.352-0.042,7.381
		l-5.009,2.891l-47.154-27.224L496.759,373.224z"/>
	<g>
		<g>
			<polygon fill="#93ACF1" points="491.056,387.244 517.736,402.648 521.73,400.339 495.05,384.938 			"/>
		</g>
	</g>
	<g>
		<g>
			<path fill="#93ACF1" d="M501.389,407.417c-5.376,3.103-14.116,3.086-19.524-0.034c-5.408-3.123-5.435-8.17-0.062-11.271
				c5.376-3.104,14.115-3.088,19.525,0.035C506.736,399.266,506.763,404.313,501.389,407.417z"/>
		</g>
		<g>
			<path fill="#FFFFFF" d="M485.074,404.141c-0.387-0.223-0.589-0.529-0.553-0.845l0.535-4.684c0.069-0.601,0.964-1.051,2.003-1.006
				c1.037,0.044,1.823,0.564,1.755,1.162l-0.386,3.362l11.906-0.87c1.031-0.075,1.975,0.347,2.111,0.941
				c0.139,0.597-0.585,1.141-1.616,1.215l-14.184,1.035c-0.559,0.042-1.122-0.065-1.533-0.288
				C485.098,404.155,485.085,404.148,485.074,404.141z"/>
		</g>
	</g>
</g>
<g>
	<g>
		<g opacity="0.2">
			<path fill="#2848A6" d="M348.876,296.409c3.516,2.029,3.533,5.351,0.041,7.38l-34.301,19.932c-3.492,2.031-9.225,2.031-12.741,0
				l-34.526-19.93c-3.514-2.03-3.532-5.353-0.041-7.382l34.301-19.935c3.492-2.028,9.226-2.028,12.74,0L348.876,296.409z"/>
		</g>
		<g>
			<g enable-background="new    ">
				<path fill="#93ACF1" d="M348.917,282.237l-34.301,19.935c-3.492,2.029-9.225,2.029-12.741,0l-34.525-19.935
					c-1.769-1.021-2.652-2.369-2.649-3.714l-0.002,1.102c-0.003,1.345,0.879,2.693,2.648,3.714l34.526,19.935
					c3.514,2.03,9.248,2.03,12.74,0l34.301-19.935c1.734-1.007,2.603-2.334,2.606-3.663l0.002-1.102
					C351.521,279.903,350.653,281.229,348.917,282.237z"/>
				<g>
					<path fill="#E8ECFD" d="M348.876,274.859c3.516,2.028,3.533,5.349,0.041,7.377l-34.301,19.935
						c-3.492,2.029-9.225,2.029-12.741,0l-34.526-19.934c-3.514-2.029-3.532-5.351-0.041-7.378l34.301-19.936
						c3.492-2.028,9.226-2.028,12.74,0L348.876,274.859z"/>
				</g>
			</g>
		</g>
	</g>
	<path fill="#2A49A7" d="M314.35,254.924c-3.515-2.028-9.248-2.028-12.74,0l-34.301,19.936c-3.492,2.028-3.474,5.349,0.041,7.377
		l5.009,2.892l47.154-27.224L314.35,254.924z"/>
	<g>
		<g>
			<polygon fill="#93ACF1" points="320.054,268.946 293.374,284.349 289.377,282.042 316.056,266.638 			"/>
		</g>
		<g>
			<polygon fill="#93ACF1" points="328.423,274.745 302.581,289.667 298.586,287.358 324.427,272.438 			"/>
		</g>
		<g>
			<polygon fill="#93ACF1" points="335.375,281.363 311.791,294.982 307.794,292.674 331.381,279.056 			"/>
		</g>
	</g>
</g>
<g>
	<g>
		<g enable-background="new    ">
			<path fill="#93ACF1" d="M741.519,300.447l-34.301,19.935c-3.49,2.028-9.226,2.028-12.741,0l-34.524-19.935
				c-1.77-1.021-2.651-2.368-2.647-3.715l-0.004,1.102c-0.005,1.347,0.879,2.695,2.648,3.716l34.525,19.934
				c3.516,2.029,9.251,2.029,12.741,0l34.301-19.934c1.733-1.009,2.603-2.336,2.606-3.664l0.003-1.102
				C744.124,298.112,743.255,299.439,741.519,300.447z"/>
			<g>
				<path fill="#E8ECFD" d="M741.479,293.067c3.515,2.029,3.534,5.351,0.04,7.38l-34.301,19.935c-3.49,2.028-9.226,2.028-12.741,0
					l-34.524-19.935c-3.514-2.028-3.535-5.351-0.041-7.38l34.301-19.933c3.491-2.029,9.227-2.029,12.741,0L741.479,293.067z"/>
			</g>
		</g>
	</g>
	<g>
		<g>
			<g enable-background="new    ">
				<g>
					<polygon fill="#2C488C" points="700.74,268.351 700.714,293.952 674.877,293.884 674.904,268.286 					"/>
				</g>
				<g>
					<polygon fill="#20397D" points="722.177,276.737 722.153,302.336 700.714,293.952 700.74,268.351 					"/>
				</g>
				<g>
					<path fill="#345BBB" d="M726.574,268.416l-0.025,25.601c-0.005,3.084-1.627,5.943-4.396,8.32l0.024-25.6
						C724.946,274.361,726.569,271.5,726.574,268.416z"/>
				</g>
				<g>
					<path fill="#2A49A7" d="M718.949,257.769c4.714,2.723,7.633,6.492,7.625,10.646c-0.005,3.085-1.628,5.946-4.396,8.321
						l-21.438-8.386l-25.836-0.065c0.018-8.266,11.595-14.936,25.865-14.899C707.862,253.406,714.284,255.075,718.949,257.769z"/>
				</g>
			</g>
		</g>
		<g>
			<g enable-background="new    ">
				<g>
					<polygon fill="#93ACF1" points="700.74,276.822 700.714,293.942 682.719,304.602 682.744,287.483 					"/>
				</g>
				<g>
					<path fill="#CDDAEC" d="M700.74,276.822l-17.996,10.661c-0.104-0.017-0.131-0.032-0.158-0.05
						c-0.08-0.045-0.16-0.091-0.24-0.139c-0.067-0.039-0.137-0.082-0.205-0.122c-0.08-0.049-0.157-0.098-0.239-0.147
						c-0.063-0.038-0.125-0.076-0.188-0.117c-0.085-0.053-0.166-0.106-0.25-0.16c-0.053-0.035-0.111-0.071-0.165-0.108
						c-0.089-0.061-0.183-0.119-0.271-0.181c-0.044-0.03-0.087-0.06-0.128-0.092c-0.104-0.069-0.204-0.142-0.304-0.213
						c-0.027-0.021-0.054-0.041-0.082-0.06c-0.118-0.088-0.234-0.174-0.349-0.261c-1.32-1.015-2.401-2.098-3.235-3.248
						c-1.074-1.48-1.731-3.047-1.945-4.642c-0.019-0.141-0.029-0.237-0.038-0.332c-0.004-0.031-0.007-0.065-0.009-0.096
						c-0.01-0.089-0.015-0.18-0.02-0.271c-0.001-0.036-0.006-0.071-0.007-0.109c-0.006-0.128-0.008-0.253-0.007-0.377
						L700.74,276.822z"/>
				</g>
				<path fill="#A7BCF3" d="M682.585,287.433c-0.08-0.045-0.16-0.091-0.24-0.139c-0.067-0.039-0.137-0.082-0.205-0.122
					c-0.08-0.049-0.157-0.098-0.239-0.147c-0.063-0.038-0.125-0.076-0.188-0.117c-0.085-0.053-0.166-0.106-0.25-0.16
					c-0.053-0.035-0.111-0.07-0.165-0.108c-0.089-0.061-0.183-0.119-0.271-0.181c-0.044-0.03-0.087-0.06-0.128-0.092
					c-0.104-0.069-0.204-0.142-0.304-0.213c-0.027-0.021-0.054-0.041-0.082-0.06c-0.118-0.088-0.234-0.174-0.349-0.261
					c-1.32-1.015-2.401-2.098-3.235-3.248c-1.074-1.48-1.731-3.047-1.945-4.642c-0.019-0.141-0.029-0.237-0.038-0.332
					c-0.004-0.031-0.007-0.065-0.009-0.096c-0.01-0.089-0.015-0.18-0.02-0.271c-0.001-0.036-0.006-0.071-0.007-0.109
					c-0.006-0.124-0.008-0.241-0.007-0.365l-0.026,17.121c0,0.122,0.006,0.24,0.009,0.365c0.001,0.036,0.006,0.071,0.008,0.109
					c0.005,0.09,0.007,0.181,0.018,0.271c0.001,0.03,0.006,0.063,0.01,0.095c0.007,0.094,0.019,0.19,0.03,0.285
					c0.222,1.641,0.877,3.208,1.95,4.689c0.84,1.149,1.918,2.233,3.237,3.246c0.114,0.087,0.231,0.174,0.348,0.26
					c0.028,0.02,0.057,0.042,0.084,0.061c0.099,0.073,0.2,0.144,0.304,0.215c0.041,0.031,0.086,0.06,0.127,0.091
					c0.09,0.061,0.183,0.119,0.272,0.182c0.054,0.035,0.109,0.072,0.164,0.108c0.082,0.056,0.164,0.106,0.249,0.159
					c0.064,0.041,0.127,0.078,0.189,0.12c0.081,0.049,0.159,0.096,0.24,0.145c0.067,0.042,0.137,0.082,0.203,0.123
					c0.081,0.046,0.16,0.093,0.241,0.139c0.027,0.017,0.053,0.032,0.158,0.048l0.024-17.12
					C682.639,287.466,682.613,287.451,682.585,287.433z"/>
			</g>
		</g>
		<g>
			<g enable-background="new    ">
				<path fill="#2E51AE" d="M721.258,292.316c-0.188,0.14-0.335,0.248-0.486,0.357c-0.361,0.253-0.693,0.475-1.033,0.688
					c-0.036,0.022-0.07,0.045-0.105,0.063c-0.137,0.087-0.278,0.173-0.421,0.257c-0.035,0.019-0.069,0.039-0.104,0.061
					c-4.254,2.484-9.92,4.037-15.994,4.351c-0.249,0.015-0.486,0.022-0.725,0.033c-0.048,0.002-0.097,0.003-0.145,0.004
					c-0.202,0.006-0.402,0.012-0.604,0.015c-0.061,0.002-0.12,0.002-0.181,0.003c-0.252,0.003-0.502,0.006-0.755,0.006
					c-6.959-0.018-13.306-1.663-17.966-4.304l-0.024,10.76c4.659,2.643,11.007,4.287,17.966,4.304c0.253,0,0.503-0.001,0.756-0.005
					c0.058-0.001,0.12-0.002,0.181-0.004c0.2-0.002,0.4-0.008,0.602-0.015c0.05,0,0.099-0.002,0.146-0.006
					c0.239-0.007,0.475-0.017,0.727-0.03c6.073-0.313,11.737-1.867,15.993-4.351c0.035-0.021,0.069-0.042,0.103-0.063
					c0.144-0.084,0.283-0.168,0.42-0.254c0.037-0.021,0.071-0.042,0.107-0.063c0.34-0.216,0.672-0.436,1.032-0.689
					c0.152-0.108,0.301-0.216,0.488-0.356c0.316-0.24,0.626-0.489,0.917-0.742l0.025-10.759
					C721.885,291.828,721.574,292.075,721.258,292.316z"/>
				<g>
					<path fill="#3C6BEB" d="M722.177,291.576c-0.292,0.252-0.604,0.499-0.919,0.74c-0.188,0.14-0.335,0.248-0.486,0.357
						c-0.361,0.253-0.693,0.475-1.033,0.688c-0.036,0.022-0.07,0.045-0.105,0.063c-0.137,0.087-0.278,0.173-0.421,0.257
						c-0.035,0.019-0.069,0.039-0.104,0.061c-4.254,2.484-9.92,4.037-15.994,4.351c-0.249,0.015-0.486,0.022-0.725,0.033
						c-0.048,0.002-0.097,0.003-0.145,0.003c-0.202,0.007-0.402,0.013-0.604,0.016c-0.061,0.002-0.12,0.002-0.181,0.003
						c-0.252,0.003-0.502,0.006-0.755,0.006c-6.959-0.018-13.306-1.663-17.966-4.304l17.995-10.661L722.177,291.576z"/>
				</g>
			</g>
		</g>
	</g>
</g>
<g>
	<g opacity="0.9">
		<path fill="#2848A6" d="M861.58,117.782c3.516,2.03,3.534,5.351,0.043,7.38l-77.977,45.127c-3.492,2.028-9.226,2.028-12.74,0
			l-81.396-46.977c-3.516-2.029-3.533-5.351-0.039-7.38l77.974-45.127c3.491-2.029,9.227-2.029,12.741,0L861.58,117.782z"/>
	</g>
	<g>
		<g>
			<path fill="#FFFFFF" d="M777.285,151.757c-2.377,0-4.76-0.524-6.576-1.573l-81.393-46.977c-1.834-1.057-2.845-2.493-2.846-4.042
				c-0.004-1.539,0.993-2.965,2.802-4.016l77.976-45.128c3.608-2.096,9.501-2.097,13.133,0l81.396,46.977
				c1.831,1.058,2.844,2.494,2.845,4.042c0.001,1.539-0.993,2.966-2.803,4.016l-77.978,45.128
				C782.039,151.232,779.663,151.757,777.285,151.757z M773.807,49.223c-2.237,0-4.469,0.493-6.164,1.479l-77.976,45.126
				c-1.558,0.904-2.413,2.089-2.411,3.336c0.001,1.257,0.872,2.452,2.45,3.363l81.396,46.976c3.417,1.972,8.953,1.972,12.347,0.001
				l77.976-45.127c1.557-0.904,2.413-2.089,2.412-3.337c-0.003-1.257-0.874-2.45-2.452-3.362L779.99,50.702
				C778.282,49.715,776.042,49.223,773.807,49.223z"/>
		</g>
	</g>
	<g>
		<g enable-background="new    ">
			<path fill="#93ACF1" d="M861.623,98.72l-77.977,45.125c-3.492,2.031-9.226,2.031-12.74,0L689.51,96.87
				c-1.768-1.021-2.65-2.369-2.647-3.714l-0.003,1.101c-0.005,1.346,0.881,2.694,2.647,3.715l81.395,46.977
				c3.515,2.029,9.25,2.029,12.74,0l77.976-45.125c1.737-1.009,2.604-2.336,2.606-3.665l0.003-1.101
				C864.224,96.385,863.357,97.711,861.623,98.72z"/>
			<g>
				<path fill="#FFFFFF" d="M861.58,91.34c3.516,2.028,3.534,5.35,0.043,7.379l-77.977,45.125c-3.492,2.031-9.226,2.031-12.74,0.001
					L689.51,96.87c-3.516-2.028-3.533-5.35-0.039-7.379l77.974-45.126c3.491-2.029,9.227-2.029,12.741,0L861.58,91.34z"/>
			</g>
		</g>
	</g>
	<g>
		<g>
			<path fill="#254284" d="M726.826,88.021c0,0,4.807,1.539,7.978,3.697l-5.126,3.135l-3.299-0.596v8.537
				c-0.009,0.076-0.011,0.155,0.035,0.232l4.832,6.772c0.161,0.189,0.582,0.296,0.933,0.239c0,0,11.784-1.95,16.44,0.747
				c0.55,0.319,0.959,0.655,1.286,1.027v8.604c0.034,0.211,0.199,0.36,0.439,0.429l11.722,2.803c0.346,0.067,0.774-0.03,0.95-0.214
				c0,0,5.929-6.192,12.523-6.192c6.595,0.001,12.521,6.196,12.521,6.196c0.175,0.185,0.604,0.28,0.95,0.214l11.723-2.801
				c0.327-0.093,0.514-0.335,0.411-0.538c0,0-3.391-6.801,1.273-9.492c4.667-2.693,16.443-0.728,16.443-0.728
				c0.354,0.058,0.771-0.047,0.935-0.237l4.859-6.766c0.032-0.056,0.04-0.114,0.033-0.173v-8.542l-8.06-2.816
				c3.173-2.044,7.673-3.477,7.673-3.477c0.261-0.083,0.421-0.265,0.405-0.437c0.004,0,0.004-8.606,0.004-8.606l-19.176-3.184
				l-4.342-5.823V61.53l-21.314,4.669l-12.684-0.036l-17.231-4.633v8.583c-0.002,0.052,0.004,0.1,0.027,0.147
				c0,0,0.411,0.827,0.751,2.018L726.378,79v8.728C726.516,87.861,726.646,87.964,726.826,88.021z M754.976,90.985
				c0.932-2.021,2.771-3.934,5.517-5.519c8.315-4.8,21.797-4.8,30.111,0c2.747,1.585,4.586,3.497,5.518,5.518
				c-0.932,2.021-2.771,3.933-5.518,5.518c-8.314,4.801-21.796,4.801-30.111,0C757.748,94.917,755.908,93.005,754.976,90.985z"/>
			<path fill="#2A49A7" d="M726.826,86.88c0,0,4.807,1.539,7.978,3.699l-5.126,3.135l-3.299-0.597v8.538
				c-0.009,0.075-0.011,0.155,0.035,0.231l4.832,6.773c0.161,0.188,0.582,0.296,0.933,0.238c0,0,11.784-1.951,16.44,0.748
				c0.55,0.317,0.959,0.655,1.286,1.026v8.603c0.034,0.211,0.199,0.361,0.439,0.43l11.722,2.803c0.346,0.067,0.774-0.029,0.95-0.214
				c0,0,5.929-6.193,12.523-6.192c6.595,0.002,12.521,6.195,12.521,6.195c0.175,0.185,0.604,0.281,0.95,0.215l11.723-2.8
				c0.327-0.093,0.514-0.335,0.411-0.539c0,0-3.391-6.801,1.273-9.492c4.667-2.691,16.443-0.727,16.443-0.727
				c0.354,0.059,0.771-0.048,0.935-0.236l4.859-6.767c0.032-0.056,0.04-0.115,0.033-0.173v-8.542l-8.06-2.816
				c3.173-2.044,7.673-3.478,7.673-3.478c0.261-0.083,0.421-0.265,0.405-0.437c0.004,0,0.004-8.605,0.004-8.605l-19.176-3.185
				l-4.342-5.823V60.39l-21.314,4.668l-12.684-0.035l-17.231-4.633v8.584c-0.002,0.051,0.004,0.1,0.027,0.146
				c0,0,0.411,0.827,0.751,2.019l-24.363,6.72v8.727C726.516,86.72,726.646,86.823,726.826,86.88z M754.976,89.844
				c0.932-2.022,2.771-3.933,5.517-5.519c8.315-4.801,21.797-4.801,30.111,0c2.747,1.585,4.586,3.497,5.518,5.519
				c-0.932,2.021-2.771,3.932-5.518,5.517c-8.314,4.802-21.796,4.802-30.111,0C757.748,93.775,755.908,91.865,754.976,89.844z"/>
			<g>
				<path fill="#93ACF1" d="M801.168,110.688c0.005-0.045-0.001-0.09-0.024-0.133c0,0-3.391-6.802,1.273-9.494
					c1.896-1.094,4.97-1.417,7.949-1.417c4.347,0,8.494,0.691,8.494,0.691c0.066,0.01,0.134,0.017,0.201,0.017
					c0.297,0,0.602-0.1,0.733-0.254l4.859-6.766c0.016-0.031,0.027-0.063,0.032-0.095c0.001,0,0.001,1.74,0.001,1.74l-4.093,5.698
					c-0.018,0.024-0.034,0.045-0.053,0.068c-0.322,0.373-0.876,0.596-1.48,0.596c-0.123,0-0.247-0.01-0.362-0.031
					c-0.042-0.006-4.124-0.677-8.333-0.677c-3.418,0-5.997,0.444-7.457,1.287c-3.49,2.014-1.357,7.151-0.946,8.06
					C801.66,110.194,801.394,110.433,801.168,110.688z"/>
				<path fill="#93ACF1" d="M726.378,93.117c-0.004,0.05,0.005,0.101,0.035,0.151l4.832,6.773c0.133,0.154,0.437,0.253,0.734,0.253
					c0.068,0,0.134-0.005,0.198-0.016c0,0,4.116-0.681,8.445-0.681c2.995,0,6.093,0.326,7.995,1.429
					c4.711,2.721,1.315,9.521,1.315,9.521c-0.104,0.204,0.083,0.446,0.41,0.539l11.722,2.803c0.074,0.015,0.152,0.021,0.23,0.021
					c0.286,0,0.581-0.091,0.72-0.235c0,0,5.929-6.192,12.523-6.192c6.595,0.001,12.521,6.195,12.521,6.195
					c0.138,0.145,0.43,0.234,0.719,0.234c0.08,0,0.158-0.006,0.231-0.02l11.723-2.8c0.063-0.019,0.115-0.042,0.167-0.069
					c-0.271,0.374-0.474,0.773-0.621,1.189l-11.039,2.637c-0.177,0.036-0.317,0.048-0.461,0.048c-0.574,0-1.11-0.202-1.432-0.54
					c-0.057-0.059-5.723-5.889-11.808-5.89c-6.086-0.001-11.754,5.828-11.811,5.887c-0.324,0.337-0.856,0.54-1.433,0.54
					c-0.143,0-0.284-0.014-0.416-0.039c-0.045-0.009-11.767-2.813-11.767-2.813c-0.098-0.027-0.152-0.046-0.209-0.068v-1.305
					c-0.224-0.252-0.488-0.488-0.789-0.705c0.412-0.913,2.532-6.053-0.942-8.059c-1.512-0.876-4.106-1.325-7.55-1.325
					c-4.191,0-8.242,0.661-8.284,0.667c-0.116,0.02-0.237,0.029-0.359,0.029c-0.608,0-1.161-0.223-1.482-0.599
					c-0.02-0.022-0.036-0.045-0.055-0.068l-4.064-5.695V93.117z"/>
				<path fill="#93ACF1" d="M726.42,77.847c0.001,0.165,0.155,0.335,0.405,0.413c0,0,10.719,3.432,10.706,7.239
					c-0.004,1.847-1.17,3.534-3.096,4.836c-0.305-0.195-0.618-0.384-0.942-0.567c1.966-1.202,3.048-2.71,3.05-4.272
					c0.002-0.531-0.462-2-4.8-4.162c-2.581-1.285-5.191-2.126-5.218-2.135c-0.051-0.017-0.099-0.035-0.147-0.054v-1.287
					L726.42,77.847z"/>
				<path fill="#93ACF1" d="M824.71,77.9v1.322c-0.04,0.014-0.072,0.029-0.111,0.041c-0.024,0.008-2.659,0.853-5.245,2.138
					c-4.333,2.152-4.802,3.618-4.802,4.148c-0.001,0.498,0.408,1.818,4.029,3.758c-0.35,0.178-0.694,0.363-1.032,0.556
					c-2.15-1.229-3.987-2.739-3.984-4.314c0.005-3.807,10.736-7.226,10.736-7.226c0.254-0.081,0.41-0.255,0.404-0.423L824.71,77.9z"
					/>
				<path fill="#93ACF1" d="M749.991,60.501c0,0,2.68,5.391-0.027,8.473v-2.045c0.338-1.113,0.232-2.363,0-3.432V60.39
					C749.967,60.427,749.973,60.465,749.991,60.501z"/>
				<path fill="#93ACF1" d="M801.193,66.914v1.978l0.34,0.459c-3.12-2.894-0.543-8.382-0.34-8.792v3.1
					C800.979,64.684,800.89,65.858,801.193,66.914z"/>
				<path fill="#93ACF1" d="M761.002,77.134c4.017-2.318,9.281-3.479,14.548-3.479c5.264,0,10.53,1.161,14.546,3.479
					c5.382,3.108,7.157,7.51,5.329,11.472c-0.207-0.31-0.434-0.615-0.684-0.916c0.26-0.704,0.393-1.427,0.393-2.156
					c0-2.806-1.963-5.485-5.53-7.544c-3.739-2.159-8.729-3.347-14.054-3.348c-5.327,0-10.317,1.189-14.055,3.348
					c-3.568,2.06-5.534,4.739-5.534,7.544c0,0.729,0.136,1.452,0.396,2.156c-0.252,0.3-0.479,0.606-0.684,0.916
					C753.843,84.644,755.619,80.243,761.002,77.134z"/>
			</g>
			<path fill="#3965E5" d="M750.344,111.085l11.722,2.803c0.346,0.066,0.774-0.029,0.95-0.213c0,0,5.929-6.192,12.523-6.192
				c6.595,0.001,12.521,6.195,12.521,6.195c0.175,0.184,0.604,0.28,0.95,0.214l11.723-2.8c0.327-0.094,0.514-0.336,0.411-0.539
				c0,0-3.391-6.802,1.273-9.494c4.667-2.691,16.443-0.726,16.443-0.726c0.354,0.059,0.771-0.049,0.935-0.237l4.859-6.766
				c0.114-0.2-0.052-0.447-0.372-0.549c0,0-10.722-3.426-10.718-7.233c0.005-3.807,10.736-7.226,10.736-7.226
				c0.319-0.101,0.487-0.348,0.369-0.548l-4.842-6.77c-0.163-0.19-0.583-0.295-0.934-0.237c0,0-11.781,1.956-16.44-0.74
				c-4.659-2.696-1.25-9.494-1.25-9.494c0.101-0.202-0.084-0.445-0.412-0.538l-11.717-2.81c-0.347-0.067-0.719,0.043-0.826,0.245
				c0,0-1.515,2.823-3.49,3.964c-2.347,1.355-5.587,2.191-9.168,2.189c-6.595-0.004-12.51-6.202-12.51-6.202
				c-0.176-0.184-0.603-0.281-0.949-0.214l-11.728,2.794c-0.328,0.093-0.514,0.336-0.414,0.538c0,0,3.382,6.802-1.288,9.491
				c-4.67,2.689-16.445,0.719-16.445,0.719c-0.349-0.059-0.771,0.048-0.932,0.236l-4.87,6.764c-0.116,0.2,0.051,0.448,0.37,0.548
				c0,0,10.719,3.432,10.706,7.239c-0.004,2.059-1.453,3.923-3.793,5.273c-1.982,1.146-6.9,2.018-6.9,2.018
				c-0.349,0.063-0.542,0.277-0.425,0.477l4.832,6.773c0.161,0.189,0.582,0.296,0.933,0.238c0,0,11.784-1.95,16.44,0.748
				c4.711,2.721,1.315,9.521,1.315,9.521C749.831,110.75,750.017,110.993,750.344,111.085z M761.002,93.933
				c-8.036-4.638-8.036-12.159,0-16.798c8.034-4.638,21.06-4.638,29.094,0c8.033,4.639,8.033,12.161,0,16.798
				C782.062,98.571,769.035,98.571,761.002,93.933z"/>
		</g>
	</g>
</g>
<g>
	<g opacity="0.2">
		<path fill="#2848A6" d="M326.597,176.55c4.273,2.468,4.291,6.465,0.05,8.93l-85.678,49.79c-4.242,2.466-11.143,2.467-15.416,0
			l-86.235-49.788c-4.273-2.466-4.296-6.466-0.054-8.932l85.678-49.789c4.242-2.465,11.148-2.465,15.42,0.001L326.597,176.55z"/>
	</g>
	<g>
		<g enable-background="new    ">
			<path fill="#93ACF1" d="M326.646,151.932l-85.678,49.79c-4.242,2.465-11.143,2.468-15.416,0l-86.235-49.788
				c-2.15-1.242-3.225-2.871-3.22-4.499l-0.008,2.857c-0.004,1.627,1.07,3.256,3.22,4.499l86.235,49.788
				c4.272,2.467,11.174,2.465,15.417,0l85.677-49.791c2.107-1.225,3.164-2.828,3.167-4.433l0.007-2.857
				C329.811,149.103,328.756,150.706,326.646,151.932z"/>
			<g>
				<path fill="#FFFFFF" d="M326.597,143c4.273,2.468,4.291,6.466,0.05,8.931l-85.678,49.791c-4.242,2.464-11.143,2.465-15.416,0
					l-86.235-49.789c-4.273-2.466-4.296-6.466-0.054-8.931l85.678-49.792c4.242-2.465,11.148-2.465,15.42,0.002L326.597,143z"/>
			</g>
		</g>
	</g>
</g>
<g>
	<g>
		<polygon fill="#79A8EE" points="241.201,156.459 232.261,151.297 242.584,145.338 251.524,150.499 		"/>
		<polygon fill="#3258B3" points="232.261,151.297 232.261,107.018 241.145,106.649 241.201,156.459 		"/>
		<polygon fill="#27468D" points="251.524,106.218 251.524,150.499 241.201,156.459 241.201,109.916 		"/>
		<polygon fill="#2A49A7" points="241.201,112.179 232.261,107.018 242.584,101.058 251.524,106.218 		"/>
	</g>
	<g>
		<polygon fill="#79A8EE" points="227.099,164.488 218.159,159.326 228.482,153.367 237.423,158.528 		"/>
		<polygon fill="#7490E8" points="218.159,159.326 218.159,124.63 227.042,124.262 227.099,164.488 		"/>
		<polygon fill="#2949B4" points="237.423,123.832 237.423,158.528 227.099,164.488 227.099,127.528 		"/>
		<polygon fill="#3C6BEB" points="227.099,129.792 218.159,124.63 228.482,118.669 237.423,123.832 		"/>
	</g>
	<g>
		<polygon fill="#79A8EE" points="212.999,172.517 204.058,167.355 214.381,161.396 223.321,166.557 		"/>
		<polygon fill="#E8ECFD" points="204.058,167.355 204.058,153.766 212.94,153.397 212.999,172.517 		"/>
		<polygon fill="#93ACF1" points="223.321,152.967 223.321,166.557 212.999,172.517 212.999,156.664 		"/>
		<polygon fill="#CDDAEC" points="212.999,158.927 204.058,153.766 214.381,147.806 223.321,152.967 		"/>
	</g>
</g>
</svg>
