<?xml version="1.0" standalone="no"?><!DOCTYPE svg PUBLIC "-//W3C//DTD SVG 1.1//EN" "http://www.w3.org/Graphics/SVG/1.1/DTD/svg11.dtd"><svg t="1671506903214" class="icon" viewBox="0 0 1024 1024" version="1.1" xmlns="http://www.w3.org/2000/svg" p-id="4626" xmlns:xlink="http://www.w3.org/1999/xlink" width="48" height="48"><path d="M462.592 847.36H193.024a86.272 86.272 0 0 1-86.272-86.272V254.464a86.272 86.272 0 0 1 86.272-86.272h7.424v32.512a51.2 51.2 0 1 0 102.4 0V168.192h307.2v32.512a51.2 51.2 0 0 0 102.4 0V168.192h15.872a86.272 86.272 0 0 1 86.272 86.272v224.256a51.2 51.2 0 1 0 102.4 0V254.464a188.672 188.672 0 0 0-188.672-188.672h-15.872V51.2a51.2 51.2 0 0 0-102.4 0v14.592h-307.2V51.2a51.2 51.2 0 0 0-102.4 0v14.592h-7.424A188.672 188.672 0 0 0 4.352 254.464v506.624a188.672 188.672 0 0 0 188.672 188.672h269.568a51.2 51.2 0 0 0 0-102.4z" p-id="4627"></path><path d="M200.448 367.872h102.4v102.4h-102.4zM405.76 367.872h102.4v102.4h-102.4zM200.448 596.224h102.4v102.4h-102.4zM405.76 596.224h102.4v102.4h-102.4zM611.072 367.872h102.4v102.4h-102.4zM819.2 614.4a204.8 204.8 0 1 0 204.8 204.8 204.8 204.8 0 0 0-204.8-204.8z m128 248.32h-157.696v-153.6h51.2v102.4H947.2z" p-id="4628"></path></svg>